M48
;Layer_Color=9474304
;FILE_FORMAT=4:4
METRIC,LZ
;TYPE=PLATED
T1F00S00C0.5000
T2F00S00C0.8000
T3F00S00C1.1500
T4F00S00C1.9500
%
T01
X0043Y00025
X0043Y00045
Y00065
Y00085
X00455Y00075
X004554Y00055
X00455Y00035
X004975Y00055
Y001325
X00489Y00156
X004855Y00177
X004975Y002225
X004805Y002345
X00469Y002205
X004425Y002225
X004525Y002365
X00432Y00239
X00419Y00236
X004235Y0026
X00403Y00261
X004025Y002225
X00413Y00206
X00415Y00185
X00385
Y001275
X00415Y001275
X004425Y001325
X0035345Y0012055
Y0014595
X0035Y002225
X004455Y002773
X004905
X002625Y001975
X002625Y0017
X002225Y001965
X00213Y002125
X002025Y002225
X00201Y0016
X001925Y00145
X001375Y001425
X001455Y00093
X001575Y00073
X001355Y00057
X002125Y00055
X002375
X002625
X002875
X00306Y000705
X0031455Y0010785
X0031325Y0013325
X000775Y0013
X00045Y001425
Y001625
X000483Y00224
X0008Y0021
X00093Y00218
X001175Y0018
X001475Y0024
X00024Y002705
X00026Y000275
X0005Y000325
X00065Y0004
X00068Y00301
X00028Y002955
X00135Y003
X001475
X0016
X002245Y00304
T02
X0023675Y002775
X0026225
X0028725
X0031275
X0033825
T03
X003514Y000148
X003768
Y000402
X003514
X00326
Y000148
X003006
Y000402
X002752
Y000148
X002498
Y000402
X002244
Y000148
X00199
Y000402
X001736
Y000148
X001482
Y000402
T04
X00372Y00266
X00494Y002535
X00025Y00235
Y00185
Y00135
Y00085
X001055Y000275
M30
