%FSLAX44Y44*%
%MOMM*%
G71*
G01*
G75*
G04:AMPARAMS|DCode=10|XSize=1.05mm|YSize=0.65mm|CornerRadius=0.2015mm|HoleSize=0mm|Usage=FLASHONLY|Rotation=180.000|XOffset=0mm|YOffset=0mm|HoleType=Round|Shape=RoundedRectangle|*
%AMROUNDEDRECTD10*
21,1,1.0500,0.2470,0,0,180.0*
21,1,0.6470,0.6500,0,0,180.0*
1,1,0.4030,-0.3235,0.1235*
1,1,0.4030,0.3235,0.1235*
1,1,0.4030,0.3235,-0.1235*
1,1,0.4030,-0.3235,-0.1235*
%
%ADD10ROUNDEDRECTD10*%
G04:AMPARAMS|DCode=11|XSize=1.45mm|YSize=0.95mm|CornerRadius=0.1995mm|HoleSize=0mm|Usage=FLASHONLY|Rotation=90.000|XOffset=0mm|YOffset=0mm|HoleType=Round|Shape=RoundedRectangle|*
%AMROUNDEDRECTD11*
21,1,1.4500,0.5510,0,0,90.0*
21,1,1.0510,0.9500,0,0,90.0*
1,1,0.3990,0.2755,0.5255*
1,1,0.3990,0.2755,-0.5255*
1,1,0.3990,-0.2755,-0.5255*
1,1,0.3990,-0.2755,0.5255*
%
%ADD11ROUNDEDRECTD11*%
G04:AMPARAMS|DCode=12|XSize=1.45mm|YSize=1.15mm|CornerRadius=0.2013mm|HoleSize=0mm|Usage=FLASHONLY|Rotation=270.000|XOffset=0mm|YOffset=0mm|HoleType=Round|Shape=RoundedRectangle|*
%AMROUNDEDRECTD12*
21,1,1.4500,0.7475,0,0,270.0*
21,1,1.0475,1.1500,0,0,270.0*
1,1,0.4025,-0.3738,-0.5238*
1,1,0.4025,-0.3738,0.5238*
1,1,0.4025,0.3738,0.5238*
1,1,0.4025,0.3738,-0.5238*
%
%ADD12ROUNDEDRECTD12*%
G04:AMPARAMS|DCode=13|XSize=1.45mm|YSize=0.95mm|CornerRadius=0.1995mm|HoleSize=0mm|Usage=FLASHONLY|Rotation=0.000|XOffset=0mm|YOffset=0mm|HoleType=Round|Shape=RoundedRectangle|*
%AMROUNDEDRECTD13*
21,1,1.4500,0.5510,0,0,0.0*
21,1,1.0510,0.9500,0,0,0.0*
1,1,0.3990,0.5255,-0.2755*
1,1,0.3990,-0.5255,-0.2755*
1,1,0.3990,-0.5255,0.2755*
1,1,0.3990,0.5255,0.2755*
%
%ADD13ROUNDEDRECTD13*%
G04:AMPARAMS|DCode=14|XSize=1.1mm|YSize=0.7mm|CornerRadius=0.2345mm|HoleSize=0mm|Usage=FLASHONLY|Rotation=270.000|XOffset=0mm|YOffset=0mm|HoleType=Round|Shape=RoundedRectangle|*
%AMROUNDEDRECTD14*
21,1,1.1000,0.2310,0,0,270.0*
21,1,0.6310,0.7000,0,0,270.0*
1,1,0.4690,-0.1155,-0.3155*
1,1,0.4690,-0.1155,0.3155*
1,1,0.4690,0.1155,0.3155*
1,1,0.4690,0.1155,-0.3155*
%
%ADD14ROUNDEDRECTD14*%
G04:AMPARAMS|DCode=15|XSize=1.1mm|YSize=0.6mm|CornerRadius=0.201mm|HoleSize=0mm|Usage=FLASHONLY|Rotation=270.000|XOffset=0mm|YOffset=0mm|HoleType=Round|Shape=RoundedRectangle|*
%AMROUNDEDRECTD15*
21,1,1.1000,0.1980,0,0,270.0*
21,1,0.6980,0.6000,0,0,270.0*
1,1,0.4020,-0.0990,-0.3490*
1,1,0.4020,-0.0990,0.3490*
1,1,0.4020,0.0990,0.3490*
1,1,0.4020,0.0990,-0.3490*
%
%ADD15ROUNDEDRECTD15*%
G04:AMPARAMS|DCode=16|XSize=2.3mm|YSize=0.5mm|CornerRadius=0.2mm|HoleSize=0mm|Usage=FLASHONLY|Rotation=180.000|XOffset=0mm|YOffset=0mm|HoleType=Round|Shape=RoundedRectangle|*
%AMROUNDEDRECTD16*
21,1,2.3000,0.1000,0,0,180.0*
21,1,1.9000,0.5000,0,0,180.0*
1,1,0.4000,-0.9500,0.0500*
1,1,0.4000,0.9500,0.0500*
1,1,0.4000,0.9500,-0.0500*
1,1,0.4000,-0.9500,-0.0500*
%
%ADD16ROUNDEDRECTD16*%
G04:AMPARAMS|DCode=17|XSize=2.5mm|YSize=2mm|CornerRadius=0.2mm|HoleSize=0mm|Usage=FLASHONLY|Rotation=180.000|XOffset=0mm|YOffset=0mm|HoleType=Round|Shape=RoundedRectangle|*
%AMROUNDEDRECTD17*
21,1,2.5000,1.6000,0,0,180.0*
21,1,2.1000,2.0000,0,0,180.0*
1,1,0.4000,-1.0500,0.8000*
1,1,0.4000,1.0500,0.8000*
1,1,0.4000,1.0500,-0.8000*
1,1,0.4000,-1.0500,-0.8000*
%
%ADD17ROUNDEDRECTD17*%
G04:AMPARAMS|DCode=18|XSize=1.45mm|YSize=1.15mm|CornerRadius=0.2013mm|HoleSize=0mm|Usage=FLASHONLY|Rotation=0.000|XOffset=0mm|YOffset=0mm|HoleType=Round|Shape=RoundedRectangle|*
%AMROUNDEDRECTD18*
21,1,1.4500,0.7475,0,0,0.0*
21,1,1.0475,1.1500,0,0,0.0*
1,1,0.4025,0.5238,-0.3738*
1,1,0.4025,-0.5238,-0.3738*
1,1,0.4025,-0.5238,0.3738*
1,1,0.4025,0.5238,0.3738*
%
%ADD18ROUNDEDRECTD18*%
G04:AMPARAMS|DCode=19|XSize=1.75mm|YSize=1.05mm|CornerRadius=0.1995mm|HoleSize=0mm|Usage=FLASHONLY|Rotation=270.000|XOffset=0mm|YOffset=0mm|HoleType=Round|Shape=RoundedRectangle|*
%AMROUNDEDRECTD19*
21,1,1.7500,0.6510,0,0,270.0*
21,1,1.3510,1.0500,0,0,270.0*
1,1,0.3990,-0.3255,-0.6755*
1,1,0.3990,-0.3255,0.6755*
1,1,0.3990,0.3255,0.6755*
1,1,0.3990,0.3255,-0.6755*
%
%ADD19ROUNDEDRECTD19*%
G04:AMPARAMS|DCode=20|XSize=1.05mm|YSize=0.65mm|CornerRadius=0.2015mm|HoleSize=0mm|Usage=FLASHONLY|Rotation=90.000|XOffset=0mm|YOffset=0mm|HoleType=Round|Shape=RoundedRectangle|*
%AMROUNDEDRECTD20*
21,1,1.0500,0.2470,0,0,90.0*
21,1,0.6470,0.6500,0,0,90.0*
1,1,0.4030,0.1235,0.3235*
1,1,0.4030,0.1235,-0.3235*
1,1,0.4030,-0.1235,-0.3235*
1,1,0.4030,-0.1235,0.3235*
%
%ADD20ROUNDEDRECTD20*%
%ADD21O,1.5500X0.6000*%
G04:AMPARAMS|DCode=22|XSize=1.25mm|YSize=0.6mm|CornerRadius=0.201mm|HoleSize=0mm|Usage=FLASHONLY|Rotation=180.000|XOffset=0mm|YOffset=0mm|HoleType=Round|Shape=RoundedRectangle|*
%AMROUNDEDRECTD22*
21,1,1.2500,0.1980,0,0,180.0*
21,1,0.8480,0.6000,0,0,180.0*
1,1,0.4020,-0.4240,0.0990*
1,1,0.4020,0.4240,0.0990*
1,1,0.4020,0.4240,-0.0990*
1,1,0.4020,-0.4240,-0.0990*
%
%ADD22ROUNDEDRECTD22*%
G04:AMPARAMS|DCode=23|XSize=1mm|YSize=0.75mm|CornerRadius=0.1988mm|HoleSize=0mm|Usage=FLASHONLY|Rotation=180.000|XOffset=0mm|YOffset=0mm|HoleType=Round|Shape=RoundedRectangle|*
%AMROUNDEDRECTD23*
21,1,1.0000,0.3525,0,0,180.0*
21,1,0.6025,0.7500,0,0,180.0*
1,1,0.3975,-0.3013,0.1762*
1,1,0.3975,0.3013,0.1762*
1,1,0.3975,0.3013,-0.1762*
1,1,0.3975,-0.3013,-0.1762*
%
%ADD23ROUNDEDRECTD23*%
%ADD24O,2.0000X0.6000*%
%ADD25C,0.5000*%
%ADD26C,0.2500*%
%ADD27C,0.4000*%
%ADD28C,0.3000*%
%ADD29C,2.8000*%
%ADD30C,0.5000*%
%ADD31C,1.8500*%
G04:AMPARAMS|DCode=32|XSize=1.85mm|YSize=1.85mm|CornerRadius=0.2035mm|HoleSize=0mm|Usage=FLASHONLY|Rotation=0.000|XOffset=0mm|YOffset=0mm|HoleType=Round|Shape=RoundedRectangle|*
%AMROUNDEDRECTD32*
21,1,1.8500,1.4430,0,0,0.0*
21,1,1.4430,1.8500,0,0,0.0*
1,1,0.4070,0.7215,-0.7215*
1,1,0.4070,-0.7215,-0.7215*
1,1,0.4070,-0.7215,0.7215*
1,1,0.4070,0.7215,0.7215*
%
%ADD32ROUNDEDRECTD32*%
%ADD33C,2.6500*%
%ADD34C,1.3000*%
%ADD35R,1.3000X1.3000*%
%ADD36C,1.0000*%
%ADD37C,0.1500*%
%ADD38C,0.2000*%
%ADD39C,0.1000*%
G04:AMPARAMS|DCode=40|XSize=1.2mm|YSize=0.8mm|CornerRadius=0.2765mm|HoleSize=0mm|Usage=FLASHONLY|Rotation=180.000|XOffset=0mm|YOffset=0mm|HoleType=Round|Shape=RoundedRectangle|*
%AMROUNDEDRECTD40*
21,1,1.2000,0.2470,0,0,180.0*
21,1,0.6470,0.8000,0,0,180.0*
1,1,0.5530,-0.3235,0.1235*
1,1,0.5530,0.3235,0.1235*
1,1,0.5530,0.3235,-0.1235*
1,1,0.5530,-0.3235,-0.1235*
%
%ADD40ROUNDEDRECTD40*%
G04:AMPARAMS|DCode=41|XSize=1.6mm|YSize=1.1mm|CornerRadius=0.2745mm|HoleSize=0mm|Usage=FLASHONLY|Rotation=90.000|XOffset=0mm|YOffset=0mm|HoleType=Round|Shape=RoundedRectangle|*
%AMROUNDEDRECTD41*
21,1,1.6000,0.5510,0,0,90.0*
21,1,1.0510,1.1000,0,0,90.0*
1,1,0.5490,0.2755,0.5255*
1,1,0.5490,0.2755,-0.5255*
1,1,0.5490,-0.2755,-0.5255*
1,1,0.5490,-0.2755,0.5255*
%
%ADD41ROUNDEDRECTD41*%
G04:AMPARAMS|DCode=42|XSize=1.6mm|YSize=1.3mm|CornerRadius=0.2763mm|HoleSize=0mm|Usage=FLASHONLY|Rotation=270.000|XOffset=0mm|YOffset=0mm|HoleType=Round|Shape=RoundedRectangle|*
%AMROUNDEDRECTD42*
21,1,1.6000,0.7475,0,0,270.0*
21,1,1.0475,1.3000,0,0,270.0*
1,1,0.5525,-0.3738,-0.5238*
1,1,0.5525,-0.3738,0.5238*
1,1,0.5525,0.3738,0.5238*
1,1,0.5525,0.3738,-0.5238*
%
%ADD42ROUNDEDRECTD42*%
G04:AMPARAMS|DCode=43|XSize=1.6mm|YSize=1.1mm|CornerRadius=0.2745mm|HoleSize=0mm|Usage=FLASHONLY|Rotation=0.000|XOffset=0mm|YOffset=0mm|HoleType=Round|Shape=RoundedRectangle|*
%AMROUNDEDRECTD43*
21,1,1.6000,0.5510,0,0,0.0*
21,1,1.0510,1.1000,0,0,0.0*
1,1,0.5490,0.5255,-0.2755*
1,1,0.5490,-0.5255,-0.2755*
1,1,0.5490,-0.5255,0.2755*
1,1,0.5490,0.5255,0.2755*
%
%ADD43ROUNDEDRECTD43*%
G04:AMPARAMS|DCode=44|XSize=1.25mm|YSize=0.85mm|CornerRadius=0.3095mm|HoleSize=0mm|Usage=FLASHONLY|Rotation=270.000|XOffset=0mm|YOffset=0mm|HoleType=Round|Shape=RoundedRectangle|*
%AMROUNDEDRECTD44*
21,1,1.2500,0.2310,0,0,270.0*
21,1,0.6310,0.8500,0,0,270.0*
1,1,0.6190,-0.1155,-0.3155*
1,1,0.6190,-0.1155,0.3155*
1,1,0.6190,0.1155,0.3155*
1,1,0.6190,0.1155,-0.3155*
%
%ADD44ROUNDEDRECTD44*%
G04:AMPARAMS|DCode=45|XSize=1.25mm|YSize=0.75mm|CornerRadius=0.276mm|HoleSize=0mm|Usage=FLASHONLY|Rotation=270.000|XOffset=0mm|YOffset=0mm|HoleType=Round|Shape=RoundedRectangle|*
%AMROUNDEDRECTD45*
21,1,1.2500,0.1980,0,0,270.0*
21,1,0.6980,0.7500,0,0,270.0*
1,1,0.5520,-0.0990,-0.3490*
1,1,0.5520,-0.0990,0.3490*
1,1,0.5520,0.0990,0.3490*
1,1,0.5520,0.0990,-0.3490*
%
%ADD45ROUNDEDRECTD45*%
G04:AMPARAMS|DCode=46|XSize=2.45mm|YSize=0.65mm|CornerRadius=0.275mm|HoleSize=0mm|Usage=FLASHONLY|Rotation=180.000|XOffset=0mm|YOffset=0mm|HoleType=Round|Shape=RoundedRectangle|*
%AMROUNDEDRECTD46*
21,1,2.4500,0.1000,0,0,180.0*
21,1,1.9000,0.6500,0,0,180.0*
1,1,0.5500,-0.9500,0.0500*
1,1,0.5500,0.9500,0.0500*
1,1,0.5500,0.9500,-0.0500*
1,1,0.5500,-0.9500,-0.0500*
%
%ADD46ROUNDEDRECTD46*%
G04:AMPARAMS|DCode=47|XSize=2.65mm|YSize=2.15mm|CornerRadius=0.275mm|HoleSize=0mm|Usage=FLASHONLY|Rotation=180.000|XOffset=0mm|YOffset=0mm|HoleType=Round|Shape=RoundedRectangle|*
%AMROUNDEDRECTD47*
21,1,2.6500,1.6000,0,0,180.0*
21,1,2.1000,2.1500,0,0,180.0*
1,1,0.5500,-1.0500,0.8000*
1,1,0.5500,1.0500,0.8000*
1,1,0.5500,1.0500,-0.8000*
1,1,0.5500,-1.0500,-0.8000*
%
%ADD47ROUNDEDRECTD47*%
G04:AMPARAMS|DCode=48|XSize=1.6mm|YSize=1.3mm|CornerRadius=0.2763mm|HoleSize=0mm|Usage=FLASHONLY|Rotation=0.000|XOffset=0mm|YOffset=0mm|HoleType=Round|Shape=RoundedRectangle|*
%AMROUNDEDRECTD48*
21,1,1.6000,0.7475,0,0,0.0*
21,1,1.0475,1.3000,0,0,0.0*
1,1,0.5525,0.5238,-0.3738*
1,1,0.5525,-0.5238,-0.3738*
1,1,0.5525,-0.5238,0.3738*
1,1,0.5525,0.5238,0.3738*
%
%ADD48ROUNDEDRECTD48*%
G04:AMPARAMS|DCode=49|XSize=1.9mm|YSize=1.2mm|CornerRadius=0.2745mm|HoleSize=0mm|Usage=FLASHONLY|Rotation=270.000|XOffset=0mm|YOffset=0mm|HoleType=Round|Shape=RoundedRectangle|*
%AMROUNDEDRECTD49*
21,1,1.9000,0.6510,0,0,270.0*
21,1,1.3510,1.2000,0,0,270.0*
1,1,0.5490,-0.3255,-0.6755*
1,1,0.5490,-0.3255,0.6755*
1,1,0.5490,0.3255,0.6755*
1,1,0.5490,0.3255,-0.6755*
%
%ADD49ROUNDEDRECTD49*%
G04:AMPARAMS|DCode=50|XSize=1.2mm|YSize=0.8mm|CornerRadius=0.2765mm|HoleSize=0mm|Usage=FLASHONLY|Rotation=90.000|XOffset=0mm|YOffset=0mm|HoleType=Round|Shape=RoundedRectangle|*
%AMROUNDEDRECTD50*
21,1,1.2000,0.2470,0,0,90.0*
21,1,0.6470,0.8000,0,0,90.0*
1,1,0.5530,0.1235,0.3235*
1,1,0.5530,0.1235,-0.3235*
1,1,0.5530,-0.1235,-0.3235*
1,1,0.5530,-0.1235,0.3235*
%
%ADD50ROUNDEDRECTD50*%
%ADD51O,1.7000X0.7500*%
G04:AMPARAMS|DCode=52|XSize=1.4mm|YSize=0.75mm|CornerRadius=0.276mm|HoleSize=0mm|Usage=FLASHONLY|Rotation=180.000|XOffset=0mm|YOffset=0mm|HoleType=Round|Shape=RoundedRectangle|*
%AMROUNDEDRECTD52*
21,1,1.4000,0.1980,0,0,180.0*
21,1,0.8480,0.7500,0,0,180.0*
1,1,0.5520,-0.4240,0.0990*
1,1,0.5520,0.4240,0.0990*
1,1,0.5520,0.4240,-0.0990*
1,1,0.5520,-0.4240,-0.0990*
%
%ADD52ROUNDEDRECTD52*%
G04:AMPARAMS|DCode=53|XSize=1.15mm|YSize=0.9mm|CornerRadius=0.2737mm|HoleSize=0mm|Usage=FLASHONLY|Rotation=180.000|XOffset=0mm|YOffset=0mm|HoleType=Round|Shape=RoundedRectangle|*
%AMROUNDEDRECTD53*
21,1,1.1500,0.3525,0,0,180.0*
21,1,0.6025,0.9000,0,0,180.0*
1,1,0.5475,-0.3013,0.1762*
1,1,0.5475,0.3013,0.1762*
1,1,0.5475,0.3013,-0.1762*
1,1,0.5475,-0.3013,-0.1762*
%
%ADD53ROUNDEDRECTD53*%
%ADD54O,2.1500X0.7500*%
%ADD55C,3.0032*%
%ADD56C,1.0500*%
%ADD57C,2.0000*%
G04:AMPARAMS|DCode=58|XSize=2mm|YSize=2mm|CornerRadius=0.2785mm|HoleSize=0mm|Usage=FLASHONLY|Rotation=0.000|XOffset=0mm|YOffset=0mm|HoleType=Round|Shape=RoundedRectangle|*
%AMROUNDEDRECTD58*
21,1,2.0000,1.4430,0,0,0.0*
21,1,1.4430,2.0000,0,0,0.0*
1,1,0.5570,0.7215,-0.7215*
1,1,0.5570,-0.7215,-0.7215*
1,1,0.5570,-0.7215,0.7215*
1,1,0.5570,0.7215,0.7215*
%
%ADD58ROUNDEDRECTD58*%
%ADD59C,2.8000*%
%ADD60C,1.5032*%
%ADD61R,1.5032X1.5032*%
%ADD62C,0.0500*%
%ADD63C,0.0400*%
%ADD64C,0.1270*%
%ADD65C,0.1693*%
D64*
X484250Y253500D02*
X503750D01*
X494000Y243750D02*
Y263250D01*
X362250Y266000D02*
X381750D01*
X372000Y256250D02*
Y275750D01*
X463000Y138000D02*
X472000D01*
X467500Y133500D02*
Y142500D01*
X463000Y182000D02*
X472000D01*
X467500Y177500D02*
Y186500D01*
X371050Y14800D02*
X382550D01*
X376800Y9050D02*
Y20550D01*
X371050Y40200D02*
X382550D01*
X376800Y34450D02*
Y45950D01*
X345650Y14800D02*
X357150D01*
X351400Y9050D02*
Y20550D01*
X345650Y40200D02*
X357150D01*
X351400Y34450D02*
Y45950D01*
X320250Y14800D02*
X331750D01*
X326000Y9050D02*
Y20550D01*
X320250Y40200D02*
X331750D01*
X326000Y34450D02*
Y45950D01*
X294850Y14800D02*
X306350D01*
X300600Y9050D02*
Y20550D01*
X294850Y40200D02*
X306350D01*
X300600Y34450D02*
Y45950D01*
X269450Y14800D02*
X280950D01*
X275200Y9050D02*
Y20550D01*
X269450Y40200D02*
X280950D01*
X275200Y34450D02*
Y45950D01*
X244050Y14800D02*
X255550D01*
X249800Y9050D02*
Y20550D01*
X244050Y40200D02*
X255550D01*
X249800Y34450D02*
Y45950D01*
X218650Y14800D02*
X230150D01*
X224400Y9050D02*
Y20550D01*
X218650Y40200D02*
X230150D01*
X224400Y34450D02*
Y45950D01*
X193250Y14800D02*
X204750D01*
X199000Y9050D02*
Y20550D01*
X193250Y40200D02*
X204750D01*
X199000Y34450D02*
Y45950D01*
X167850Y14800D02*
X179350D01*
X173600Y9050D02*
Y20550D01*
X167850Y40200D02*
X179350D01*
X173600Y34450D02*
Y45950D01*
X142450Y14800D02*
X153950D01*
X148200Y9050D02*
Y20550D01*
X142450Y40200D02*
X153950D01*
X148200Y34450D02*
Y45950D01*
X15250Y235000D02*
X34750D01*
X25000Y225250D02*
Y244750D01*
X15250Y185000D02*
X34750D01*
X25000Y175250D02*
Y194750D01*
X15250Y135000D02*
X34750D01*
X25000Y125250D02*
Y144750D01*
X15250Y85000D02*
X34750D01*
X25000Y75250D02*
Y94750D01*
X334250Y277500D02*
X342250D01*
X338250Y273500D02*
Y281500D01*
X308750Y277500D02*
X316750D01*
X312750Y273500D02*
Y281500D01*
X283250Y277500D02*
X291250D01*
X287250Y273500D02*
Y281500D01*
X258250Y277500D02*
X266250D01*
X262250Y273500D02*
Y281500D01*
X232750Y277500D02*
X240750D01*
X236750Y273500D02*
Y281500D01*
X95750Y27500D02*
X115250D01*
X105500Y17750D02*
Y37250D01*
X478000Y234500D02*
X483000D01*
X480500Y232000D02*
Y237000D01*
X429500Y239000D02*
X434500D01*
X432000Y236500D02*
Y241500D01*
X421000Y260000D02*
X426000D01*
X423500Y257500D02*
Y262500D01*
X488000Y277300D02*
X493000D01*
X490500Y274800D02*
Y279800D01*
X303500Y70500D02*
X308500D01*
X306000Y68000D02*
Y73000D01*
X143000Y93000D02*
X148000D01*
X145500Y90500D02*
Y95500D01*
X220000Y196500D02*
X225000D01*
X222500Y194000D02*
Y199000D01*
X443000Y277300D02*
X448000D01*
X445500Y274800D02*
Y279800D01*
X382500Y127500D02*
X387500D01*
X385000Y125000D02*
Y130000D01*
X210000Y55000D02*
X215000D01*
X212500Y52500D02*
Y57500D01*
X235000Y55000D02*
X240000D01*
X237500Y52500D02*
Y57500D01*
X260000Y55000D02*
X265000D01*
X262500Y52500D02*
Y57500D01*
X285000Y55000D02*
X290000D01*
X287500Y52500D02*
Y57500D01*
X260000Y170000D02*
X265000D01*
X262500Y167500D02*
Y172500D01*
X260000Y197500D02*
X265000D01*
X262500Y195000D02*
Y200000D01*
X382500Y185000D02*
X387500D01*
X385000Y182500D02*
Y187500D01*
X222000Y304000D02*
X227000D01*
X224500Y301500D02*
Y306500D01*
X200000Y222500D02*
X205000D01*
X202500Y220000D02*
Y225000D01*
X75000Y130000D02*
X80000D01*
X77500Y127500D02*
Y132500D01*
X42500Y162500D02*
X47500D01*
X45000Y160000D02*
Y165000D01*
X42500Y142500D02*
X47500D01*
X45000Y140000D02*
Y145000D01*
X45800Y224000D02*
X50800D01*
X48300Y221500D02*
Y226500D01*
X77500Y210000D02*
X82500D01*
X80000Y207500D02*
Y212500D01*
X135000Y142500D02*
X140000D01*
X137500Y140000D02*
Y145000D01*
X190000Y145000D02*
X195000D01*
X192500Y142500D02*
Y147500D01*
X115000Y180000D02*
X120000D01*
X117500Y177500D02*
Y182500D01*
X62500Y40000D02*
X67500D01*
X65000Y37500D02*
Y42500D01*
X145000Y240000D02*
X150000D01*
X147500Y237500D02*
Y242500D01*
X347500Y222500D02*
X352500D01*
X350000Y220000D02*
Y225000D01*
X400000Y222500D02*
X405000D01*
X402500Y220000D02*
Y225000D01*
X440000Y222500D02*
X445000D01*
X442500Y220000D02*
Y225000D01*
X495000Y222500D02*
X500000D01*
X497500Y220000D02*
Y225000D01*
X440000Y132500D02*
X445000D01*
X442500Y130000D02*
Y135000D01*
X412500Y185000D02*
X417500D01*
X415000Y182500D02*
Y187500D01*
X427500Y65000D02*
X432500D01*
X430000Y62500D02*
Y67500D01*
X427500Y85000D02*
X432500D01*
X430000Y82500D02*
Y87500D01*
X427500Y45000D02*
X432500D01*
X430000Y42500D02*
Y47500D01*
X427500Y25000D02*
X432500D01*
X430000Y22500D02*
Y27500D01*
X412500Y127500D02*
X417500D01*
X415000Y125000D02*
Y130000D01*
X495000Y132500D02*
X500000D01*
X497500Y130000D02*
Y135000D01*
X452900Y55000D02*
X457900D01*
X455400Y52500D02*
Y57500D01*
X452500Y35000D02*
X457500D01*
X455000Y32500D02*
Y37500D01*
X452500Y75000D02*
X457500D01*
X455000Y72500D02*
Y77500D01*
X495000Y55000D02*
X500000D01*
X497500Y52500D02*
Y57500D01*
X310750Y133250D02*
X315750D01*
X313250Y130750D02*
Y135750D01*
X350950Y120550D02*
X355950D01*
X353450Y118050D02*
Y123050D01*
X312050Y107850D02*
X317050D01*
X314550Y105350D02*
Y110350D01*
X350950Y145950D02*
X355950D01*
X353450Y143450D02*
Y148450D01*
X157500Y300000D02*
X162500D01*
X160000Y297500D02*
Y302500D01*
X132500Y300000D02*
X137500D01*
X135000Y297500D02*
Y302500D01*
X145000Y300000D02*
X150000D01*
X147500Y297500D02*
Y302500D01*
X90500Y218000D02*
X95500D01*
X93000Y215500D02*
Y220500D01*
X210500Y212500D02*
X215500D01*
X213000Y210000D02*
Y215000D01*
X198500Y160000D02*
X203500D01*
X201000Y157500D02*
Y162500D01*
X155000Y73000D02*
X160000D01*
X157500Y70500D02*
Y75500D01*
X133000Y57000D02*
X138000D01*
X135500Y54500D02*
Y59500D01*
X416500Y236000D02*
X421500D01*
X419000Y233500D02*
Y238500D01*
X450000Y236500D02*
X455000D01*
X452500Y234000D02*
Y239000D01*
X410500Y206000D02*
X415500D01*
X413000Y203500D02*
Y208500D01*
X400500Y261000D02*
X405500D01*
X403000Y258500D02*
Y263500D01*
X486500Y156000D02*
X491500D01*
X489000Y153500D02*
Y158500D01*
X466500Y220500D02*
X471500D01*
X469000Y218000D02*
Y223000D01*
X483000Y177000D02*
X488000D01*
X485500Y174500D02*
Y179500D01*
X23500Y27500D02*
X28500D01*
X26000Y25000D02*
Y30000D01*
X65500Y301000D02*
X70500D01*
X68000Y298500D02*
Y303500D01*
X21500Y270500D02*
X26500D01*
X24000Y268000D02*
Y273000D01*
X25500Y295500D02*
X30500D01*
X28000Y293000D02*
Y298000D01*
X47500Y32500D02*
X52500D01*
X50000Y30000D02*
Y35000D01*
M02*
