%FSLAX44Y44*%
%MOMM*%
G71*
G01*
G75*
G04 Layer_Color=8421504*
G04:AMPARAMS|DCode=10|XSize=1.05mm|YSize=0.65mm|CornerRadius=0.2015mm|HoleSize=0mm|Usage=FLASHONLY|Rotation=180.000|XOffset=0mm|YOffset=0mm|HoleType=Round|Shape=RoundedRectangle|*
%AMROUNDEDRECTD10*
21,1,1.0500,0.2470,0,0,180.0*
21,1,0.6470,0.6500,0,0,180.0*
1,1,0.4030,-0.3235,0.1235*
1,1,0.4030,0.3235,0.1235*
1,1,0.4030,0.3235,-0.1235*
1,1,0.4030,-0.3235,-0.1235*
%
%ADD10ROUNDEDRECTD10*%
G04:AMPARAMS|DCode=11|XSize=1.45mm|YSize=0.95mm|CornerRadius=0.1995mm|HoleSize=0mm|Usage=FLASHONLY|Rotation=90.000|XOffset=0mm|YOffset=0mm|HoleType=Round|Shape=RoundedRectangle|*
%AMROUNDEDRECTD11*
21,1,1.4500,0.5510,0,0,90.0*
21,1,1.0510,0.9500,0,0,90.0*
1,1,0.3990,0.2755,0.5255*
1,1,0.3990,0.2755,-0.5255*
1,1,0.3990,-0.2755,-0.5255*
1,1,0.3990,-0.2755,0.5255*
%
%ADD11ROUNDEDRECTD11*%
G04:AMPARAMS|DCode=12|XSize=1.45mm|YSize=1.15mm|CornerRadius=0.2013mm|HoleSize=0mm|Usage=FLASHONLY|Rotation=270.000|XOffset=0mm|YOffset=0mm|HoleType=Round|Shape=RoundedRectangle|*
%AMROUNDEDRECTD12*
21,1,1.4500,0.7475,0,0,270.0*
21,1,1.0475,1.1500,0,0,270.0*
1,1,0.4025,-0.3738,-0.5238*
1,1,0.4025,-0.3738,0.5238*
1,1,0.4025,0.3738,0.5238*
1,1,0.4025,0.3738,-0.5238*
%
%ADD12ROUNDEDRECTD12*%
G04:AMPARAMS|DCode=13|XSize=1.45mm|YSize=0.95mm|CornerRadius=0.1995mm|HoleSize=0mm|Usage=FLASHONLY|Rotation=0.000|XOffset=0mm|YOffset=0mm|HoleType=Round|Shape=RoundedRectangle|*
%AMROUNDEDRECTD13*
21,1,1.4500,0.5510,0,0,0.0*
21,1,1.0510,0.9500,0,0,0.0*
1,1,0.3990,0.5255,-0.2755*
1,1,0.3990,-0.5255,-0.2755*
1,1,0.3990,-0.5255,0.2755*
1,1,0.3990,0.5255,0.2755*
%
%ADD13ROUNDEDRECTD13*%
G04:AMPARAMS|DCode=14|XSize=1.1mm|YSize=0.7mm|CornerRadius=0.2345mm|HoleSize=0mm|Usage=FLASHONLY|Rotation=270.000|XOffset=0mm|YOffset=0mm|HoleType=Round|Shape=RoundedRectangle|*
%AMROUNDEDRECTD14*
21,1,1.1000,0.2310,0,0,270.0*
21,1,0.6310,0.7000,0,0,270.0*
1,1,0.4690,-0.1155,-0.3155*
1,1,0.4690,-0.1155,0.3155*
1,1,0.4690,0.1155,0.3155*
1,1,0.4690,0.1155,-0.3155*
%
%ADD14ROUNDEDRECTD14*%
G04:AMPARAMS|DCode=15|XSize=1.1mm|YSize=0.6mm|CornerRadius=0.201mm|HoleSize=0mm|Usage=FLASHONLY|Rotation=270.000|XOffset=0mm|YOffset=0mm|HoleType=Round|Shape=RoundedRectangle|*
%AMROUNDEDRECTD15*
21,1,1.1000,0.1980,0,0,270.0*
21,1,0.6980,0.6000,0,0,270.0*
1,1,0.4020,-0.0990,-0.3490*
1,1,0.4020,-0.0990,0.3490*
1,1,0.4020,0.0990,0.3490*
1,1,0.4020,0.0990,-0.3490*
%
%ADD15ROUNDEDRECTD15*%
G04:AMPARAMS|DCode=16|XSize=2.3mm|YSize=0.5mm|CornerRadius=0.2mm|HoleSize=0mm|Usage=FLASHONLY|Rotation=180.000|XOffset=0mm|YOffset=0mm|HoleType=Round|Shape=RoundedRectangle|*
%AMROUNDEDRECTD16*
21,1,2.3000,0.1000,0,0,180.0*
21,1,1.9000,0.5000,0,0,180.0*
1,1,0.4000,-0.9500,0.0500*
1,1,0.4000,0.9500,0.0500*
1,1,0.4000,0.9500,-0.0500*
1,1,0.4000,-0.9500,-0.0500*
%
%ADD16ROUNDEDRECTD16*%
G04:AMPARAMS|DCode=17|XSize=2.5mm|YSize=2mm|CornerRadius=0.2mm|HoleSize=0mm|Usage=FLASHONLY|Rotation=180.000|XOffset=0mm|YOffset=0mm|HoleType=Round|Shape=RoundedRectangle|*
%AMROUNDEDRECTD17*
21,1,2.5000,1.6000,0,0,180.0*
21,1,2.1000,2.0000,0,0,180.0*
1,1,0.4000,-1.0500,0.8000*
1,1,0.4000,1.0500,0.8000*
1,1,0.4000,1.0500,-0.8000*
1,1,0.4000,-1.0500,-0.8000*
%
%ADD17ROUNDEDRECTD17*%
G04:AMPARAMS|DCode=18|XSize=1.45mm|YSize=1.15mm|CornerRadius=0.2013mm|HoleSize=0mm|Usage=FLASHONLY|Rotation=0.000|XOffset=0mm|YOffset=0mm|HoleType=Round|Shape=RoundedRectangle|*
%AMROUNDEDRECTD18*
21,1,1.4500,0.7475,0,0,0.0*
21,1,1.0475,1.1500,0,0,0.0*
1,1,0.4025,0.5238,-0.3738*
1,1,0.4025,-0.5238,-0.3738*
1,1,0.4025,-0.5238,0.3738*
1,1,0.4025,0.5238,0.3738*
%
%ADD18ROUNDEDRECTD18*%
G04:AMPARAMS|DCode=19|XSize=1.75mm|YSize=1.05mm|CornerRadius=0.1995mm|HoleSize=0mm|Usage=FLASHONLY|Rotation=270.000|XOffset=0mm|YOffset=0mm|HoleType=Round|Shape=RoundedRectangle|*
%AMROUNDEDRECTD19*
21,1,1.7500,0.6510,0,0,270.0*
21,1,1.3510,1.0500,0,0,270.0*
1,1,0.3990,-0.3255,-0.6755*
1,1,0.3990,-0.3255,0.6755*
1,1,0.3990,0.3255,0.6755*
1,1,0.3990,0.3255,-0.6755*
%
%ADD19ROUNDEDRECTD19*%
G04:AMPARAMS|DCode=20|XSize=1.05mm|YSize=0.65mm|CornerRadius=0.2015mm|HoleSize=0mm|Usage=FLASHONLY|Rotation=90.000|XOffset=0mm|YOffset=0mm|HoleType=Round|Shape=RoundedRectangle|*
%AMROUNDEDRECTD20*
21,1,1.0500,0.2470,0,0,90.0*
21,1,0.6470,0.6500,0,0,90.0*
1,1,0.4030,0.1235,0.3235*
1,1,0.4030,0.1235,-0.3235*
1,1,0.4030,-0.1235,-0.3235*
1,1,0.4030,-0.1235,0.3235*
%
%ADD20ROUNDEDRECTD20*%
%ADD21O,1.5500X0.6000*%
G04:AMPARAMS|DCode=22|XSize=1.25mm|YSize=0.6mm|CornerRadius=0.201mm|HoleSize=0mm|Usage=FLASHONLY|Rotation=180.000|XOffset=0mm|YOffset=0mm|HoleType=Round|Shape=RoundedRectangle|*
%AMROUNDEDRECTD22*
21,1,1.2500,0.1980,0,0,180.0*
21,1,0.8480,0.6000,0,0,180.0*
1,1,0.4020,-0.4240,0.0990*
1,1,0.4020,0.4240,0.0990*
1,1,0.4020,0.4240,-0.0990*
1,1,0.4020,-0.4240,-0.0990*
%
%ADD22ROUNDEDRECTD22*%
G04:AMPARAMS|DCode=23|XSize=1mm|YSize=0.75mm|CornerRadius=0.1988mm|HoleSize=0mm|Usage=FLASHONLY|Rotation=180.000|XOffset=0mm|YOffset=0mm|HoleType=Round|Shape=RoundedRectangle|*
%AMROUNDEDRECTD23*
21,1,1.0000,0.3525,0,0,180.0*
21,1,0.6025,0.7500,0,0,180.0*
1,1,0.3975,-0.3013,0.1762*
1,1,0.3975,0.3013,0.1762*
1,1,0.3975,0.3013,-0.1762*
1,1,0.3975,-0.3013,-0.1762*
%
%ADD23ROUNDEDRECTD23*%
%ADD24O,2.0000X0.6000*%
%ADD25C,0.5000*%
%ADD26C,0.2500*%
%ADD27C,0.4000*%
%ADD28C,0.3000*%
%ADD29C,2.8000*%
%ADD30C,0.5000*%
%ADD31C,1.8500*%
G04:AMPARAMS|DCode=32|XSize=1.85mm|YSize=1.85mm|CornerRadius=0.2035mm|HoleSize=0mm|Usage=FLASHONLY|Rotation=0.000|XOffset=0mm|YOffset=0mm|HoleType=Round|Shape=RoundedRectangle|*
%AMROUNDEDRECTD32*
21,1,1.8500,1.4430,0,0,0.0*
21,1,1.4430,1.8500,0,0,0.0*
1,1,0.4070,0.7215,-0.7215*
1,1,0.4070,-0.7215,-0.7215*
1,1,0.4070,-0.7215,0.7215*
1,1,0.4070,0.7215,0.7215*
%
%ADD32ROUNDEDRECTD32*%
%ADD33C,2.6500*%
%ADD34C,1.3000*%
%ADD35R,1.3000X1.3000*%
%ADD36C,1.0000*%
%ADD37C,0.1500*%
%ADD38C,0.2000*%
%ADD39C,0.1000*%
D10*
X467500Y296500D02*
D03*
X490500Y305700D02*
D03*
Y287300D02*
D03*
X422500Y296500D02*
D03*
X445500Y305700D02*
D03*
Y287300D02*
D03*
X443500Y74200D02*
D03*
Y55800D02*
D03*
X466500Y65000D02*
D03*
X443500Y34200D02*
D03*
Y15800D02*
D03*
X466500Y25000D02*
D03*
Y75800D02*
D03*
Y94200D02*
D03*
X443500Y85000D02*
D03*
X466500Y35800D02*
D03*
Y54200D02*
D03*
X443500Y45000D02*
D03*
D11*
X443000Y253500D02*
D03*
X463000D02*
D03*
X505000Y85000D02*
D03*
X485000D02*
D03*
X505000Y65000D02*
D03*
X485000D02*
D03*
X505000Y45000D02*
D03*
X485000D02*
D03*
X505000Y25000D02*
D03*
X485000D02*
D03*
X100000Y55000D02*
D03*
X120000D02*
D03*
X72500Y80000D02*
D03*
X92500D02*
D03*
X132500Y85000D02*
D03*
X112500D02*
D03*
X95000Y199000D02*
D03*
X115000D02*
D03*
X192500Y180000D02*
D03*
X172500D02*
D03*
X192500Y105000D02*
D03*
X172500D02*
D03*
X57500Y182500D02*
D03*
X77500D02*
D03*
X150000Y199000D02*
D03*
X130000D02*
D03*
X200000Y257500D02*
D03*
X220000D02*
D03*
X385000Y80000D02*
D03*
X365000D02*
D03*
X420000Y65000D02*
D03*
X400000D02*
D03*
X420000Y45000D02*
D03*
X400000D02*
D03*
X420000Y25000D02*
D03*
X400000D02*
D03*
X162500Y220000D02*
D03*
X142500D02*
D03*
D12*
X306000Y87000D02*
D03*
X324000D02*
D03*
X84000Y55000D02*
D03*
X66000D02*
D03*
X172000Y160000D02*
D03*
X190000D02*
D03*
X172000Y130000D02*
D03*
X190000D02*
D03*
X76500Y162500D02*
D03*
X58500D02*
D03*
X76500Y142500D02*
D03*
X58500D02*
D03*
X258500Y245000D02*
D03*
X276500D02*
D03*
X219000Y237500D02*
D03*
X201000D02*
D03*
D13*
X402000Y296500D02*
D03*
Y276500D02*
D03*
X212500Y65000D02*
D03*
Y85000D02*
D03*
X60000Y117500D02*
D03*
Y97500D02*
D03*
X237500Y65000D02*
D03*
Y85000D02*
D03*
X262500Y65000D02*
D03*
Y85000D02*
D03*
X287500Y65000D02*
D03*
Y85000D02*
D03*
X185000Y85500D02*
D03*
Y65500D02*
D03*
D14*
X394500Y139500D02*
D03*
X375500D02*
D03*
Y165500D02*
D03*
X394500D02*
D03*
D15*
X385000Y139500D02*
D03*
Y165500D02*
D03*
D16*
X441500Y144000D02*
D03*
Y152000D02*
D03*
Y160000D02*
D03*
Y168000D02*
D03*
Y176000D02*
D03*
D17*
X442500Y204500D02*
D03*
X497500D02*
D03*
Y115500D02*
D03*
X442500D02*
D03*
D18*
X387500Y241500D02*
D03*
Y223500D02*
D03*
X182500Y252000D02*
D03*
Y234000D02*
D03*
Y217000D02*
D03*
Y199000D02*
D03*
X213500Y160000D02*
D03*
Y142000D02*
D03*
D19*
X385000Y110000D02*
D03*
X415000D02*
D03*
X65000Y262500D02*
D03*
X95000D02*
D03*
X132500Y242500D02*
D03*
X162500D02*
D03*
D20*
X148300Y63500D02*
D03*
X166700D02*
D03*
X157500Y86500D02*
D03*
X76700Y224000D02*
D03*
X58300D02*
D03*
X67500Y201000D02*
D03*
X214500Y304000D02*
D03*
X195500D02*
D03*
X205000Y281000D02*
D03*
D21*
X119500Y270950D02*
D03*
Y283650D02*
D03*
Y296350D02*
D03*
Y309050D02*
D03*
X175500D02*
D03*
Y296350D02*
D03*
Y283650D02*
D03*
Y270950D02*
D03*
X98000Y180600D02*
D03*
Y167900D02*
D03*
Y155200D02*
D03*
Y142500D02*
D03*
Y129800D02*
D03*
Y117100D02*
D03*
Y104400D02*
D03*
X152000D02*
D03*
Y117100D02*
D03*
Y129800D02*
D03*
Y142500D02*
D03*
Y155200D02*
D03*
Y167900D02*
D03*
Y180600D02*
D03*
D22*
X95000Y230000D02*
D03*
X115000Y239500D02*
D03*
Y220500D02*
D03*
D23*
X62000Y262500D02*
D03*
X98000D02*
D03*
D24*
X334000Y222150D02*
D03*
Y209450D02*
D03*
Y196750D02*
D03*
Y184050D02*
D03*
Y171350D02*
D03*
Y158650D02*
D03*
Y145950D02*
D03*
Y133250D02*
D03*
Y120550D02*
D03*
Y107850D02*
D03*
X241000D02*
D03*
Y120550D02*
D03*
Y133250D02*
D03*
Y145950D02*
D03*
Y158650D02*
D03*
Y171350D02*
D03*
Y184050D02*
D03*
Y196750D02*
D03*
Y209450D02*
D03*
Y222150D02*
D03*
M02*
