%FSLAX44Y44*%
%MOMM*%
G71*
G01*
G75*
G04 Layer_Color=65535*
G04:AMPARAMS|DCode=10|XSize=1.05mm|YSize=0.65mm|CornerRadius=0.2015mm|HoleSize=0mm|Usage=FLASHONLY|Rotation=180.000|XOffset=0mm|YOffset=0mm|HoleType=Round|Shape=RoundedRectangle|*
%AMROUNDEDRECTD10*
21,1,1.0500,0.2470,0,0,180.0*
21,1,0.6470,0.6500,0,0,180.0*
1,1,0.4030,-0.3235,0.1235*
1,1,0.4030,0.3235,0.1235*
1,1,0.4030,0.3235,-0.1235*
1,1,0.4030,-0.3235,-0.1235*
%
%ADD10ROUNDEDRECTD10*%
G04:AMPARAMS|DCode=11|XSize=1.45mm|YSize=0.95mm|CornerRadius=0.1995mm|HoleSize=0mm|Usage=FLASHONLY|Rotation=90.000|XOffset=0mm|YOffset=0mm|HoleType=Round|Shape=RoundedRectangle|*
%AMROUNDEDRECTD11*
21,1,1.4500,0.5510,0,0,90.0*
21,1,1.0510,0.9500,0,0,90.0*
1,1,0.3990,0.2755,0.5255*
1,1,0.3990,0.2755,-0.5255*
1,1,0.3990,-0.2755,-0.5255*
1,1,0.3990,-0.2755,0.5255*
%
%ADD11ROUNDEDRECTD11*%
G04:AMPARAMS|DCode=12|XSize=1.45mm|YSize=1.15mm|CornerRadius=0.2013mm|HoleSize=0mm|Usage=FLASHONLY|Rotation=270.000|XOffset=0mm|YOffset=0mm|HoleType=Round|Shape=RoundedRectangle|*
%AMROUNDEDRECTD12*
21,1,1.4500,0.7475,0,0,270.0*
21,1,1.0475,1.1500,0,0,270.0*
1,1,0.4025,-0.3738,-0.5238*
1,1,0.4025,-0.3738,0.5238*
1,1,0.4025,0.3738,0.5238*
1,1,0.4025,0.3738,-0.5238*
%
%ADD12ROUNDEDRECTD12*%
G04:AMPARAMS|DCode=13|XSize=1.45mm|YSize=0.95mm|CornerRadius=0.1995mm|HoleSize=0mm|Usage=FLASHONLY|Rotation=0.000|XOffset=0mm|YOffset=0mm|HoleType=Round|Shape=RoundedRectangle|*
%AMROUNDEDRECTD13*
21,1,1.4500,0.5510,0,0,0.0*
21,1,1.0510,0.9500,0,0,0.0*
1,1,0.3990,0.5255,-0.2755*
1,1,0.3990,-0.5255,-0.2755*
1,1,0.3990,-0.5255,0.2755*
1,1,0.3990,0.5255,0.2755*
%
%ADD13ROUNDEDRECTD13*%
G04:AMPARAMS|DCode=14|XSize=1.1mm|YSize=0.7mm|CornerRadius=0.2345mm|HoleSize=0mm|Usage=FLASHONLY|Rotation=270.000|XOffset=0mm|YOffset=0mm|HoleType=Round|Shape=RoundedRectangle|*
%AMROUNDEDRECTD14*
21,1,1.1000,0.2310,0,0,270.0*
21,1,0.6310,0.7000,0,0,270.0*
1,1,0.4690,-0.1155,-0.3155*
1,1,0.4690,-0.1155,0.3155*
1,1,0.4690,0.1155,0.3155*
1,1,0.4690,0.1155,-0.3155*
%
%ADD14ROUNDEDRECTD14*%
G04:AMPARAMS|DCode=15|XSize=1.1mm|YSize=0.6mm|CornerRadius=0.201mm|HoleSize=0mm|Usage=FLASHONLY|Rotation=270.000|XOffset=0mm|YOffset=0mm|HoleType=Round|Shape=RoundedRectangle|*
%AMROUNDEDRECTD15*
21,1,1.1000,0.1980,0,0,270.0*
21,1,0.6980,0.6000,0,0,270.0*
1,1,0.4020,-0.0990,-0.3490*
1,1,0.4020,-0.0990,0.3490*
1,1,0.4020,0.0990,0.3490*
1,1,0.4020,0.0990,-0.3490*
%
%ADD15ROUNDEDRECTD15*%
G04:AMPARAMS|DCode=16|XSize=2.3mm|YSize=0.5mm|CornerRadius=0.2mm|HoleSize=0mm|Usage=FLASHONLY|Rotation=180.000|XOffset=0mm|YOffset=0mm|HoleType=Round|Shape=RoundedRectangle|*
%AMROUNDEDRECTD16*
21,1,2.3000,0.1000,0,0,180.0*
21,1,1.9000,0.5000,0,0,180.0*
1,1,0.4000,-0.9500,0.0500*
1,1,0.4000,0.9500,0.0500*
1,1,0.4000,0.9500,-0.0500*
1,1,0.4000,-0.9500,-0.0500*
%
%ADD16ROUNDEDRECTD16*%
G04:AMPARAMS|DCode=17|XSize=2.5mm|YSize=2mm|CornerRadius=0.2mm|HoleSize=0mm|Usage=FLASHONLY|Rotation=180.000|XOffset=0mm|YOffset=0mm|HoleType=Round|Shape=RoundedRectangle|*
%AMROUNDEDRECTD17*
21,1,2.5000,1.6000,0,0,180.0*
21,1,2.1000,2.0000,0,0,180.0*
1,1,0.4000,-1.0500,0.8000*
1,1,0.4000,1.0500,0.8000*
1,1,0.4000,1.0500,-0.8000*
1,1,0.4000,-1.0500,-0.8000*
%
%ADD17ROUNDEDRECTD17*%
G04:AMPARAMS|DCode=18|XSize=1.45mm|YSize=1.15mm|CornerRadius=0.2013mm|HoleSize=0mm|Usage=FLASHONLY|Rotation=0.000|XOffset=0mm|YOffset=0mm|HoleType=Round|Shape=RoundedRectangle|*
%AMROUNDEDRECTD18*
21,1,1.4500,0.7475,0,0,0.0*
21,1,1.0475,1.1500,0,0,0.0*
1,1,0.4025,0.5238,-0.3738*
1,1,0.4025,-0.5238,-0.3738*
1,1,0.4025,-0.5238,0.3738*
1,1,0.4025,0.5238,0.3738*
%
%ADD18ROUNDEDRECTD18*%
G04:AMPARAMS|DCode=19|XSize=1.75mm|YSize=1.05mm|CornerRadius=0.1995mm|HoleSize=0mm|Usage=FLASHONLY|Rotation=270.000|XOffset=0mm|YOffset=0mm|HoleType=Round|Shape=RoundedRectangle|*
%AMROUNDEDRECTD19*
21,1,1.7500,0.6510,0,0,270.0*
21,1,1.3510,1.0500,0,0,270.0*
1,1,0.3990,-0.3255,-0.6755*
1,1,0.3990,-0.3255,0.6755*
1,1,0.3990,0.3255,0.6755*
1,1,0.3990,0.3255,-0.6755*
%
%ADD19ROUNDEDRECTD19*%
G04:AMPARAMS|DCode=20|XSize=1.05mm|YSize=0.65mm|CornerRadius=0.2015mm|HoleSize=0mm|Usage=FLASHONLY|Rotation=90.000|XOffset=0mm|YOffset=0mm|HoleType=Round|Shape=RoundedRectangle|*
%AMROUNDEDRECTD20*
21,1,1.0500,0.2470,0,0,90.0*
21,1,0.6470,0.6500,0,0,90.0*
1,1,0.4030,0.1235,0.3235*
1,1,0.4030,0.1235,-0.3235*
1,1,0.4030,-0.1235,-0.3235*
1,1,0.4030,-0.1235,0.3235*
%
%ADD20ROUNDEDRECTD20*%
%ADD21O,1.5500X0.6000*%
G04:AMPARAMS|DCode=22|XSize=1.25mm|YSize=0.6mm|CornerRadius=0.201mm|HoleSize=0mm|Usage=FLASHONLY|Rotation=180.000|XOffset=0mm|YOffset=0mm|HoleType=Round|Shape=RoundedRectangle|*
%AMROUNDEDRECTD22*
21,1,1.2500,0.1980,0,0,180.0*
21,1,0.8480,0.6000,0,0,180.0*
1,1,0.4020,-0.4240,0.0990*
1,1,0.4020,0.4240,0.0990*
1,1,0.4020,0.4240,-0.0990*
1,1,0.4020,-0.4240,-0.0990*
%
%ADD22ROUNDEDRECTD22*%
G04:AMPARAMS|DCode=23|XSize=1mm|YSize=0.75mm|CornerRadius=0.1988mm|HoleSize=0mm|Usage=FLASHONLY|Rotation=180.000|XOffset=0mm|YOffset=0mm|HoleType=Round|Shape=RoundedRectangle|*
%AMROUNDEDRECTD23*
21,1,1.0000,0.3525,0,0,180.0*
21,1,0.6025,0.7500,0,0,180.0*
1,1,0.3975,-0.3013,0.1762*
1,1,0.3975,0.3013,0.1762*
1,1,0.3975,0.3013,-0.1762*
1,1,0.3975,-0.3013,-0.1762*
%
%ADD23ROUNDEDRECTD23*%
%ADD24O,2.0000X0.6000*%
%ADD25C,0.5000*%
%ADD26C,0.2500*%
%ADD27C,0.4000*%
%ADD28C,0.3000*%
%ADD29C,2.8000*%
%ADD30C,0.5000*%
%ADD31C,1.8500*%
G04:AMPARAMS|DCode=32|XSize=1.85mm|YSize=1.85mm|CornerRadius=0.2035mm|HoleSize=0mm|Usage=FLASHONLY|Rotation=0.000|XOffset=0mm|YOffset=0mm|HoleType=Round|Shape=RoundedRectangle|*
%AMROUNDEDRECTD32*
21,1,1.8500,1.4430,0,0,0.0*
21,1,1.4430,1.8500,0,0,0.0*
1,1,0.4070,0.7215,-0.7215*
1,1,0.4070,-0.7215,-0.7215*
1,1,0.4070,-0.7215,0.7215*
1,1,0.4070,0.7215,0.7215*
%
%ADD32ROUNDEDRECTD32*%
%ADD33C,2.6500*%
%ADD34C,1.3000*%
%ADD35R,1.3000X1.3000*%
%ADD36C,1.0000*%
%ADD37C,0.1500*%
%ADD38C,0.2000*%
%ADD39C,0.1000*%
G36*
X402148Y172648D02*
X402624Y171500D01*
X402148Y170352D01*
X401000Y169876D01*
X399852Y170352D01*
X399376Y171500D01*
X399852Y172648D01*
X401000Y173124D01*
X402148Y172648D01*
D02*
G37*
D37*
X471500Y280500D02*
X496000D01*
X471500Y312500D02*
X486500D01*
X451000Y246500D02*
X455000D01*
X451000Y260500D02*
X455000D01*
X426500Y280500D02*
X451000D01*
X426500Y312500D02*
X441500D01*
X395000Y284500D02*
Y288500D01*
X409000Y284500D02*
Y288500D01*
X493000Y92000D02*
X497000D01*
X493000Y78000D02*
X497000D01*
X493000Y72000D02*
X497000D01*
X493000Y58000D02*
X497000D01*
X493000Y52000D02*
X497000D01*
X493000Y38000D02*
X497000D01*
X493000Y32000D02*
X497000D01*
X493000Y18000D02*
X497000D01*
X426000Y121500D02*
Y182500D01*
X514500Y121500D02*
Y198500D01*
X460500D02*
X479500D01*
X460500Y121500D02*
X479500D01*
X393500Y101500D02*
X406500D01*
X393500Y118500D02*
X406500D01*
X173500Y67500D02*
Y82500D01*
X141500Y58000D02*
Y82500D01*
X108000Y48000D02*
X112000D01*
X108000Y62000D02*
X112000D01*
X80500Y73000D02*
X84500D01*
X80500Y87000D02*
X84500D01*
X126500Y316000D02*
X168500D01*
X126500Y264000D02*
X183500D01*
X90000Y187000D02*
X145500D01*
X104500Y98000D02*
X145500D01*
X120500Y92000D02*
X124500D01*
X120500Y78000D02*
X124500D01*
X103000Y192000D02*
X107000D01*
X103000Y206000D02*
X107000D01*
X97500Y246000D02*
X112500D01*
X97500Y214000D02*
X121500D01*
X180500Y187000D02*
X184500D01*
X180500Y173000D02*
X184500D01*
X180500Y112000D02*
X184500D01*
X180500Y98000D02*
X184500D01*
X219500Y73000D02*
Y77000D01*
X205500Y73000D02*
Y77000D01*
X53000Y105500D02*
Y109500D01*
X67000Y105500D02*
Y109500D01*
X65500Y175500D02*
X69500D01*
X65500Y189500D02*
X69500D01*
X51500Y205000D02*
Y220000D01*
X83500Y205000D02*
Y229500D01*
X73500Y254000D02*
X86500D01*
X73500Y271000D02*
X86500D01*
X70000Y271496D02*
X103500D01*
X70000Y253504D02*
X103500D01*
X138000Y206000D02*
X142000D01*
X138000Y192000D02*
X142000D01*
X141000Y234000D02*
X154000D01*
X141000Y251000D02*
X154000D01*
X221000Y285000D02*
Y309500D01*
X189000Y285000D02*
Y300000D01*
X208000Y250500D02*
X212000D01*
X208000Y264500D02*
X212000D01*
X249500Y100000D02*
X325500D01*
X231000Y230000D02*
X325500D01*
X244500Y73000D02*
Y77000D01*
X230500Y73000D02*
Y77000D01*
X269500Y73000D02*
Y77000D01*
X255500Y73000D02*
Y77000D01*
X294500Y73000D02*
Y77000D01*
X280500Y73000D02*
Y77000D01*
X447500Y49000D02*
X462500D01*
X438000Y81000D02*
X462500D01*
X447500Y9000D02*
X462500D01*
X438000Y41000D02*
X462500D01*
X447500Y101000D02*
X462500D01*
X447500Y69000D02*
X472000D01*
X447500Y61000D02*
X462500D01*
X447500Y29000D02*
X472000D01*
X373000Y87000D02*
X377000D01*
X373000Y73000D02*
X377000D01*
X408000Y72000D02*
X412000D01*
X408000Y58000D02*
X412000D01*
X408000Y52000D02*
X412000D01*
X408000Y38000D02*
X412000D01*
X408000Y32000D02*
X412000D01*
X408000Y18000D02*
X412000D01*
X150500Y227000D02*
X154500D01*
X150500Y213000D02*
X154500D01*
X178000Y73500D02*
Y77500D01*
X192000Y73500D02*
Y77500D01*
D38*
X370500Y156750D02*
X399500D01*
Y148250D02*
Y156750D01*
X370500Y148250D02*
X399500D01*
X370500D02*
Y156750D01*
D39*
X487500Y299499D02*
Y295500D01*
X489499D01*
X490166Y296166D01*
Y298832D01*
X489499Y299499D01*
X487500D01*
X491499Y295500D02*
X492832D01*
X492165D01*
Y299499D01*
X491499Y298832D01*
X494831Y295500D02*
X496164D01*
X495497D01*
Y299499D01*
X494831Y298832D01*
X445604Y264035D02*
Y268033D01*
X447603D01*
X448270Y267367D01*
Y266034D01*
X447603Y265367D01*
X445604D01*
X446937D02*
X448270Y264035D01*
X452268D02*
X449603D01*
X452268Y266700D01*
Y267367D01*
X451602Y268033D01*
X450269D01*
X449603Y267367D01*
X453601Y264701D02*
X454268Y264035D01*
X455601D01*
X456267Y264701D01*
Y267367D01*
X455601Y268033D01*
X454268D01*
X453601Y267367D01*
Y266700D01*
X454268Y266034D01*
X456267D01*
X286395Y81919D02*
X285728Y81252D01*
Y79919D01*
X286395Y79253D01*
X289061D01*
X289727Y79919D01*
Y81252D01*
X289061Y81919D01*
X289727Y83252D02*
Y84585D01*
Y83918D01*
X285728D01*
X286395Y83252D01*
X289727Y86584D02*
Y87917D01*
Y87250D01*
X285728D01*
X286395Y86584D01*
X440000Y298999D02*
Y295000D01*
X441999D01*
X442666Y295666D01*
Y298332D01*
X441999Y298999D01*
X440000D01*
X443999Y295000D02*
X445332D01*
X444665D01*
Y298999D01*
X443999Y298332D01*
X447331D02*
X447997Y298999D01*
X449330D01*
X449997Y298332D01*
Y295666D01*
X449330Y295000D01*
X447997D01*
X447331Y295666D01*
Y298332D01*
X396500Y284500D02*
Y288499D01*
X398499D01*
X399166Y287832D01*
Y286499D01*
X398499Y285833D01*
X396500D01*
X397833D02*
X399166Y284500D01*
X403164D02*
X400499D01*
X403164Y287166D01*
Y287832D01*
X402498Y288499D01*
X401165D01*
X400499Y287832D01*
X404497D02*
X405164Y288499D01*
X406497D01*
X407163Y287832D01*
Y287166D01*
X406497Y286499D01*
X407163Y285833D01*
Y285166D01*
X406497Y284500D01*
X405164D01*
X404497Y285166D01*
Y285833D01*
X405164Y286499D01*
X404497Y287166D01*
Y287832D01*
X405164Y286499D02*
X406497D01*
X179776Y73390D02*
Y77389D01*
X181775D01*
X182442Y76722D01*
Y75389D01*
X181775Y74723D01*
X179776D01*
X181109D02*
X182442Y73390D01*
X186441D02*
X183775D01*
X186441Y76056D01*
Y76722D01*
X185774Y77389D01*
X184441D01*
X183775Y76722D01*
X187773D02*
X188440Y77389D01*
X189773D01*
X190439Y76722D01*
Y76056D01*
X189773Y75389D01*
X189106D01*
X189773D01*
X190439Y74723D01*
Y74056D01*
X189773Y73390D01*
X188440D01*
X187773Y74056D01*
X147268Y217946D02*
Y221945D01*
X149267D01*
X149934Y221278D01*
Y219945D01*
X149267Y219279D01*
X147268D01*
X148601D02*
X149934Y217946D01*
X153933D02*
X151267D01*
X153933Y220612D01*
Y221278D01*
X153266Y221945D01*
X151933D01*
X151267Y221278D01*
X157931Y217946D02*
X155265D01*
X157931Y220612D01*
Y221278D01*
X157265Y221945D01*
X155932D01*
X155265Y221278D01*
X211184Y152242D02*
X210517Y152909D01*
X209184D01*
X208518Y152242D01*
Y149577D01*
X209184Y148910D01*
X210517D01*
X211184Y149577D01*
X212517Y148910D02*
X213850D01*
X213183D01*
Y152909D01*
X212517Y152242D01*
X215849D02*
X216515Y152909D01*
X217848D01*
X218515Y152242D01*
Y149577D01*
X217848Y148910D01*
X216515D01*
X215849Y149577D01*
Y152242D01*
X181712Y209326D02*
X181045Y209993D01*
X179712D01*
X179046Y209326D01*
Y206660D01*
X179712Y205994D01*
X181045D01*
X181712Y206660D01*
X183045D02*
X183711Y205994D01*
X185044D01*
X185711Y206660D01*
Y209326D01*
X185044Y209993D01*
X183711D01*
X183045Y209326D01*
Y208660D01*
X183711Y207993D01*
X185711D01*
X227500Y235000D02*
X228833D01*
X228166D01*
Y238999D01*
X227500Y238332D01*
X230832D02*
X231499Y238999D01*
X232832D01*
X233498Y238332D01*
Y235667D01*
X232832Y235000D01*
X231499D01*
X230832Y235667D01*
Y238332D01*
X234831D02*
X235497Y238999D01*
X236830D01*
X237497Y238332D01*
Y235667D01*
X236830Y235000D01*
X235497D01*
X234831Y235667D01*
Y238332D01*
X238830Y235000D02*
Y237666D01*
X240829D01*
X241495Y236999D01*
Y235000D01*
X245494Y238999D02*
X242828D01*
Y236999D01*
X244161D01*
X242828D01*
Y235000D01*
X230166Y245832D02*
X229499Y246499D01*
X228166D01*
X227500Y245832D01*
Y243166D01*
X228166Y242500D01*
X229499D01*
X230166Y243166D01*
X231499Y242500D02*
X232832D01*
X232165D01*
Y246499D01*
X231499Y245832D01*
X190000Y215500D02*
X191333D01*
X190666D01*
Y219499D01*
X190000Y218832D01*
X193332D02*
X193999Y219499D01*
X195332D01*
X195998Y218832D01*
Y216166D01*
X195332Y215500D01*
X193999D01*
X193332Y216166D01*
Y218832D01*
X197331D02*
X197997Y219499D01*
X199330D01*
X199997Y218832D01*
Y216166D01*
X199330Y215500D01*
X197997D01*
X197331Y216166D01*
Y218832D01*
X201330Y215500D02*
Y218166D01*
X203329D01*
X203995Y217499D01*
Y215500D01*
X207994Y219499D02*
X205328D01*
Y217499D01*
X206661D01*
X205328D01*
Y215500D01*
X192971Y225832D02*
X192305Y226499D01*
X190972D01*
X190306Y225832D01*
Y223167D01*
X190972Y222500D01*
X192305D01*
X192971Y223167D01*
X196970Y222500D02*
X194304D01*
X196970Y225166D01*
Y225832D01*
X196304Y226499D01*
X194971D01*
X194304Y225832D01*
X402500Y235000D02*
X403833D01*
X403166D01*
Y238999D01*
X402500Y238332D01*
X405832Y237666D02*
Y235667D01*
X406499Y235000D01*
X408498D01*
Y237666D01*
X412497Y238999D02*
X409831D01*
Y236999D01*
X411164D01*
X409831D01*
Y235000D01*
X405166Y245832D02*
X404499Y246499D01*
X403166D01*
X402500Y245832D01*
Y243166D01*
X403166Y242500D01*
X404499D01*
X405166Y243166D01*
X406499Y245832D02*
X407165Y246499D01*
X408498D01*
X409165Y245832D01*
Y245166D01*
X408498Y244499D01*
X407832D01*
X408498D01*
X409165Y243833D01*
Y243166D01*
X408498Y242500D01*
X407165D01*
X406499Y243166D01*
X201000Y157500D02*
X202333D01*
X201666D01*
Y161499D01*
X201000Y160832D01*
X204332D02*
X204999Y161499D01*
X206332D01*
X206998Y160832D01*
Y158167D01*
X206332Y157500D01*
X204999D01*
X204332Y158167D01*
Y160832D01*
X208331Y160166D02*
Y158167D01*
X208997Y157500D01*
X210997D01*
Y160166D01*
X214995Y161499D02*
X212330D01*
Y159499D01*
X213662D01*
X212330D01*
Y157500D01*
X203666Y168332D02*
X202999Y168999D01*
X201666D01*
X201000Y168332D01*
Y165666D01*
X201666Y165000D01*
X202999D01*
X203666Y165666D01*
X206998Y165000D02*
Y168999D01*
X204999Y166999D01*
X207665D01*
X200848Y127158D02*
X202181D01*
X201515D01*
Y131157D01*
X200848Y130491D01*
X204180D02*
X204847Y131157D01*
X206180D01*
X206846Y130491D01*
Y127825D01*
X206180Y127158D01*
X204847D01*
X204180Y127825D01*
Y130491D01*
X208179Y129824D02*
Y127825D01*
X208846Y127158D01*
X210845D01*
Y129824D01*
X214844Y131157D02*
X212178D01*
Y129158D01*
X213511D01*
X212178D01*
Y127158D01*
X204662Y137491D02*
X203996Y138157D01*
X202663D01*
X201997Y137491D01*
Y134825D01*
X202663Y134158D01*
X203996D01*
X204662Y134825D01*
X208661Y138157D02*
X205995D01*
Y136158D01*
X207328Y136824D01*
X207995D01*
X208661Y136158D01*
Y134825D01*
X207995Y134158D01*
X206662D01*
X205995Y134825D01*
X25000Y157500D02*
X26333D01*
X25666D01*
Y161499D01*
X25000Y160832D01*
X28332Y157500D02*
Y160166D01*
X30332D01*
X30998Y159499D01*
Y157500D01*
X34997Y161499D02*
X32331D01*
Y159499D01*
X33664D01*
X32331D01*
Y157500D01*
X32666Y168332D02*
X31999Y168999D01*
X30666D01*
X30000Y168332D01*
Y165666D01*
X30666Y165000D01*
X31999D01*
X32666Y165666D01*
X36665Y168999D02*
X35332Y168332D01*
X33999Y166999D01*
Y165666D01*
X34665Y165000D01*
X35998D01*
X36665Y165666D01*
Y166333D01*
X35998Y166999D01*
X33999D01*
X75000Y30000D02*
X76333D01*
X75666D01*
Y33999D01*
X75000Y33332D01*
X78332Y30000D02*
Y32666D01*
X80332D01*
X80998Y31999D01*
Y30000D01*
X84997Y33999D02*
X82331D01*
Y31999D01*
X83664D01*
X82331D01*
Y30000D01*
X77666Y40832D02*
X76999Y41499D01*
X75666D01*
X75000Y40832D01*
Y38166D01*
X75666Y37500D01*
X76999D01*
X77666Y38166D01*
X78999Y41499D02*
X81664D01*
Y40832D01*
X78999Y38166D01*
Y37500D01*
X267500Y257500D02*
X268833D01*
X268166D01*
Y261499D01*
X267500Y260832D01*
X270832D02*
X271499Y261499D01*
X272832D01*
X273498Y260832D01*
Y258167D01*
X272832Y257500D01*
X271499D01*
X270832Y258167D01*
Y260832D01*
X274831D02*
X275497Y261499D01*
X276830D01*
X277497Y260832D01*
Y258167D01*
X276830Y257500D01*
X275497D01*
X274831Y258167D01*
Y260832D01*
X278830Y257500D02*
Y260166D01*
X280829D01*
X281495Y259499D01*
Y257500D01*
X285494Y261499D02*
X282828D01*
Y259499D01*
X284161D01*
X282828D01*
Y257500D01*
X257523Y260655D02*
X256857Y261322D01*
X255524D01*
X254858Y260655D01*
Y257989D01*
X255524Y257323D01*
X256857D01*
X257523Y257989D01*
X258856Y260655D02*
X259523Y261322D01*
X260856D01*
X261522Y260655D01*
Y259989D01*
X260856Y259322D01*
X261522Y258656D01*
Y257989D01*
X260856Y257323D01*
X259523D01*
X258856Y257989D01*
Y258656D01*
X259523Y259322D01*
X258856Y259989D01*
Y260655D01*
X259523Y259322D02*
X260856D01*
X57500Y127500D02*
X58833D01*
X58166D01*
Y131499D01*
X57500Y130832D01*
X60832D02*
X61499Y131499D01*
X62832D01*
X63498Y130832D01*
Y128166D01*
X62832Y127500D01*
X61499D01*
X60832Y128166D01*
Y130832D01*
X64831Y130166D02*
Y128166D01*
X65497Y127500D01*
X67497D01*
Y130166D01*
X71495Y131499D02*
X68830D01*
Y129499D01*
X70163D01*
X68830D01*
Y127500D01*
X45166Y130832D02*
X44499Y131499D01*
X43166D01*
X42500Y130832D01*
Y128166D01*
X43166Y127500D01*
X44499D01*
X45166Y128166D01*
X46499Y127500D02*
X47832D01*
X47165D01*
Y131499D01*
X46499Y130832D01*
X52497Y127500D02*
X49831D01*
X52497Y130166D01*
Y130832D01*
X51830Y131499D01*
X50497D01*
X49831Y130832D01*
X27500Y208999D02*
Y205000D01*
X29499D01*
X30166Y205667D01*
Y206333D01*
X29499Y206999D01*
X27500D01*
X29499D01*
X30166Y207666D01*
Y208332D01*
X29499Y208999D01*
X27500D01*
X31499Y205000D02*
Y207666D01*
X32832Y208999D01*
X34165Y207666D01*
Y205000D01*
Y206999D01*
X31499D01*
X35497Y208999D02*
Y206333D01*
X36830Y205000D01*
X38163Y206333D01*
Y208999D01*
X39496Y205667D02*
X40163Y205000D01*
X41495D01*
X42162Y205667D01*
Y208332D01*
X41495Y208999D01*
X40163D01*
X39496Y208332D01*
Y207666D01*
X40163Y206999D01*
X42162D01*
X43495Y205667D02*
X44161Y205000D01*
X45494D01*
X46161Y205667D01*
Y208332D01*
X45494Y208999D01*
X44161D01*
X43495Y208332D01*
Y207666D01*
X44161Y206999D01*
X46161D01*
X37500Y216499D02*
Y212500D01*
X39499D01*
X40166Y213167D01*
Y215832D01*
X39499Y216499D01*
X37500D01*
X41499Y212500D02*
X42832D01*
X42165D01*
Y216499D01*
X41499Y215832D01*
X235000Y306499D02*
Y302500D01*
X236999D01*
X237666Y303166D01*
Y303833D01*
X236999Y304499D01*
X235000D01*
X236999D01*
X237666Y305166D01*
Y305832D01*
X236999Y306499D01*
X235000D01*
X238999D02*
X241665D01*
Y305832D01*
X238999Y303166D01*
Y302500D01*
X241665D01*
X242997Y306499D02*
X245663Y302500D01*
Y306499D02*
X242997Y302500D01*
X246996Y305832D02*
X247663Y306499D01*
X248995D01*
X249662Y305832D01*
Y305166D01*
X248995Y304499D01*
X249662Y303833D01*
Y303166D01*
X248995Y302500D01*
X247663D01*
X246996Y303166D01*
Y303833D01*
X247663Y304499D01*
X246996Y305166D01*
Y305832D01*
X247663Y304499D02*
X248995D01*
X252994Y302500D02*
Y306499D01*
X250995Y304499D01*
X253661D01*
X257659Y305832D02*
X256993Y306499D01*
X255660D01*
X254993Y305832D01*
Y303166D01*
X255660Y302500D01*
X256993D01*
X257659Y303166D01*
X261658Y306499D02*
X258992D01*
Y304499D01*
X260325Y305166D01*
X260991D01*
X261658Y304499D01*
Y303166D01*
X260991Y302500D01*
X259659D01*
X258992Y303166D01*
X262991Y306499D02*
Y303833D01*
X264324Y302500D01*
X265657Y303833D01*
Y306499D01*
X269655D02*
X268323Y305832D01*
X266990Y304499D01*
Y303166D01*
X267656Y302500D01*
X268989D01*
X269655Y303166D01*
Y303833D01*
X268989Y304499D01*
X266990D01*
X270988Y306499D02*
Y302500D01*
X273654D01*
X274987Y306499D02*
X277653D01*
X276320D01*
Y302500D01*
X278986D02*
X280319D01*
X279652D01*
Y306499D01*
X278986Y305832D01*
X284984D02*
X284317Y306499D01*
X282984D01*
X282318Y305832D01*
Y303166D01*
X282984Y302500D01*
X284317D01*
X284984Y303166D01*
Y304499D01*
X283651D01*
X235000Y313999D02*
Y310000D01*
X236999D01*
X237666Y310667D01*
Y313332D01*
X236999Y313999D01*
X235000D01*
X241665Y310000D02*
X238999D01*
X241665Y312666D01*
Y313332D01*
X240998Y313999D01*
X239665D01*
X238999Y313332D01*
X165000Y88999D02*
Y85000D01*
X166999D01*
X167666Y85667D01*
Y86333D01*
X166999Y86999D01*
X165000D01*
X166999D01*
X167666Y87666D01*
Y88332D01*
X166999Y88999D01*
X165000D01*
X168999Y85000D02*
Y87666D01*
X170332Y88999D01*
X171665Y87666D01*
Y85000D01*
Y86999D01*
X168999D01*
X172997Y88999D02*
Y86333D01*
X174330Y85000D01*
X175663Y86333D01*
Y88999D01*
X176996Y85667D02*
X177663Y85000D01*
X178995D01*
X179662Y85667D01*
Y88332D01*
X178995Y88999D01*
X177663D01*
X176996Y88332D01*
Y87666D01*
X177663Y86999D01*
X179662D01*
X180995Y85667D02*
X181661Y85000D01*
X182994D01*
X183661Y85667D01*
Y88332D01*
X182994Y88999D01*
X181661D01*
X180995Y88332D01*
Y87666D01*
X181661Y86999D01*
X183661D01*
X143500Y88999D02*
Y85000D01*
X145499D01*
X146166Y85667D01*
Y88332D01*
X145499Y88999D01*
X143500D01*
X147499Y88332D02*
X148165Y88999D01*
X149498D01*
X150164Y88332D01*
Y87666D01*
X149498Y86999D01*
X148832D01*
X149498D01*
X150164Y86333D01*
Y85667D01*
X149498Y85000D01*
X148165D01*
X147499Y85667D01*
X50000Y281499D02*
Y277500D01*
X51999D01*
X52666Y278166D01*
Y278833D01*
X51999Y279499D01*
X50000D01*
X51999D01*
X52666Y280166D01*
Y280832D01*
X51999Y281499D01*
X50000D01*
X53999Y277500D02*
Y280166D01*
X55332Y281499D01*
X56665Y280166D01*
Y277500D01*
Y279499D01*
X53999D01*
X57997Y281499D02*
X60663D01*
X59330D01*
Y277500D01*
X63995D02*
Y281499D01*
X61996Y279499D01*
X64662D01*
X68661Y281499D02*
X67328Y280832D01*
X65995Y279499D01*
Y278166D01*
X66661Y277500D01*
X67994D01*
X68661Y278166D01*
Y278833D01*
X67994Y279499D01*
X65995D01*
X69994Y281499D02*
Y277500D01*
X71326Y278833D01*
X72659Y277500D01*
Y281499D01*
X50000Y288999D02*
Y285000D01*
X51999D01*
X52666Y285667D01*
Y288332D01*
X51999Y288999D01*
X50000D01*
X55998Y285000D02*
Y288999D01*
X53999Y286999D01*
X56665D01*
X467000Y154999D02*
Y151666D01*
X467667Y151000D01*
X468999D01*
X469666Y151666D01*
Y154999D01*
X473665Y154332D02*
X472998Y154999D01*
X471665D01*
X470999Y154332D01*
Y153666D01*
X471665Y152999D01*
X472998D01*
X473665Y152333D01*
Y151666D01*
X472998Y151000D01*
X471665D01*
X470999Y151666D01*
X474997Y154999D02*
Y151000D01*
X476997D01*
X477663Y151666D01*
Y152333D01*
X476997Y152999D01*
X474997D01*
X476997D01*
X477663Y153666D01*
Y154332D01*
X476997Y154999D01*
X474997D01*
X482995Y151000D02*
Y154999D01*
X484328Y153666D01*
X485661Y154999D01*
Y151000D01*
X486993Y154999D02*
X488326D01*
X487660D01*
Y151000D01*
X486993D01*
X488326D01*
X490326D02*
Y154999D01*
X492991Y151000D01*
Y154999D01*
X494324D02*
X495657D01*
X494991D01*
Y151000D01*
X494324D01*
X495657D01*
X474166Y164499D02*
X472833D01*
X473499D01*
Y161166D01*
X472833Y160500D01*
X472166D01*
X471500Y161166D01*
X478164Y160500D02*
X475499D01*
X478164Y163166D01*
Y163832D01*
X477498Y164499D01*
X476165D01*
X475499Y163832D01*
X10166Y23332D02*
X9499Y23999D01*
X8166D01*
X7500Y23332D01*
Y20666D01*
X8166Y20000D01*
X9499D01*
X10166Y20666D01*
X13498Y23999D02*
X12165D01*
X11499Y23332D01*
Y20666D01*
X12165Y20000D01*
X13498D01*
X14165Y20666D01*
Y23332D01*
X13498Y23999D01*
X15497Y20000D02*
Y23999D01*
X18163Y20000D01*
Y23999D01*
X19496Y20000D02*
Y23999D01*
X22162Y20000D01*
Y23999D01*
X30159Y23332D02*
X29493Y23999D01*
X28160D01*
X27494Y23332D01*
Y20666D01*
X28160Y20000D01*
X29493D01*
X30159Y20666D01*
X31492Y23999D02*
Y20666D01*
X32159Y20000D01*
X33491D01*
X34158Y20666D01*
Y23999D01*
X38157Y23332D02*
X37490Y23999D01*
X36157D01*
X35491Y23332D01*
Y22666D01*
X36157Y21999D01*
X37490D01*
X38157Y21333D01*
Y20666D01*
X37490Y20000D01*
X36157D01*
X35491Y20666D01*
X39490Y23999D02*
X42155D01*
X40822D01*
Y20000D01*
X45488Y23999D02*
X44155D01*
X43488Y23332D01*
Y20666D01*
X44155Y20000D01*
X45488D01*
X46154Y20666D01*
Y23332D01*
X45488Y23999D01*
X47487Y20000D02*
Y23999D01*
X48820Y22666D01*
X50153Y23999D01*
Y20000D01*
X57484D02*
Y23999D01*
X55484Y21999D01*
X58150D01*
X59483Y20000D02*
Y23999D01*
X61482D01*
X62149Y23332D01*
Y21999D01*
X61482Y21333D01*
X59483D01*
X10166Y33999D02*
X8833D01*
X9499D01*
Y30666D01*
X8833Y30000D01*
X8166D01*
X7500Y30666D01*
X13498Y30000D02*
Y33999D01*
X11499Y31999D01*
X14165D01*
X104076Y231639D02*
Y227641D01*
X106075D01*
X106742Y228307D01*
Y228974D01*
X106075Y229640D01*
X104076D01*
X106075D01*
X106742Y230307D01*
Y230973D01*
X106075Y231639D01*
X104076D01*
X110740Y230973D02*
X110074Y231639D01*
X108741D01*
X108075Y230973D01*
Y230307D01*
X108741Y229640D01*
X110074D01*
X110740Y228974D01*
Y228307D01*
X110074Y227641D01*
X108741D01*
X108075Y228307D01*
X112073Y231639D02*
Y227641D01*
Y229640D01*
X114739D01*
Y231639D01*
Y227641D01*
X118738D02*
X116072D01*
X118738Y230307D01*
Y230973D01*
X118071Y231639D01*
X116738D01*
X116072Y230973D01*
X120071D02*
X120737Y231639D01*
X122070D01*
X122736Y230973D01*
Y228307D01*
X122070Y227641D01*
X120737D01*
X120071Y228307D01*
Y230973D01*
X126735Y227641D02*
X124069D01*
X126735Y230307D01*
Y230973D01*
X126069Y231639D01*
X124736D01*
X124069Y230973D01*
X97666Y238167D02*
Y240832D01*
X96999Y241499D01*
X95666D01*
X95000Y240832D01*
Y238167D01*
X95666Y237500D01*
X96999D01*
X96333Y238833D02*
X97666Y237500D01*
X96999D02*
X97666Y238167D01*
X98999Y237500D02*
X100332D01*
X99665D01*
Y241499D01*
X98999Y240832D01*
X86988Y213034D02*
X88321D01*
X87654D01*
Y217033D01*
X86988Y216367D01*
X90320D02*
X90987Y217033D01*
X92320D01*
X92986Y216367D01*
Y213701D01*
X92320Y213034D01*
X90987D01*
X90320Y213701D01*
Y216367D01*
X94319Y213034D02*
Y217033D01*
Y214367D02*
X96318Y215700D01*
X94319Y214367D02*
X96318Y213034D01*
X87500Y219000D02*
Y222999D01*
X89499D01*
X90166Y222332D01*
Y220999D01*
X89499Y220333D01*
X87500D01*
X88833D02*
X90166Y219000D01*
X91499D02*
X92832D01*
X92165D01*
Y222999D01*
X91499Y222332D01*
X77500Y280832D02*
X78166Y281499D01*
X79499D01*
X80166Y280832D01*
Y278166D01*
X79499Y277500D01*
X78166D01*
X77500Y278166D01*
Y280832D01*
X81499Y277500D02*
Y281499D01*
X83498D01*
X84164Y280832D01*
Y279499D01*
X83498Y278833D01*
X81499D01*
X82832D02*
X84164Y277500D01*
X77500Y285000D02*
Y288999D01*
X79499D01*
X80166Y288332D01*
Y286999D01*
X79499Y286333D01*
X77500D01*
X78833D02*
X80166Y285000D01*
X84164D02*
X81499D01*
X84164Y287666D01*
Y288332D01*
X83498Y288999D01*
X82165D01*
X81499Y288332D01*
X227500Y252500D02*
X228833D01*
X228166D01*
Y256499D01*
X227500Y255832D01*
X230832D02*
X231499Y256499D01*
X232832D01*
X233498Y255832D01*
Y253166D01*
X232832Y252500D01*
X231499D01*
X230832Y253166D01*
Y255832D01*
X234831Y252500D02*
Y256499D01*
Y253833D02*
X236830Y255166D01*
X234831Y253833D02*
X236830Y252500D01*
X227500Y260000D02*
Y263999D01*
X229499D01*
X230166Y263332D01*
Y261999D01*
X229499Y261333D01*
X227500D01*
X228833D02*
X230166Y260000D01*
X231499Y263332D02*
X232165Y263999D01*
X233498D01*
X234165Y263332D01*
Y262666D01*
X233498Y261999D01*
X232832D01*
X233498D01*
X234165Y261333D01*
Y260667D01*
X233498Y260000D01*
X232165D01*
X231499Y260667D01*
X40000Y172500D02*
X41333D01*
X40666D01*
Y176499D01*
X40000Y175832D01*
X43332D02*
X43999Y176499D01*
X45332D01*
X45998Y175832D01*
Y173167D01*
X45332Y172500D01*
X43999D01*
X43332Y173167D01*
Y175832D01*
X47331Y172500D02*
Y176499D01*
Y173833D02*
X49330Y175166D01*
X47331Y173833D02*
X49330Y172500D01*
X42677Y179392D02*
Y183391D01*
X44676D01*
X45343Y182724D01*
Y181392D01*
X44676Y180725D01*
X42677D01*
X44010D02*
X45343Y179392D01*
X48675D02*
Y183391D01*
X46676Y181392D01*
X49342D01*
X202500Y105000D02*
X203833D01*
X203166D01*
Y108999D01*
X202500Y108332D01*
X205832D02*
X206499Y108999D01*
X207832D01*
X208498Y108332D01*
Y105667D01*
X207832Y105000D01*
X206499D01*
X205832Y105667D01*
Y108332D01*
X209831Y105000D02*
Y108999D01*
Y106333D02*
X211830Y107666D01*
X209831Y106333D02*
X211830Y105000D01*
X202500Y112500D02*
Y116499D01*
X204499D01*
X205166Y115832D01*
Y114499D01*
X204499Y113833D01*
X202500D01*
X203833D02*
X205166Y112500D01*
X209165Y116499D02*
X206499D01*
Y114499D01*
X207832Y115166D01*
X208498D01*
X209165Y114499D01*
Y113166D01*
X208498Y112500D01*
X207165D01*
X206499Y113166D01*
X202500Y177500D02*
X203833D01*
X203166D01*
Y181499D01*
X202500Y180832D01*
X205832D02*
X206499Y181499D01*
X207832D01*
X208498Y180832D01*
Y178166D01*
X207832Y177500D01*
X206499D01*
X205832Y178166D01*
Y180832D01*
X209831Y177500D02*
Y181499D01*
Y178833D02*
X211830Y180166D01*
X209831Y178833D02*
X211830Y177500D01*
X202500Y185000D02*
Y188999D01*
X204499D01*
X205166Y188332D01*
Y186999D01*
X204499Y186333D01*
X202500D01*
X203833D02*
X205166Y185000D01*
X209165Y188999D02*
X207832Y188332D01*
X206499Y186999D01*
Y185667D01*
X207165Y185000D01*
X208498D01*
X209165Y185667D01*
Y186333D01*
X208498Y186999D01*
X206499D01*
X145000Y211500D02*
X146333D01*
X145666D01*
Y215499D01*
X145000Y214832D01*
X148332D02*
X148999Y215499D01*
X150332D01*
X150998Y214832D01*
Y212166D01*
X150332Y211500D01*
X148999D01*
X148332Y212166D01*
Y214832D01*
X152331Y211500D02*
Y215499D01*
Y212833D02*
X154330Y214166D01*
X152331Y212833D02*
X154330Y211500D01*
X132500D02*
Y215499D01*
X134499D01*
X135166Y214832D01*
Y213499D01*
X134499Y212833D01*
X132500D01*
X133833D02*
X135166Y211500D01*
X136499Y215499D02*
X139164D01*
Y214832D01*
X136499Y212166D01*
Y211500D01*
X57500Y72500D02*
X58833D01*
X58166D01*
Y76499D01*
X57500Y75832D01*
X60832Y72500D02*
Y76499D01*
Y73833D02*
X62832Y75166D01*
X60832Y73833D02*
X62832Y72500D01*
X57500Y80000D02*
Y83999D01*
X59499D01*
X60166Y83332D01*
Y81999D01*
X59499Y81333D01*
X57500D01*
X58833D02*
X60166Y80000D01*
X61499Y83332D02*
X62165Y83999D01*
X63498D01*
X64165Y83332D01*
Y82666D01*
X63498Y81999D01*
X64165Y81333D01*
Y80667D01*
X63498Y80000D01*
X62165D01*
X61499Y80667D01*
Y81333D01*
X62165Y81999D01*
X61499Y82666D01*
Y83332D01*
X62165Y81999D02*
X63498D01*
X122500Y67500D02*
X123833D01*
X123166D01*
Y71499D01*
X122500Y70832D01*
X125832D02*
X126499Y71499D01*
X127832D01*
X128498Y70832D01*
Y68166D01*
X127832Y67500D01*
X126499D01*
X125832Y68166D01*
Y70832D01*
X129831Y67500D02*
Y71499D01*
Y68833D02*
X131830Y70166D01*
X129831Y68833D02*
X131830Y67500D01*
X110000D02*
Y71499D01*
X111999D01*
X112666Y70832D01*
Y69499D01*
X111999Y68833D01*
X110000D01*
X111333D02*
X112666Y67500D01*
X113999Y68166D02*
X114665Y67500D01*
X115998D01*
X116664Y68166D01*
Y70832D01*
X115998Y71499D01*
X114665D01*
X113999Y70832D01*
Y70166D01*
X114665Y69499D01*
X116664D01*
X100000Y30000D02*
X101333D01*
X100666D01*
Y33999D01*
X100000Y33332D01*
X103332D02*
X103999Y33999D01*
X105332D01*
X105998Y33332D01*
Y30666D01*
X105332Y30000D01*
X103999D01*
X103332Y30666D01*
Y33332D01*
X107331Y30000D02*
Y33999D01*
Y31333D02*
X109330Y32666D01*
X107331Y31333D02*
X109330Y30000D01*
X100000Y37500D02*
Y41499D01*
X101999D01*
X102666Y40832D01*
Y39499D01*
X101999Y38833D01*
X100000D01*
X101333D02*
X102666Y37500D01*
X103999D02*
X105332D01*
X104665D01*
Y41499D01*
X103999Y40832D01*
X107331Y37500D02*
X108664D01*
X107997D01*
Y41499D01*
X107331Y40832D01*
X402666Y92500D02*
X400000D01*
X402666Y95166D01*
Y95832D01*
X401999Y96499D01*
X400666D01*
X400000Y95832D01*
X403999Y92500D02*
Y96499D01*
X405998D01*
X406665Y95832D01*
Y94499D01*
X405998Y93833D01*
X403999D01*
X405332D02*
X406665Y92500D01*
X382500D02*
Y96499D01*
X384499D01*
X385166Y95832D01*
Y94499D01*
X384499Y93833D01*
X382500D01*
X383833D02*
X385166Y92500D01*
X386499D02*
X387832D01*
X387165D01*
Y96499D01*
X386499Y95832D01*
X392497Y92500D02*
X389831D01*
X392497Y95166D01*
Y95832D01*
X391830Y96499D01*
X390497D01*
X389831Y95832D01*
X157500Y228332D02*
X158167Y228999D01*
X159499D01*
X160166Y228332D01*
Y225667D01*
X159499Y225000D01*
X158167D01*
X157500Y225667D01*
Y228332D01*
X161499Y225000D02*
Y228999D01*
X163498D01*
X164165Y228332D01*
Y226999D01*
X163498Y226333D01*
X161499D01*
X162832D02*
X164165Y225000D01*
X140000D02*
Y228999D01*
X141999D01*
X142666Y228332D01*
Y226999D01*
X141999Y226333D01*
X140000D01*
X141333D02*
X142666Y225000D01*
X143999D02*
X145332D01*
X144665D01*
Y228999D01*
X143999Y228332D01*
X147331D02*
X147997Y228999D01*
X149330D01*
X149997Y228332D01*
Y227666D01*
X149330Y226999D01*
X148664D01*
X149330D01*
X149997Y226333D01*
Y225667D01*
X149330Y225000D01*
X147997D01*
X147331Y225667D01*
X302500Y79499D02*
X298501D01*
X300501Y77500D01*
Y80166D01*
X298501Y81499D02*
Y84164D01*
X299168D01*
X301834Y81499D01*
X302500D01*
Y85497D02*
X298501D01*
X301167D02*
X299834Y87497D01*
X301167Y85497D02*
X302500Y87497D01*
Y60000D02*
X298501D01*
Y61999D01*
X299168Y62666D01*
X300501D01*
X301167Y61999D01*
Y60000D01*
Y61333D02*
X302500Y62666D01*
Y63999D02*
Y65332D01*
Y64665D01*
X298501D01*
X299168Y63999D01*
X302500Y69330D02*
X298501D01*
X300501Y67331D01*
Y69997D01*
X277500Y79499D02*
X273501D01*
X275501Y77500D01*
Y80166D01*
X273501Y81499D02*
Y84164D01*
X274168D01*
X276834Y81499D01*
X277500D01*
Y85497D02*
X273501D01*
X276167D02*
X274834Y87497D01*
X276167Y85497D02*
X277500Y87497D01*
Y60000D02*
X273501D01*
Y61999D01*
X274168Y62666D01*
X275501D01*
X276167Y61999D01*
Y60000D01*
Y61333D02*
X277500Y62666D01*
Y63999D02*
Y65332D01*
Y64665D01*
X273501D01*
X274168Y63999D01*
X273501Y69997D02*
Y67331D01*
X275501D01*
X274834Y68664D01*
Y69330D01*
X275501Y69997D01*
X276834D01*
X277500Y69330D01*
Y67997D01*
X276834Y67331D01*
X227500Y79499D02*
X223501D01*
X225501Y77500D01*
Y80166D01*
X223501Y81499D02*
Y84164D01*
X224168D01*
X226834Y81499D01*
X227500D01*
Y85497D02*
X223501D01*
X226167D02*
X224834Y87497D01*
X226167Y85497D02*
X227500Y87497D01*
Y60000D02*
X223501D01*
Y61999D01*
X224168Y62666D01*
X225501D01*
X226167Y61999D01*
Y60000D01*
Y61333D02*
X227500Y62666D01*
Y63999D02*
Y65332D01*
Y64665D01*
X223501D01*
X224168Y63999D01*
X223501Y69997D02*
X224168Y68664D01*
X225501Y67331D01*
X226834D01*
X227500Y67997D01*
Y69330D01*
X226834Y69997D01*
X226167D01*
X225501Y69330D01*
Y67331D01*
X252500Y79499D02*
X248501D01*
X250501Y77500D01*
Y80166D01*
X248501Y81499D02*
Y84164D01*
X249168D01*
X251834Y81499D01*
X252500D01*
Y85497D02*
X248501D01*
X251167D02*
X249834Y87497D01*
X251167Y85497D02*
X252500Y87497D01*
Y60000D02*
X248501D01*
Y61999D01*
X249168Y62666D01*
X250501D01*
X251167Y61999D01*
Y60000D01*
Y61333D02*
X252500Y62666D01*
Y63999D02*
Y65332D01*
Y64665D01*
X248501D01*
X249168Y63999D01*
X248501Y67331D02*
Y69997D01*
X249168D01*
X251834Y67331D01*
X252500D01*
X516999Y80000D02*
Y83999D01*
X515000Y81999D01*
X517666D01*
X518999Y83999D02*
X521665D01*
Y83332D01*
X518999Y80667D01*
Y80000D01*
X522997D02*
Y83999D01*
Y81333D02*
X524997Y82666D01*
X522997Y81333D02*
X524997Y80000D01*
X515000Y87500D02*
Y91499D01*
X516999D01*
X517666Y90832D01*
Y89499D01*
X516999Y88833D01*
X515000D01*
X516333D02*
X517666Y87500D01*
X518999D02*
X520332D01*
X519665D01*
Y91499D01*
X518999Y90832D01*
X522331D02*
X522997Y91499D01*
X524330D01*
X524997Y90832D01*
Y90166D01*
X524330Y89499D01*
X524997Y88833D01*
Y88166D01*
X524330Y87500D01*
X522997D01*
X522331Y88166D01*
Y88833D01*
X522997Y89499D01*
X522331Y90166D01*
Y90832D01*
X522997Y89499D02*
X524330D01*
X516999Y60000D02*
Y63999D01*
X515000Y61999D01*
X517666D01*
X518999Y63999D02*
X521665D01*
Y63332D01*
X518999Y60666D01*
Y60000D01*
X522997D02*
Y63999D01*
Y61333D02*
X524997Y62666D01*
X522997Y61333D02*
X524997Y60000D01*
X515000Y67500D02*
Y71499D01*
X516999D01*
X517666Y70832D01*
Y69499D01*
X516999Y68833D01*
X515000D01*
X516333D02*
X517666Y67500D01*
X518999D02*
X520332D01*
X519665D01*
Y71499D01*
X518999Y70832D01*
X522331Y68166D02*
X522997Y67500D01*
X524330D01*
X524997Y68166D01*
Y70832D01*
X524330Y71499D01*
X522997D01*
X522331Y70832D01*
Y70166D01*
X522997Y69499D01*
X524997D01*
X516999Y40000D02*
Y43999D01*
X515000Y41999D01*
X517666D01*
X518999Y43999D02*
X521665D01*
Y43332D01*
X518999Y40666D01*
Y40000D01*
X522997D02*
Y43999D01*
Y41333D02*
X524997Y42666D01*
X522997Y41333D02*
X524997Y40000D01*
X515000Y47500D02*
Y51499D01*
X516999D01*
X517666Y50832D01*
Y49499D01*
X516999Y48833D01*
X515000D01*
X516333D02*
X517666Y47500D01*
X521665D02*
X518999D01*
X521665Y50166D01*
Y50832D01*
X520998Y51499D01*
X519665D01*
X518999Y50832D01*
X522997D02*
X523664Y51499D01*
X524997D01*
X525663Y50832D01*
Y48166D01*
X524997Y47500D01*
X523664D01*
X522997Y48166D01*
Y50832D01*
X516999Y20000D02*
Y23999D01*
X515000Y21999D01*
X517666D01*
X518999Y23999D02*
X521665D01*
Y23332D01*
X518999Y20666D01*
Y20000D01*
X522997D02*
Y23999D01*
Y21333D02*
X524997Y22666D01*
X522997Y21333D02*
X524997Y20000D01*
X515000Y27500D02*
Y31499D01*
X516999D01*
X517666Y30832D01*
Y29499D01*
X516999Y28833D01*
X515000D01*
X516333D02*
X517666Y27500D01*
X521665D02*
X518999D01*
X521665Y30166D01*
Y30832D01*
X520998Y31499D01*
X519665D01*
X518999Y30832D01*
X522997Y27500D02*
X524330D01*
X523664D01*
Y31499D01*
X522997Y30832D01*
X112500Y172500D02*
X116499D01*
X115166Y171167D01*
X116499Y169834D01*
X112500D01*
X115832Y165835D02*
X116499Y166502D01*
Y167835D01*
X115832Y168501D01*
X113166D01*
X112500Y167835D01*
Y166502D01*
X113166Y165835D01*
X112500Y164503D02*
X116499D01*
Y162503D01*
X115832Y161837D01*
X114499D01*
X113833Y162503D01*
Y164503D01*
X116499Y157838D02*
X115832Y159171D01*
X114499Y160504D01*
X113166D01*
X112500Y159838D01*
Y158505D01*
X113166Y157838D01*
X113833D01*
X114499Y158505D01*
Y160504D01*
X115832Y156505D02*
X116499Y155839D01*
Y154506D01*
X115832Y153839D01*
X113166D01*
X112500Y154506D01*
Y155839D01*
X113166Y156505D01*
X115832D01*
Y152507D02*
X116499Y151840D01*
Y150507D01*
X115832Y149841D01*
X113166D01*
X112500Y150507D01*
Y151840D01*
X113166Y152507D01*
X115832D01*
X112500Y146509D02*
X116499D01*
X114499Y148508D01*
Y145842D01*
X116499Y144509D02*
Y141843D01*
Y143176D01*
X112500D01*
X114499Y140510D02*
Y137845D01*
X116499Y133846D02*
Y136512D01*
X112500D01*
Y133846D01*
X114499Y136512D02*
Y135179D01*
X112500Y132513D02*
X115166Y129847D01*
X115832Y125849D02*
X116499Y126515D01*
Y127848D01*
X115832Y128514D01*
X115166D01*
X114499Y127848D01*
Y126515D01*
X113833Y125849D01*
X113166D01*
X112500Y126515D01*
Y127848D01*
X113166Y128514D01*
X116499Y124516D02*
Y121850D01*
Y123183D01*
X112500D01*
X126499Y172500D02*
X123166D01*
X122500Y171834D01*
Y170501D01*
X123166Y169834D01*
X126499D01*
X122500Y168501D02*
Y167168D01*
Y167835D01*
X126499D01*
X125832Y168501D01*
X272500Y215000D02*
X276499D01*
Y213001D01*
X275832Y212334D01*
X274499D01*
X273833Y213001D01*
Y215000D01*
X276499Y211001D02*
Y209668D01*
Y210335D01*
X272500D01*
Y211001D01*
Y209668D01*
X275832Y205003D02*
X276499Y205670D01*
Y207003D01*
X275832Y207669D01*
X273166D01*
X272500Y207003D01*
Y205670D01*
X273166Y205003D01*
X272500Y203670D02*
Y202337D01*
Y203004D01*
X276499D01*
X275832Y203670D01*
X276499Y197672D02*
X275832Y199005D01*
X274499Y200338D01*
X273166D01*
X272500Y199672D01*
Y198339D01*
X273166Y197672D01*
X273833D01*
X274499Y198339D01*
Y200338D01*
X276499Y193674D02*
Y196339D01*
X274499D01*
Y195007D01*
Y196339D01*
X272500D01*
Y192341D02*
Y191008D01*
Y191674D01*
X276499D01*
X275832Y192341D01*
X272500Y187009D02*
X276499D01*
X274499Y189009D01*
Y186343D01*
X276499Y182344D02*
Y185010D01*
X274499D01*
X275166Y183677D01*
Y183010D01*
X274499Y182344D01*
X273166D01*
X272500Y183010D01*
Y184343D01*
X273166Y185010D01*
Y181011D02*
X272500Y180345D01*
Y179012D01*
X273166Y178345D01*
X275832D01*
X276499Y179012D01*
Y180345D01*
X275832Y181011D01*
X275166D01*
X274499Y180345D01*
Y178345D01*
X276499Y177012D02*
Y174347D01*
Y175679D01*
X272500D01*
X274499Y173014D02*
Y170348D01*
X276499Y166349D02*
Y169015D01*
X272500D01*
Y166349D01*
X274499Y169015D02*
Y167682D01*
X272500Y165016D02*
X275166Y162351D01*
X275832Y158352D02*
X276499Y159018D01*
Y160351D01*
X275832Y161018D01*
X275166D01*
X274499Y160351D01*
Y159018D01*
X273833Y158352D01*
X273166D01*
X272500Y159018D01*
Y160351D01*
X273166Y161018D01*
X276499Y155020D02*
Y156352D01*
X275832Y157019D01*
X273166D01*
X272500Y156352D01*
Y155020D01*
X273166Y154353D01*
X275832D01*
X276499Y155020D01*
X283999Y215000D02*
X280666D01*
X280000Y214334D01*
Y213001D01*
X280666Y212334D01*
X283999D01*
X280000Y208335D02*
Y211001D01*
X282666Y208335D01*
X283332D01*
X283999Y209002D01*
Y210335D01*
X283332Y211001D01*
X37500Y100000D02*
X38833D01*
X38166D01*
Y103999D01*
X37500Y103332D01*
X40832D02*
X41499Y103999D01*
X42832D01*
X43498Y103332D01*
Y100666D01*
X42832Y100000D01*
X41499D01*
X40832Y100666D01*
Y103332D01*
X44831Y100000D02*
Y103999D01*
Y101333D02*
X46830Y102666D01*
X44831Y101333D02*
X46830Y100000D01*
X37500Y107500D02*
Y111499D01*
X39499D01*
X40166Y110832D01*
Y109499D01*
X39499Y108833D01*
X37500D01*
X38833D02*
X40166Y107500D01*
X41499D02*
X42832D01*
X42165D01*
Y111499D01*
X41499Y110832D01*
X44831D02*
X45497Y111499D01*
X46830D01*
X47497Y110832D01*
Y108167D01*
X46830Y107500D01*
X45497D01*
X44831Y108167D01*
Y110832D01*
X370166Y178332D02*
X369499Y178999D01*
X368166D01*
X367500Y178332D01*
Y177666D01*
X368166Y176999D01*
X369499D01*
X370166Y176333D01*
Y175667D01*
X369499Y175000D01*
X368166D01*
X367500Y175667D01*
X371499Y175000D02*
Y178999D01*
X372832Y177666D01*
X374165Y178999D01*
Y175000D01*
X378163Y178332D02*
X377497Y178999D01*
X376164D01*
X375497Y178332D01*
Y177666D01*
X376164Y176999D01*
X377497D01*
X378163Y176333D01*
Y175667D01*
X377497Y175000D01*
X376164D01*
X375497Y175667D01*
X379496Y178332D02*
X380163Y178999D01*
X381496D01*
X382162Y178332D01*
Y175667D01*
X381496Y175000D01*
X380163D01*
X379496Y175667D01*
Y178332D01*
X386161Y178999D02*
X383495D01*
Y176999D01*
X384828Y177666D01*
X385494D01*
X386161Y176999D01*
Y175667D01*
X385494Y175000D01*
X384161D01*
X383495Y175667D01*
X387494Y178999D02*
X390159D01*
X388826D01*
Y175000D01*
X391492D02*
X392825D01*
X392159D01*
Y178999D01*
X391492Y178332D01*
X397490D02*
X396824Y178999D01*
X395491D01*
X394824Y178332D01*
Y175667D01*
X395491Y175000D01*
X396824D01*
X397490Y175667D01*
Y176999D01*
X396157D01*
X367500Y186499D02*
Y182500D01*
X369499D01*
X370166Y183167D01*
Y185832D01*
X369499Y186499D01*
X367500D01*
X374165D02*
X371499D01*
Y184499D01*
X372832Y185166D01*
X373498D01*
X374165Y184499D01*
Y183167D01*
X373498Y182500D01*
X372165D01*
X371499Y183167D01*
X291666Y265832D02*
X290999Y266499D01*
X289667D01*
X289000Y265832D01*
Y263167D01*
X289667Y262500D01*
X290999D01*
X291666Y263167D01*
X294998Y266499D02*
X293665D01*
X292999Y265832D01*
Y263167D01*
X293665Y262500D01*
X294998D01*
X295665Y263167D01*
Y265832D01*
X294998Y266499D01*
X296997Y262500D02*
Y266499D01*
X299663Y262500D01*
Y266499D01*
X300996Y262500D02*
Y266499D01*
X303662Y262500D01*
Y266499D01*
X308993Y262500D02*
Y266499D01*
X310993D01*
X311659Y265832D01*
Y264499D01*
X310993Y263833D01*
X308993D01*
X315658Y265832D02*
X314991Y266499D01*
X313659D01*
X312992Y265832D01*
Y263167D01*
X313659Y262500D01*
X314991D01*
X315658Y263167D01*
X316991Y266499D02*
Y262500D01*
X318990D01*
X319657Y263167D01*
Y263833D01*
X318990Y264499D01*
X316991D01*
X318990D01*
X319657Y265166D01*
Y265832D01*
X318990Y266499D01*
X316991D01*
X327654D02*
X324988D01*
Y264499D01*
X326321Y265166D01*
X326988D01*
X327654Y264499D01*
Y263167D01*
X326988Y262500D01*
X325655D01*
X324988Y263167D01*
X328987Y262500D02*
Y266499D01*
X330986D01*
X331653Y265832D01*
Y264499D01*
X330986Y263833D01*
X328987D01*
X336984Y262500D02*
Y266499D01*
X338317Y265166D01*
X339650Y266499D01*
Y262500D01*
X347648Y265832D02*
X346981Y266499D01*
X345648D01*
X344982Y265832D01*
Y265166D01*
X345648Y264499D01*
X346981D01*
X347648Y263833D01*
Y263167D01*
X346981Y262500D01*
X345648D01*
X344982Y263167D01*
X355166Y288999D02*
X353833D01*
X354499D01*
Y285667D01*
X353833Y285000D01*
X353166D01*
X352500Y285667D01*
X356499Y285000D02*
X357832D01*
X357165D01*
Y288999D01*
X356499Y288332D01*
X137500Y276499D02*
X140166D01*
Y275832D01*
X137500Y273166D01*
Y272500D01*
X141499Y275832D02*
X142165Y276499D01*
X143498D01*
X144164Y275832D01*
Y275166D01*
X143498Y274499D01*
X144164Y273833D01*
Y273166D01*
X143498Y272500D01*
X142165D01*
X141499Y273166D01*
Y273833D01*
X142165Y274499D01*
X141499Y275166D01*
Y275832D01*
X142165Y274499D02*
X143498D01*
X145497Y276499D02*
Y272500D01*
X148163D01*
X149496Y275832D02*
X150163Y276499D01*
X151496D01*
X152162Y275832D01*
Y273166D01*
X151496Y272500D01*
X150163D01*
X149496Y273166D01*
Y275832D01*
X156161Y276499D02*
X153495D01*
Y274499D01*
X154828Y275166D01*
X155494D01*
X156161Y274499D01*
Y273166D01*
X155494Y272500D01*
X154161D01*
X153495Y273166D01*
X137500Y283999D02*
Y280666D01*
X138167Y280000D01*
X139499D01*
X140166Y280666D01*
Y283999D01*
X141499Y283332D02*
X142165Y283999D01*
X143498D01*
X144164Y283332D01*
Y282666D01*
X143498Y281999D01*
X142832D01*
X143498D01*
X144164Y281333D01*
Y280666D01*
X143498Y280000D01*
X142165D01*
X141499Y280666D01*
X451548Y27073D02*
Y23074D01*
X453547D01*
X454214Y23740D01*
Y26406D01*
X453547Y27073D01*
X451548D01*
X458213D02*
X456880Y26406D01*
X455547Y25073D01*
Y23740D01*
X456213Y23074D01*
X457546D01*
X458213Y23740D01*
Y24407D01*
X457546Y25073D01*
X455547D01*
X451734Y67052D02*
Y63053D01*
X453733D01*
X454399Y63720D01*
Y66385D01*
X453733Y67052D01*
X451734D01*
X455732D02*
X458398D01*
Y66385D01*
X455732Y63720D01*
Y63053D01*
X451548Y46965D02*
Y42966D01*
X453547D01*
X454214Y43632D01*
Y46298D01*
X453547Y46965D01*
X451548D01*
X455547Y46298D02*
X456213Y46965D01*
X457546D01*
X458213Y46298D01*
Y45632D01*
X457546Y44965D01*
X458213Y44299D01*
Y43632D01*
X457546Y42966D01*
X456213D01*
X455547Y43632D01*
Y44299D01*
X456213Y44965D01*
X455547Y45632D01*
Y46298D01*
X456213Y44965D02*
X457546D01*
X451548Y87057D02*
Y83058D01*
X453547D01*
X454214Y83724D01*
Y86390D01*
X453547Y87057D01*
X451548D01*
X455547Y83724D02*
X456213Y83058D01*
X457546D01*
X458213Y83724D01*
Y86390D01*
X457546Y87057D01*
X456213D01*
X455547Y86390D01*
Y85724D01*
X456213Y85057D01*
X458213D01*
X373114Y85424D02*
X377113D01*
Y83425D01*
X376446Y82758D01*
X375113D01*
X374447Y83425D01*
Y85424D01*
Y84091D02*
X373114Y82758D01*
Y78759D02*
Y81425D01*
X375780Y78759D01*
X376446D01*
X377113Y79426D01*
Y80759D01*
X376446Y81425D01*
X373114Y75427D02*
X377113D01*
X375113Y77427D01*
Y74761D01*
X408114Y70358D02*
X412113D01*
Y68359D01*
X411446Y67692D01*
X410113D01*
X409447Y68359D01*
Y70358D01*
Y69025D02*
X408114Y67692D01*
Y63693D02*
Y66359D01*
X410780Y63693D01*
X411446D01*
X412113Y64360D01*
Y65693D01*
X411446Y66359D01*
X412113Y59695D02*
Y62361D01*
X410113D01*
X410780Y61028D01*
Y60361D01*
X410113Y59695D01*
X408780D01*
X408114Y60361D01*
Y61694D01*
X408780Y62361D01*
X408114Y50292D02*
X412113D01*
Y48293D01*
X411446Y47626D01*
X410113D01*
X409447Y48293D01*
Y50292D01*
Y48959D02*
X408114Y47626D01*
Y43628D02*
Y46293D01*
X410780Y43628D01*
X411446D01*
X412113Y44294D01*
Y45627D01*
X411446Y46293D01*
X412113Y39629D02*
X411446Y40962D01*
X410113Y42295D01*
X408780D01*
X408114Y41628D01*
Y40295D01*
X408780Y39629D01*
X409447D01*
X410113Y40295D01*
Y42295D01*
X408114Y30226D02*
X412113D01*
Y28227D01*
X411446Y27560D01*
X410113D01*
X409447Y28227D01*
Y30226D01*
Y28893D02*
X408114Y27560D01*
Y23561D02*
Y26227D01*
X410780Y23561D01*
X411446D01*
X412113Y24228D01*
Y25561D01*
X411446Y26227D01*
X412113Y22229D02*
Y19563D01*
X411446D01*
X408780Y22229D01*
X408114D01*
M02*
