%FSLAX42Y42*%
%MOMM*%
G71*
G01*
G75*
%ADD10O,2.00X0.50*%
%ADD11O,0.50X2.00*%
%ADD12R,0.50X2.00*%
%ADD13R,0.80X0.95*%
%ADD14R,0.90X0.95*%
%ADD15R,0.95X0.90*%
%ADD16R,0.95X0.80*%
%ADD17O,2.00X0.60*%
%ADD18R,2.00X0.50*%
%ADD19R,0.91X0.91*%
%ADD20R,1.27X0.91*%
%ADD21R,1.50X1.25*%
%ADD22R,2.30X1.90*%
%ADD23C,0.50*%
%ADD24C,1.75*%
%ADD25R,1.75X1.75*%
%ADD26C,2.50*%
%ADD27C,1.50*%
%ADD28C,2.00*%
%ADD29R,2.00X2.00*%
%ADD30C,1.30*%
%ADD31R,1.30X1.30*%
%ADD32C,1.20*%
%ADD33C,0.45*%
%ADD34O,2.20X0.70*%
%ADD35O,0.70X2.20*%
%ADD36R,0.70X2.20*%
%ADD37R,1.00X1.15*%
%ADD38R,1.10X1.15*%
%ADD39R,1.15X1.10*%
%ADD40R,1.15X1.00*%
%ADD41O,2.20X0.80*%
%ADD42R,2.20X0.70*%
%ADD43R,1.12X1.12*%
%ADD44R,1.47X1.12*%
%ADD45R,1.70X1.45*%
%ADD46R,2.50X2.10*%
%ADD47C,1.95*%
%ADD48R,1.95X1.95*%
%ADD49C,2.70*%
%ADD50C,1.70*%
%ADD51C,2.20*%
%ADD52R,2.20X2.20*%
%ADD53C,1.50*%
%ADD54R,1.50X1.50*%
%ADD55C,1.40*%
D47*
X4225Y670D02*
D03*
X3975D02*
D03*
X2542Y2995D02*
D03*
Y3245D02*
D03*
X2755Y1240D02*
D03*
X2505D02*
D03*
X1850Y2498D02*
D03*
Y2248D02*
D03*
Y1990D02*
D03*
X2050D02*
D03*
Y2248D02*
D03*
Y2498D02*
D03*
X2595Y753D02*
D03*
X2850D02*
D03*
X3100D02*
D03*
X2595Y550D02*
D03*
X2850D02*
D03*
X3100D02*
D03*
D48*
X3720Y670D02*
D03*
X2542Y2740D02*
D03*
X3010Y1240D02*
D03*
X1850Y2752D02*
D03*
Y1735D02*
D03*
X2050D02*
D03*
Y2752D02*
D03*
X2340Y753D02*
D03*
X3355D02*
D03*
X2340Y550D02*
D03*
X3355D02*
D03*
D49*
X7157Y3722D02*
D03*
Y1273D02*
D03*
X7628Y1973D02*
D03*
Y1623D02*
D03*
Y1273D02*
D03*
Y3023D02*
D03*
Y2673D02*
D03*
Y2323D02*
D03*
Y3722D02*
D03*
Y3372D02*
D03*
D50*
X7750Y1000D02*
D03*
Y4000D02*
D03*
X1450Y1000D02*
D03*
Y4000D02*
D03*
X5220Y3080D02*
D03*
X4005D02*
D03*
Y3420D02*
D03*
X5220Y3420D02*
D03*
D51*
X6200Y2250D02*
D03*
Y2500D02*
D03*
X6800D02*
D03*
Y2750D02*
D03*
X6200D02*
D03*
D52*
X6800Y2250D02*
D03*
D53*
X4515Y2792D02*
D03*
X4260D02*
D03*
X4005D02*
D03*
X3755D02*
D03*
D54*
X3500D02*
D03*
D55*
X4745Y2685D02*
D03*
X5728Y1840D02*
D03*
X6050D02*
D03*
X6203Y1915D02*
D03*
Y1450D02*
D03*
X5600Y1175D02*
D03*
Y2190D02*
D03*
X5767Y2073D02*
D03*
X4620Y3662D02*
D03*
X4515Y3165D02*
D03*
X4703D02*
D03*
X4953Y2750D02*
D03*
Y1858D02*
D03*
X4620Y970D02*
D03*
X5933Y3322D02*
D03*
X3342Y3073D02*
D03*
X3725Y3127D02*
D03*
M02*
