METRIC,LZ
M48
T1F00S00C0.70
T2F00S00C0.80
T3F00S00C0.90
T4F00S00C1.00
T5F00S00C1.60
T6F00S00C2.00
%
T01
X00462Y00097
X0056Y001175
X005728Y00184
X005767Y002073
X0056Y00219
X00605Y00184
X006203Y001915
Y00145
X004953Y001858
X004745Y002685
X003725Y003127
X003342Y003073
X004515Y003165
X004703
X00462Y003662
X004953Y00275
X005933Y003322
T02
X0035Y002792
X003755
X004005
X00426
X004515
T03
X004005Y00308
Y00342
X00522Y00342
Y00308
T04
X003975Y00067
X004225
X0062Y00225
Y0025
X0068
Y00225
X00372Y00067
X003355Y000753
Y00055
X0031
Y000753
X00285
Y00055
X002595
Y000753
X00234
Y00055
X002505Y00124
X002755
X00301
X00205Y001735
X00185
Y00199
X00205
Y002248
X00185
Y002498
X00205
Y002752
X00185
X002542Y00274
Y002995
Y003245
X0062Y00275
X0068
T05
X007157Y001273
X007628
Y001623
Y001973
Y002323
Y002673
Y003023
Y003372
Y003722
X007157
T06
X00775Y001
X00145
Y004
X00775
M30
