%FSLAX42Y42*%
%MOMM*%
G71*
G01*
G75*
G04 Layer_Physical_Order=2*
%ADD10O,2.00X0.50*%
%ADD11O,0.50X2.00*%
%ADD12R,0.50X2.00*%
%ADD13R,0.80X0.95*%
%ADD14R,0.90X0.95*%
%ADD15R,0.95X0.90*%
%ADD16R,0.95X0.80*%
%ADD17O,2.00X0.60*%
%ADD18R,2.00X0.50*%
%ADD19R,0.91X0.91*%
%ADD20R,1.27X0.91*%
%ADD21R,1.50X1.25*%
%ADD22R,2.30X1.90*%
%ADD23C,0.50*%
%ADD24C,1.75*%
%ADD25R,1.75X1.75*%
%ADD26C,2.50*%
%ADD27C,1.50*%
%ADD28C,2.00*%
%ADD29R,2.00X2.00*%
%ADD30C,1.30*%
%ADD31R,1.30X1.30*%
%ADD32C,1.20*%
%ADD33C,0.45*%
D23*
X7628Y3372D02*
Y3528D01*
Y3372D02*
X7782D01*
X7628Y3217D02*
Y3372D01*
X7472D02*
X7628D01*
X5220Y3080D02*
Y3185D01*
Y3080D02*
X5325D01*
X5115D02*
X5220D01*
Y2975D02*
Y3080D01*
X4005D02*
Y3185D01*
Y3080D02*
X4110D01*
X4005Y2975D02*
Y3080D01*
X3900D02*
X4005D01*
X4005Y2792D02*
Y2888D01*
Y2792D02*
X4100D01*
X3910D02*
X4005D01*
Y2698D02*
Y2792D01*
X2050Y2752D02*
Y2870D01*
Y2752D02*
X2167D01*
X1850D02*
Y2870D01*
X1733Y2752D02*
X1850D01*
X2050Y1990D02*
X2167D01*
X1733D02*
X1850D01*
X3355Y753D02*
Y870D01*
Y753D02*
X3472D01*
X3355Y550D02*
X3472D01*
X3355Y432D02*
Y550D01*
X2595Y753D02*
Y870D01*
Y432D02*
Y550D01*
D24*
X4225Y670D02*
D03*
X3975D02*
D03*
X2542Y2995D02*
D03*
Y3245D02*
D03*
X2755Y1240D02*
D03*
X2505D02*
D03*
X1850Y2498D02*
D03*
Y2248D02*
D03*
Y1990D02*
D03*
X2050D02*
D03*
Y2248D02*
D03*
Y2498D02*
D03*
X2595Y753D02*
D03*
X2850D02*
D03*
X3100D02*
D03*
X2595Y550D02*
D03*
X2850D02*
D03*
X3100D02*
D03*
D25*
X3720Y670D02*
D03*
X2542Y2740D02*
D03*
X3010Y1240D02*
D03*
X1850Y2752D02*
D03*
Y1735D02*
D03*
X2050D02*
D03*
Y2752D02*
D03*
X2340Y753D02*
D03*
X3355D02*
D03*
X2340Y550D02*
D03*
X3355D02*
D03*
D26*
X7157Y3722D02*
D03*
Y1273D02*
D03*
X7628Y1973D02*
D03*
Y1623D02*
D03*
Y1273D02*
D03*
Y3023D02*
D03*
Y2673D02*
D03*
Y2323D02*
D03*
Y3722D02*
D03*
Y3372D02*
D03*
D27*
X7750Y1000D02*
D03*
Y4000D02*
D03*
X1450Y1000D02*
D03*
Y4000D02*
D03*
X5220Y3080D02*
D03*
X4005D02*
D03*
Y3420D02*
D03*
X5220Y3420D02*
D03*
D28*
X6200Y2250D02*
D03*
Y2500D02*
D03*
X6800D02*
D03*
Y2750D02*
D03*
X6200D02*
D03*
D29*
X6800Y2250D02*
D03*
D30*
X4515Y2792D02*
D03*
X4260D02*
D03*
X4005D02*
D03*
X3755D02*
D03*
D31*
X3500D02*
D03*
D32*
X4745Y2685D02*
D03*
X5728Y1840D02*
D03*
X6050D02*
D03*
X6203Y1915D02*
D03*
Y1450D02*
D03*
X5600Y1175D02*
D03*
Y2190D02*
D03*
X5767Y2073D02*
D03*
X4620Y3662D02*
D03*
X4515Y3165D02*
D03*
X4703D02*
D03*
X4953Y2750D02*
D03*
Y1858D02*
D03*
X4620Y970D02*
D03*
X5933Y3322D02*
D03*
X3342Y3073D02*
D03*
X3725Y3127D02*
D03*
D33*
X7903Y4000D02*
G03*
X7635Y3900I-152J0D01*
G01*
X7753Y3848D02*
G03*
X7903Y4000I-3J152D01*
G01*
X7805Y3722D02*
G03*
X7753Y3848I-177J0D01*
G01*
X7657Y3547D02*
G03*
X7805Y3722I-30J175D01*
G01*
Y3372D02*
G03*
X7657Y3547I-177J0D01*
G01*
X7657Y3198D02*
G03*
X7805Y3372I-30J175D01*
G01*
X7635Y3900D02*
G03*
X7598Y3547I-8J-177D01*
G01*
X7335Y3722D02*
G03*
X7335Y3722I-177J0D01*
G01*
X7598Y3547D02*
G03*
X7598Y3198I30J-175D01*
G01*
X7805Y3023D02*
G03*
X7657Y3198I-177J0D01*
G01*
Y2848D02*
G03*
X7805Y3023I-30J175D01*
G01*
Y2673D02*
G03*
X7657Y2848I-177J0D01*
G01*
Y2498D02*
G03*
X7805Y2673I-30J175D01*
G01*
X7598Y3198D02*
G03*
X7598Y2848I30J-175D01*
G01*
Y2848D02*
G03*
X7467Y2748I30J-175D01*
G01*
X7322D02*
G03*
X7269Y2726I0J-75D01*
G01*
X7322Y2748D02*
G03*
X7269Y2726I0J-75D01*
G01*
X5346Y3400D02*
G03*
X5347Y3420I-126J20D01*
G01*
X5675Y3040D02*
G03*
X5653Y3093I-75J0D01*
G01*
X5675Y3040D02*
G03*
X5653Y3093I-75J0D01*
G01*
X5347Y3420D02*
G03*
X5240Y3294I-127J0D01*
G01*
X5347Y3080D02*
G03*
X5347Y3080I-127J0D01*
G01*
X4661Y3041D02*
G03*
X4608Y3062I-53J-53D01*
G01*
X4661Y3041D02*
G03*
X4608Y3062I-53J-53D01*
G01*
X4382Y2934D02*
G03*
X4435Y2912I53J53D01*
G01*
X4382Y2934D02*
G03*
X4435Y2912I53J53D01*
G01*
X6953Y2750D02*
G03*
X6713Y2625I-152J0D01*
G01*
X6887D02*
G03*
X6953Y2750I-87J125D01*
G01*
X6353D02*
G03*
X6113Y2625I-152J0D01*
G01*
X6287D02*
G03*
X6353Y2750I-87J125D01*
G01*
X6953Y2500D02*
G03*
X6887Y2625I-152J0D01*
G01*
X6917Y2402D02*
G03*
X6953Y2500I-117J98D01*
G01*
X6992Y2448D02*
G03*
X6970Y2395I53J-53D01*
G01*
X6713Y2625D02*
G03*
X6683Y2402I87J-125D01*
G01*
X6992Y2448D02*
G03*
X6970Y2395I53J-53D01*
G01*
X6353Y2500D02*
G03*
X6287Y2625I-152J0D01*
G01*
X6113D02*
G03*
X6113Y2375I87J-125D01*
G01*
X6287D02*
G03*
X6353Y2500I-87J125D01*
G01*
X4820Y2850D02*
G03*
X4798Y2903I-75J0D01*
G01*
X4820Y2850D02*
G03*
X4798Y2903I-75J0D01*
G01*
X4858Y2685D02*
G03*
X4820Y2769I-112J0D01*
G01*
X4670D02*
G03*
X4858Y2685I75J-84D01*
G01*
X4633Y2792D02*
G03*
X4633Y2792I-117J0D01*
G01*
X7805Y2323D02*
G03*
X7657Y2498I-177J0D01*
G01*
X7657Y2148D02*
G03*
X7805Y2323I-30J175D01*
G01*
Y1973D02*
G03*
X7657Y2148I-177J0D01*
G01*
X7657Y1798D02*
G03*
X7805Y1973I-30J175D01*
G01*
Y1623D02*
G03*
X7657Y1798I-177J0D01*
G01*
Y1448D02*
G03*
X7805Y1623I-30J175D01*
G01*
X7467Y2248D02*
G03*
X7598Y2148I161J75D01*
G01*
G03*
X7598Y1798I30J-175D01*
G01*
X6972Y1898D02*
G03*
X7026Y1919I0J75D01*
G01*
X6972Y1898D02*
G03*
X7026Y1919I0J75D01*
G01*
X7598Y1798D02*
G03*
X7598Y1448I30J-175D01*
G01*
X7758Y1152D02*
G03*
X7805Y1273I-131J120D01*
G01*
G03*
X7657Y1448I-177J0D01*
G01*
X7903Y1000D02*
G03*
X7758Y1152I-152J0D01*
G01*
X7631Y1095D02*
G03*
X7903Y1000I119J-95D01*
G01*
X7598Y1448D02*
G03*
X7631Y1095I30J-175D01*
G01*
X7335Y1273D02*
G03*
X7335Y1273I-177J0D01*
G01*
X6413Y2303D02*
G03*
X6360Y2325I-53J-53D01*
G01*
X6413Y2303D02*
G03*
X6360Y2325I-53J-53D01*
G01*
X6333D02*
G03*
X6287Y2375I-133J-75D01*
G01*
X6113D02*
G03*
X6087Y2148I87J-125D01*
G01*
X5711Y2170D02*
G03*
X5712Y2190I-111J20D01*
G01*
X5851Y2148D02*
G03*
X5711Y2170I-84J-75D01*
G01*
X5712Y2190D02*
G03*
X5675Y2274I-112J0D01*
G01*
X5525D02*
G03*
X5525Y2106I75J-84D01*
G01*
X6478Y1919D02*
G03*
X6531Y1898I53J53D01*
G01*
X6478Y1919D02*
G03*
X6531Y1898I53J53D01*
G01*
X6315Y1915D02*
G03*
X6279Y1998I-112J0D01*
G01*
X6278Y1831D02*
G03*
X6315Y1915I-75J84D01*
G01*
Y1450D02*
G03*
X6278Y1534I-112J0D01*
G01*
X6128D02*
G03*
X6315Y1450I75J-84D01*
G01*
X5966Y1765D02*
G03*
X6128Y1758I84J75D01*
G01*
X5675Y1741D02*
G03*
X5811Y1765I52J99D01*
G01*
X5712Y1175D02*
G03*
X5675Y1259I-112J0D01*
G01*
X5525D02*
G03*
X5712Y1175I75J-84D01*
G01*
X4131Y3400D02*
G03*
X4133Y3420I-126J20D01*
G01*
G03*
X4025Y3294I-127J0D01*
G01*
X4133Y3080D02*
G03*
X4133Y3080I-127J0D01*
G01*
X4154Y3165D02*
G03*
X4164Y3152I63J40D01*
G01*
X4154Y3165D02*
G03*
X4164Y3152I63J40D01*
G01*
X4378Y2792D02*
G03*
X4378Y2792I-117J0D01*
G01*
X4122D02*
G03*
X4122Y2792I-117J0D01*
G01*
X3872D02*
G03*
X3872Y2792I-117J0D01*
G01*
X2606Y3120D02*
G03*
X2683Y3245I-63J125D01*
G01*
G03*
X2479Y3120I-140J0D01*
G01*
X2683Y2995D02*
G03*
X2606Y3120I-140J0D01*
G01*
X2622Y2880D02*
G03*
X2683Y2995I-80J115D01*
G01*
X2479Y3120D02*
G03*
X2463Y2880I63J-125D01*
G01*
X1602Y4000D02*
G03*
X1602Y4000I-152J0D01*
G01*
X2190Y2498D02*
G03*
X2130Y2612I-140J0D01*
G01*
X2113Y2373D02*
G03*
X2190Y2498I-63J125D01*
G01*
Y2248D02*
G03*
X2113Y2373I-140J0D01*
G01*
X2105Y2119D02*
G03*
X2190Y2248I-55J129D01*
G01*
X2130Y1875D02*
G03*
X2190Y1990I-80J115D01*
G01*
G03*
X2105Y2119I-140J0D01*
G01*
X1770Y2612D02*
G03*
X1787Y2373I80J-115D01*
G01*
G03*
X1795Y2119I63J-125D01*
G01*
Y2119D02*
G03*
X1770Y1875I55J-129D01*
G01*
X4365Y670D02*
G03*
X4100Y733I-140J0D01*
G01*
G03*
X3860Y750I-125J-63D01*
G01*
X3215Y832D02*
G03*
X2975Y816I-115J-80D01*
G01*
X4100Y607D02*
G03*
X4365Y670I125J63D01*
G01*
X3860Y590D02*
G03*
X4100Y607I115J80D01*
G01*
X2975Y487D02*
G03*
X3215Y470I125J63D01*
G01*
X2870Y1320D02*
G03*
X2630Y1303I-115J-80D01*
G01*
Y1177D02*
G03*
X2870Y1160I125J63D01*
G01*
X2630Y1303D02*
G03*
X2630Y1177I-125J-63D01*
G01*
X1602Y1000D02*
G03*
X1602Y1000I-152J0D01*
G01*
X2975Y816D02*
G03*
X2723Y810I-125J-63D01*
G01*
X2723D02*
G03*
X2480Y832I-127J-58D01*
G01*
X2723Y492D02*
G03*
X2975Y487I127J58D01*
G01*
X2480Y470D02*
G03*
X2723Y492I115J80D01*
G01*
X7891Y4057D02*
X7967D01*
X7877Y4084D02*
Y5065D01*
X7901Y4017D02*
X7967D01*
X7816Y4137D02*
X7967D01*
X7901Y3977D02*
X7967D01*
X7863Y3897D02*
X7967D01*
X7804Y3857D02*
X7967D01*
X7777Y3817D02*
X7967D01*
X7797Y4145D02*
Y5065D01*
X7757Y4152D02*
Y5065D01*
X7837Y4125D02*
Y5065D01*
X7717Y4149D02*
Y5065D01*
X7677Y4134D02*
Y5065D01*
X7637Y4103D02*
Y5065D01*
X7597Y3897D02*
Y5065D01*
X7797Y3774D02*
Y3855D01*
X7557Y3886D02*
Y5065D01*
X7517Y3862D02*
Y5065D01*
X7796Y3777D02*
X7967D01*
X7804Y3737D02*
X7967D01*
X7803Y3697D02*
X7967D01*
X7771Y3617D02*
X7967D01*
X7754Y3497D02*
X7967D01*
X7783Y3457D02*
X7967D01*
X7799Y3417D02*
X7967D01*
X7730Y3577D02*
X7967D01*
X7693Y3537D02*
X7967D01*
X7757Y3493D02*
Y3602D01*
X7717Y3526D02*
Y3569D01*
X7797Y3424D02*
Y3671D01*
X7517Y3512D02*
Y3583D01*
X7677Y3543D02*
Y3552D01*
X7557Y3536D02*
Y3559D01*
X7477Y3817D02*
Y5065D01*
X7307Y3817D02*
X7478D01*
X7187Y3897D02*
X7598D01*
X7273Y3857D02*
X7512D01*
X7326Y3777D02*
X7459D01*
X7334Y3737D02*
X7451D01*
X7323Y3657D02*
X7462D01*
X7301Y3617D02*
X7484D01*
X7260Y3577D02*
X7525D01*
X7277Y3853D02*
Y5065D01*
X7237Y3881D02*
Y5065D01*
X7317Y3799D02*
Y5065D01*
X7157Y3900D02*
Y5065D01*
X7197Y3895D02*
Y5065D01*
X7117Y3895D02*
Y5065D01*
X7077Y3881D02*
Y5065D01*
X7333Y3697D02*
X7452D01*
X7037Y3853D02*
Y5065D01*
X6997Y3799D02*
Y5065D01*
X7477Y3467D02*
Y3628D01*
X7437Y2748D02*
Y5065D01*
X7397Y2748D02*
Y5065D01*
X7357Y2748D02*
Y5065D01*
X5342Y3457D02*
X7472D01*
X5347Y3417D02*
X7456D01*
X5270Y3537D02*
X7562D01*
X5321Y3497D02*
X7501D01*
X7317Y2747D02*
Y3646D01*
X7277Y2732D02*
Y3592D01*
X7237Y2694D02*
Y3564D01*
X7037Y2494D02*
Y3592D01*
X6997Y2454D02*
Y3646D01*
X7197Y2654D02*
Y3550D01*
X7157Y2614D02*
Y3545D01*
X7117Y2574D02*
Y3550D01*
X7077Y2534D02*
Y3564D01*
X7802Y3337D02*
X7967D01*
X7788Y3297D02*
X7967D01*
X7763Y3257D02*
X7967D01*
X7714Y3217D02*
X7967D01*
X7714Y3177D02*
X7967D01*
X7802Y3057D02*
X7967D01*
X7805Y3017D02*
X7966D01*
X7799Y2977D02*
X7966D01*
X7763Y3137D02*
X7967D01*
X7783Y2937D02*
X7966D01*
X7757Y3143D02*
Y3252D01*
X7717Y3176D02*
Y3219D01*
X7797Y3074D02*
Y3321D01*
X7677Y3193D02*
Y3202D01*
X7754Y2897D02*
X7966D01*
X7693Y2857D02*
X7966D01*
X7717Y2826D02*
Y2869D01*
X7677Y2843D02*
Y2852D01*
X7793Y2737D02*
X7966D01*
X7803Y2697D02*
X7966D01*
X7804Y2657D02*
X7966D01*
X7730Y2817D02*
X7966D01*
X7771Y2777D02*
X7966D01*
X7796Y2617D02*
X7966D01*
X7777Y2577D02*
X7966D01*
X7743Y2537D02*
X7966D01*
X7657Y2497D02*
X7966D01*
X7743Y2457D02*
X7966D01*
X7797Y2724D02*
Y2971D01*
X7757Y2793D02*
Y2902D01*
X7797Y2374D02*
Y2621D01*
X7777Y2417D02*
X7966D01*
X7757Y2443D02*
Y2552D01*
X7796Y2377D02*
X7966D01*
X7677Y2493D02*
Y2502D01*
X7717Y2476D02*
Y2519D01*
X7517Y3162D02*
Y3233D01*
X5489Y3257D02*
X7492D01*
X7557Y3186D02*
Y3209D01*
X6839Y2897D02*
X7501D01*
X6908Y2857D02*
X7562D01*
X5529Y3217D02*
X7541D01*
X5569Y3177D02*
X7541D01*
X5609Y3137D02*
X7492D01*
X5449Y3297D02*
X7467D01*
X7477Y3117D02*
Y3278D01*
X5369Y3377D02*
X7450D01*
X5409Y3337D02*
X7453D01*
X5673Y3057D02*
X7453D01*
X5675Y3017D02*
X7450D01*
X5675Y2977D02*
X7456D01*
X5649Y3097D02*
X7467D01*
X5675Y2937D02*
X7472D01*
X7557Y2836D02*
Y2859D01*
X7517Y2812D02*
Y2883D01*
X7477Y2767D02*
Y2928D01*
X7322Y2748D02*
X7467D01*
X6937Y2817D02*
X7525D01*
X6950Y2777D02*
X7484D01*
X6952Y2737D02*
X7285D01*
X6943Y2697D02*
X7241D01*
X6992Y2448D02*
X7269Y2726D01*
X6921Y2657D02*
X7201D01*
X6897Y2617D02*
X7161D01*
X6948Y2537D02*
X7081D01*
X6952Y2497D02*
X7041D01*
X6931Y2577D02*
X7121D01*
X6946Y2457D02*
X7001D01*
X5597Y3149D02*
Y5065D01*
X5557Y3189D02*
Y5065D01*
X5637Y3109D02*
Y5065D01*
X5477Y3269D02*
Y5065D01*
X5517Y3229D02*
Y5065D01*
X5437Y3309D02*
Y5065D01*
X5397Y3349D02*
Y5065D01*
X5346Y3400D02*
X5653Y3093D01*
X5334Y3137D02*
X5396D01*
X5346Y3097D02*
X5436D01*
X5317Y3502D02*
Y5065D01*
X5357Y3389D02*
Y5065D01*
X5237Y3546D02*
Y5065D01*
X5277Y3534D02*
Y5065D01*
X5302Y3177D02*
X5356D01*
X5277Y3194D02*
Y3256D01*
X5317Y3162D02*
Y3216D01*
X5237Y3206D02*
Y3294D01*
X6877Y2881D02*
Y5065D01*
X6837Y2898D02*
Y5065D01*
X6917Y2847D02*
Y5065D01*
X6797Y2902D02*
Y5065D01*
X6757Y2896D02*
Y5065D01*
X6717Y2878D02*
Y5065D01*
X6677Y2841D02*
Y5065D01*
X6317Y2847D02*
Y5065D01*
X6237Y2898D02*
Y5065D01*
X6277Y2881D02*
Y5065D01*
X6197Y2902D02*
Y5065D01*
X6157Y2896D02*
Y5065D01*
X6117Y2878D02*
Y5065D01*
X5240Y3294D02*
X5525Y3009D01*
X6077Y2841D02*
Y5065D01*
X5345Y3057D02*
X5476D01*
X5331Y3017D02*
X5516D01*
X5296Y2977D02*
X5525D01*
X5197Y3545D02*
Y5065D01*
X5157Y3531D02*
Y5065D01*
X5117Y3496D02*
Y5065D01*
Y3156D02*
Y3344D01*
X5197Y3205D02*
Y3295D01*
X5157Y3191D02*
Y3309D01*
X4394Y3137D02*
X5106D01*
X4597Y3062D02*
Y5065D01*
X4557Y3062D02*
Y5065D01*
X4517Y3062D02*
Y5065D01*
X4437Y3094D02*
Y5065D01*
X4477Y3062D02*
Y5065D01*
X4434Y3097D02*
X5094D01*
X4634Y3057D02*
X5095D01*
X4469Y3062D02*
X4608D01*
X4357Y3174D02*
Y5065D01*
X4397Y3134D02*
Y5065D01*
X4797Y2904D02*
Y5065D01*
X4837Y2749D02*
Y5065D01*
X4717Y2984D02*
Y5065D01*
X4757Y2944D02*
Y5065D01*
X4724Y2977D02*
X5144D01*
X4764Y2937D02*
X5525D01*
X4684Y3017D02*
X5109D01*
X4661Y3041D02*
X4798Y2903D01*
X4637Y3056D02*
Y5065D01*
X4677Y3024D02*
Y5065D01*
X4357Y2858D02*
Y2959D01*
X4438Y2912D02*
X4576D01*
X4670Y2819D01*
X6337Y2817D02*
X6663D01*
X6350Y2777D02*
X6650D01*
X6239Y2897D02*
X6761D01*
X6308Y2857D02*
X6692D01*
X6917Y2597D02*
Y2653D01*
X6677Y2591D02*
Y2659D01*
X6321Y2657D02*
X6679D01*
X6297Y2617D02*
X6703D01*
X5675Y2897D02*
X6161D01*
X5675Y2857D02*
X6092D01*
X5675Y2817D02*
X6063D01*
X5675Y2777D02*
X6050D01*
X6343Y2697D02*
X6657D01*
X6352Y2737D02*
X6648D01*
X6317Y2597D02*
Y2653D01*
X5675Y2737D02*
X6048D01*
X6331Y2577D02*
X6669D01*
X6928Y2417D02*
X6973D01*
X6953Y2377D02*
X6970D01*
X6917Y2402D02*
X6953D01*
X6647D02*
X6683D01*
X6348Y2537D02*
X6652D01*
X6352Y2497D02*
X6648D01*
X6077Y2591D02*
Y2659D01*
X6346Y2457D02*
X6654D01*
X6328Y2417D02*
X6672D01*
X6291Y2377D02*
X6647D01*
X4803Y2897D02*
X5525D01*
X4820Y2857D02*
X5525D01*
X4820Y2769D02*
Y2850D01*
Y2817D02*
X5525D01*
X4820Y2777D02*
X5525D01*
X4845Y2737D02*
X5525D01*
X4630Y2817D02*
X4670D01*
X4632Y2777D02*
X4670D01*
X4597Y2876D02*
Y2891D01*
X4568Y2897D02*
X4591D01*
X4613Y2857D02*
X4631D01*
X4557Y2902D02*
Y2912D01*
X4477Y2904D02*
Y2912D01*
X4670Y2769D02*
Y2819D01*
X4375Y2817D02*
X4400D01*
X4619Y2737D02*
X4645D01*
X4358Y2857D02*
X4417D01*
X4377Y2777D02*
X4398D01*
X5675Y2657D02*
X6079D01*
X5675Y2697D02*
X6057D01*
X5675Y2617D02*
X6103D01*
X4857Y2697D02*
X5525D01*
X5675Y2577D02*
X6069D01*
X5675Y2537D02*
X6052D01*
X5675Y2497D02*
X6048D01*
X5675Y2457D02*
X6054D01*
X5675Y2417D02*
X6072D01*
X5675Y2377D02*
X6109D01*
X4637Y2718D02*
Y2851D01*
X4364Y2737D02*
X4411D01*
X4854Y2657D02*
X5525D01*
X4835Y2617D02*
X5525D01*
X4584Y2697D02*
X4633D01*
X4778Y2577D02*
X5525D01*
X7804Y2337D02*
X7966D01*
X7803Y2297D02*
X7966D01*
X7793Y2257D02*
X7966D01*
X7771Y2217D02*
X7966D01*
X7730Y2177D02*
X7966D01*
X7783Y2057D02*
X7966D01*
X7799Y2017D02*
X7966D01*
X7805Y1977D02*
X7966D01*
X7693Y2137D02*
X7966D01*
X7754Y2097D02*
X7966D01*
X7757Y2093D02*
Y2202D01*
X7717Y2126D02*
Y2169D01*
X7797Y2024D02*
Y2271D01*
X7802Y1937D02*
X7966D01*
X7677Y2143D02*
Y2152D01*
X7788Y1897D02*
X7966D01*
X7557Y2136D02*
Y2159D01*
X7965Y-65D02*
X7967Y5065D01*
X7957Y-65D02*
Y5065D01*
X7917Y-65D02*
Y5065D01*
X7763Y1857D02*
X7966D01*
X7714Y1817D02*
X7966D01*
X7788Y1697D02*
X7966D01*
X7802Y1657D02*
X7966D01*
X7805Y1617D02*
X7966D01*
X7714Y1777D02*
X7966D01*
X7763Y1737D02*
X7966D01*
X7837Y1125D02*
Y3875D01*
X7797Y1674D02*
Y1921D01*
X7877Y1084D02*
Y3916D01*
X7757Y1743D02*
Y1852D01*
X7717Y1776D02*
Y1819D01*
X7677Y1793D02*
Y1802D01*
X7557Y1786D02*
Y1809D01*
X7517Y2112D02*
Y2183D01*
X7477Y2067D02*
Y2228D01*
X7324Y2217D02*
X7484D01*
X7284Y2177D02*
X7525D01*
X7244Y2137D02*
X7562D01*
X7204Y2097D02*
X7501D01*
X6299Y1857D02*
X7492D01*
X6278Y1817D02*
X7541D01*
X7354Y2248D02*
X7467D01*
X7164Y2057D02*
X7472D01*
X7124Y2017D02*
X7456D01*
X6953Y2337D02*
X6970D01*
X7026Y1919D02*
X7354Y2248D01*
X7084Y1977D02*
X7450D01*
X7044Y1937D02*
X7453D01*
X6314Y1897D02*
X7467D01*
X7517Y1762D02*
Y1833D01*
X7477Y1717D02*
Y1878D01*
X7437Y-65D02*
Y2248D01*
X7397Y-65D02*
Y2248D01*
X7357Y-65D02*
Y2248D01*
X6278Y1777D02*
X7541D01*
X6278Y1737D02*
X7492D01*
X6278Y1697D02*
X7467D01*
X6278Y1657D02*
X7453D01*
X7277Y1403D02*
Y2171D01*
X7237Y1431D02*
Y2131D01*
X7317Y1349D02*
Y2211D01*
X7197Y1445D02*
Y2091D01*
X7157Y1450D02*
Y2051D01*
X7117Y1445D02*
Y2011D01*
X7077Y1431D02*
Y1971D01*
X7037Y1403D02*
Y1931D01*
X6997Y1349D02*
Y1902D01*
X7799Y1577D02*
X7966D01*
X7783Y1537D02*
X7966D01*
X7754Y1497D02*
X7966D01*
X7693Y1457D02*
X7966D01*
X7730Y1417D02*
X7966D01*
X7793Y1337D02*
X7966D01*
X7803Y1297D02*
X7966D01*
X7804Y1257D02*
X7966D01*
X7771Y1377D02*
X7966D01*
X7796Y1217D02*
X7966D01*
X7757Y1393D02*
Y1502D01*
X7717Y1426D02*
Y1469D01*
X7797Y1324D02*
Y1571D01*
X7557Y1436D02*
Y1459D01*
X7517Y1412D02*
Y1483D01*
X7777Y1177D02*
X7966D01*
X7797Y1145D02*
Y1221D01*
X7677Y1443D02*
Y1452D01*
X7816Y1137D02*
X7966D01*
X7867Y1097D02*
X7966D01*
X7891Y1057D02*
X7966D01*
X7901Y1017D02*
X7966D01*
X7901Y977D02*
X7966D01*
X7889Y937D02*
X7965D01*
X7863Y897D02*
X7965D01*
X7804Y857D02*
X7965D01*
X7877Y-65D02*
Y916D01*
X7837Y-65D02*
Y875D01*
X7637Y-65D02*
Y897D01*
X7597Y-65D02*
Y1098D01*
X7557Y-65D02*
Y1109D01*
X7797Y-65D02*
Y855D01*
X7757Y-65D02*
Y848D01*
X7717Y-65D02*
Y851D01*
X7677Y-65D02*
Y866D01*
X6315Y1457D02*
X7562D01*
X6304Y1497D02*
X7501D01*
X7477Y1367D02*
Y1528D01*
X6278Y1617D02*
X7450D01*
X6278Y1537D02*
X7472D01*
X7323Y1337D02*
X7462D01*
X7326Y1217D02*
X7459D01*
X7307Y1177D02*
X7478D01*
X7260Y1417D02*
X7525D01*
X7301Y1377D02*
X7484D01*
X6310Y1417D02*
X7055D01*
X6289Y1377D02*
X7014D01*
X7333Y1297D02*
X7452D01*
X6278Y1577D02*
X7456D01*
X5675Y1337D02*
X6992D01*
X7334Y1257D02*
X7451D01*
X5704Y1217D02*
X6989D01*
X5712Y1177D02*
X7008D01*
X5675Y1297D02*
X6982D01*
X5676Y1257D02*
X6981D01*
X7477Y-65D02*
Y1178D01*
X7317Y-65D02*
Y1196D01*
X7277Y-65D02*
Y1142D01*
X7187Y1097D02*
X7598D01*
X7273Y1137D02*
X7512D01*
X7517Y-65D02*
Y1133D01*
X4362Y697D02*
X7965D01*
X4364Y657D02*
X7965D01*
X7237Y-65D02*
Y1114D01*
X7077Y-65D02*
Y1114D01*
X7037Y-65D02*
Y1142D01*
X5706Y1137D02*
X7042D01*
X6997Y-65D02*
Y1196D01*
X7197Y-65D02*
Y1100D01*
X7157Y-65D02*
Y1095D01*
X5682Y1097D02*
X7128D01*
X7117Y-65D02*
Y1100D01*
X6953Y2297D02*
X6970D01*
Y2224D02*
Y2395D01*
X6957Y2211D02*
Y5065D01*
X6325Y2337D02*
X6647D01*
X6477Y2239D02*
Y5065D01*
X6953Y2257D02*
X6970D01*
X6953Y2217D02*
X6964D01*
X6499D02*
X6647D01*
X6419Y2297D02*
X6647D01*
X6459Y2257D02*
X6647D01*
X6397Y2315D02*
Y5065D01*
X6357Y2325D02*
Y5065D01*
X6437Y2279D02*
Y5065D01*
X6317Y2347D02*
Y2403D01*
X6077Y2341D02*
Y2409D01*
X6333Y2325D02*
X6360D01*
X5709Y2217D02*
X6051D01*
X6953Y2206D02*
Y2402D01*
X6637Y2123D02*
Y5065D01*
X6597Y2123D02*
Y5065D01*
X6517Y2199D02*
Y5065D01*
X6557Y2159D02*
Y5065D01*
X6953Y2206D02*
X6970Y2224D01*
X6539Y2177D02*
X6647D01*
Y2123D02*
Y2402D01*
X6413Y2303D02*
X6594Y2123D01*
X6037Y2148D02*
Y5065D01*
X5997Y2148D02*
Y5065D01*
X5957Y2148D02*
Y5065D01*
X5917Y2148D02*
Y5065D01*
X5877Y2148D02*
Y5065D01*
X5797Y2181D02*
Y5065D01*
X5757Y2185D02*
Y5065D01*
X5837Y2161D02*
Y5065D01*
X5717Y2173D02*
Y5065D01*
X5675Y2337D02*
X6075D01*
X5677Y2272D02*
Y5065D01*
X5675Y2274D02*
Y3040D01*
X5525Y2274D02*
Y3009D01*
X5517Y2266D02*
Y3016D01*
X5675Y2297D02*
X6055D01*
X5690Y2257D02*
X6048D01*
X5477Y-65D02*
Y3056D01*
X5437Y-65D02*
Y3096D01*
X5397Y-65D02*
Y3136D01*
X5357Y-65D02*
Y3176D01*
X5317Y-65D02*
Y2998D01*
X5277Y-65D02*
Y2966D01*
X5237Y-65D02*
Y2954D01*
X5197Y-65D02*
Y2955D01*
X4357Y715D02*
Y2727D01*
X5157Y-65D02*
Y2969D01*
X5077Y-65D02*
Y5065D01*
X5037Y-65D02*
Y5065D01*
X4997Y-65D02*
Y5065D01*
X4957Y-65D02*
Y5065D01*
X4917Y-65D02*
Y5065D01*
X5117Y-65D02*
Y3004D01*
X4877Y-65D02*
Y5065D01*
X4837Y-65D02*
Y2621D01*
X4797Y-65D02*
Y2585D01*
X4757Y-65D02*
Y2573D01*
X4597Y-65D02*
Y2709D01*
X4557Y-65D02*
Y2683D01*
X4477Y-65D02*
Y2681D01*
X4437Y-65D02*
Y2704D01*
X4397Y-65D02*
Y2923D01*
X4717Y-65D02*
Y2576D01*
X4677Y-65D02*
Y2595D01*
X4637Y-65D02*
Y2652D01*
X4517Y-65D02*
Y2675D01*
X6579Y2137D02*
X6647D01*
X6594Y2123D02*
X6647D01*
X6313Y1937D02*
X6460D01*
X6400Y1998D02*
X6478Y1919D01*
X6957Y-65D02*
Y1898D01*
X6917Y-65D02*
Y1898D01*
X6877Y-65D02*
Y1898D01*
X6531D02*
X6972D01*
X6296Y1977D02*
X6420D01*
X6279Y1998D02*
X6400D01*
X6278Y1534D02*
Y1831D01*
X6128Y1534D02*
Y1758D01*
X6117Y1524D02*
Y1750D01*
X6096Y1737D02*
X6128D01*
X6837Y-65D02*
Y1898D01*
X6797Y-65D02*
Y1898D01*
X6757Y-65D02*
Y1898D01*
X6717Y-65D02*
Y1898D01*
X6477Y-65D02*
Y1920D01*
X6677Y-65D02*
Y1898D01*
X6637Y-65D02*
Y1898D01*
X6597Y-65D02*
Y1898D01*
X6557Y-65D02*
Y1898D01*
X6517Y-65D02*
Y1899D01*
X6437Y-65D02*
Y1960D01*
X6397Y-65D02*
Y1998D01*
X6357Y-65D02*
Y1998D01*
X6317Y-65D02*
Y1998D01*
X6117Y-65D02*
Y1376D01*
X6277Y-65D02*
Y1366D01*
X6237Y-65D02*
Y1343D01*
X6197Y-65D02*
Y1338D01*
X6157Y-65D02*
Y1347D01*
X5851Y2148D02*
X6087D01*
X5675Y1697D02*
X6128D01*
X5675Y1657D02*
X6128D01*
X5675Y1617D02*
X6128D01*
X5675Y1577D02*
X6128D01*
X5675Y1537D02*
X6128D01*
X5675Y1497D02*
X6101D01*
X5675Y1417D02*
X6095D01*
X5675Y1377D02*
X6116D01*
X6077Y2148D02*
Y2159D01*
X5808Y2177D02*
X6066D01*
X5811Y1765D02*
X5966D01*
X5712Y2177D02*
X5727D01*
X5525Y1259D02*
Y2106D01*
X5774Y1737D02*
X6004D01*
X5675Y1259D02*
Y1741D01*
Y1457D02*
X6090D01*
X5677Y1257D02*
Y1739D01*
X5957Y-65D02*
Y1765D01*
X5917Y-65D02*
Y1765D01*
X5877Y-65D02*
Y1765D01*
X5837Y-65D02*
Y1765D01*
X5797Y-65D02*
Y1752D01*
X6077Y-65D02*
Y1731D01*
X6037Y-65D02*
Y1728D01*
X5997Y-65D02*
Y1741D01*
X5757Y-65D02*
Y1732D01*
X5717Y-65D02*
Y1728D01*
X5517Y1251D02*
Y2114D01*
X5677Y-65D02*
Y1093D01*
X5517Y-65D02*
Y1099D01*
X5637Y-65D02*
Y1069D01*
X5597Y-65D02*
Y1063D01*
X5557Y-65D02*
Y1071D01*
X4357Y-65D02*
Y625D01*
X4127Y3457D02*
X5098D01*
X4197Y3334D02*
Y5065D01*
X4237Y3294D02*
Y5065D01*
X4055Y3537D02*
X5170D01*
X4106Y3497D02*
X5119D01*
X4234Y3297D02*
X5185D01*
X4194Y3337D02*
X5123D01*
X4274Y3257D02*
X5276D01*
X4132Y3417D02*
X5093D01*
X4154Y3377D02*
X5100D01*
X4117Y3480D02*
Y5065D01*
X4077Y3525D02*
Y5065D01*
X4157Y3374D02*
Y5065D01*
X4037Y3543D02*
Y5065D01*
X3997Y3547D02*
Y5065D01*
X3957Y3538D02*
Y5065D01*
X3917Y3513D02*
Y5065D01*
X2682Y3257D02*
X4061D01*
X4317Y3214D02*
Y5065D01*
X4277Y3254D02*
Y5065D01*
X4131Y3400D02*
X4469Y3062D01*
X4077Y3185D02*
Y3241D01*
X4025Y3294D02*
X4154Y3165D01*
X4314Y3217D02*
X5316D01*
X4354Y3177D02*
X5138D01*
X4117Y3140D02*
Y3201D01*
X2680Y3217D02*
X4101D01*
X3797Y2902D02*
Y5065D01*
X3757Y2910D02*
Y5065D01*
X3837Y2876D02*
Y5065D01*
X3717Y2904D02*
Y5065D01*
X3677Y2881D02*
Y5065D01*
X4037Y3203D02*
Y3281D01*
X3997Y3207D02*
Y3293D01*
X3957Y3198D02*
Y3302D01*
X3917Y3173D02*
Y3327D01*
X1235Y5065D02*
X7967D01*
X1235Y5017D02*
X7967D01*
X1235Y4977D02*
X7967D01*
X1235Y4897D02*
X7967D01*
X1235Y4857D02*
X7967D01*
X1235Y4817D02*
X7967D01*
X1235Y4737D02*
X7967D01*
X1235Y4697D02*
X7967D01*
X1235Y4617D02*
X7967D01*
X1235Y4577D02*
X7967D01*
X1235Y4537D02*
X7967D01*
X1235Y4457D02*
X7967D01*
X1235Y4417D02*
X7967D01*
X1235Y4337D02*
X7967D01*
X1235Y4297D02*
X7967D01*
X1516Y4137D02*
X7684D01*
X1567Y4097D02*
X7633D01*
X1591Y4057D02*
X7609D01*
X1235Y4257D02*
X7967D01*
X1235Y4177D02*
X7967D01*
X1601Y4017D02*
X7599D01*
X1601Y3977D02*
X7599D01*
X1589Y3937D02*
X7611D01*
X1563Y3897D02*
X7128D01*
X1504Y3857D02*
X7042D01*
X1235Y3817D02*
X7008D01*
X1235Y3777D02*
X6989D01*
X1235Y3657D02*
X6992D01*
X1235Y3617D02*
X7014D01*
X1235Y3577D02*
X7055D01*
X1235Y3697D02*
X6982D01*
X1235Y3737D02*
X6981D01*
X1235Y3537D02*
X3955D01*
X1235Y3497D02*
X3904D01*
X1235Y3457D02*
X3883D01*
X2648Y3337D02*
X3908D01*
X2672Y3297D02*
X3970D01*
X1235Y3417D02*
X3878D01*
X2588Y3377D02*
X3885D01*
X4164Y3152D02*
X4382Y2934D01*
X4237Y2908D02*
Y3079D01*
X4197Y2892D02*
Y3119D01*
X4131Y3097D02*
X4219D01*
X4130Y3057D02*
X4259D01*
X4317Y2895D02*
Y2999D01*
X4277Y2909D02*
Y3039D01*
X4313Y2897D02*
X4462D01*
X4116Y3017D02*
X4299D01*
X4081Y2977D02*
X4339D01*
X4119Y3137D02*
X4179D01*
X4087Y3177D02*
X4141D01*
X3997Y2910D02*
Y2953D01*
X4037Y2905D02*
Y2957D01*
X3957Y2900D02*
Y2962D01*
X4103Y2857D02*
X4162D01*
X4157Y2850D02*
Y3160D01*
X4058Y2897D02*
X4207D01*
X4120Y2817D02*
X4145D01*
X4122Y2777D02*
X4143D01*
X4329Y2697D02*
X4446D01*
X4109Y2737D02*
X4156D01*
X4074Y2697D02*
X4191D01*
X4117Y2826D02*
Y3020D01*
X4077Y2885D02*
Y2975D01*
X3917Y2871D02*
Y2987D01*
X3870Y2817D02*
X3890D01*
X3872Y2777D02*
X3888D01*
X3859Y2737D02*
X3901D01*
X3808Y2897D02*
X3952D01*
X2681Y2977D02*
X3929D01*
X3824Y2697D02*
X3936D01*
X2665Y3177D02*
X3923D01*
X2670Y2937D02*
X4379D01*
X2683Y2617D02*
X4655D01*
X2683Y2657D02*
X4636D01*
X2184Y2537D02*
X5525D01*
X2165Y2577D02*
X4712D01*
X2190Y2497D02*
X5525D01*
X2681Y3017D02*
X3894D01*
X2668Y3057D02*
X3880D01*
X2632Y3137D02*
X3891D01*
X2638Y3097D02*
X3879D01*
X3853Y2857D02*
X3907D01*
X3617Y2897D02*
X3702D01*
X3617Y2857D02*
X3657D01*
X3617Y2737D02*
X3651D01*
X3617Y2697D02*
X3686D01*
X2184Y2457D02*
X5525D01*
X2165Y2417D02*
X5525D01*
X2181Y2297D02*
X5525D01*
X2122Y2377D02*
X5525D01*
X2157Y2337D02*
X5525D01*
X2187Y2017D02*
X5525D01*
X2189Y1977D02*
X5525D01*
X2180Y1937D02*
X5525D01*
X2140Y2097D02*
X5525D01*
X2173Y2057D02*
X5525D01*
X2190Y2257D02*
X5510D01*
X2187Y2217D02*
X5491D01*
X2171Y2177D02*
X5488D01*
X2137Y2137D02*
X5501D01*
X2155Y1897D02*
X5525D01*
X2190Y1857D02*
X5525D01*
X2190Y1817D02*
X5525D01*
X2190Y1777D02*
X5525D01*
X2190Y1737D02*
X5525D01*
X3597Y2910D02*
Y5065D01*
X3557Y2910D02*
Y5065D01*
X3517Y2910D02*
Y5065D01*
X3477Y2910D02*
Y5065D01*
X3437Y2910D02*
Y5065D01*
X3397Y2910D02*
Y5065D01*
X3383Y2910D02*
X3617D01*
X2637Y3348D02*
Y5065D01*
X2597Y3374D02*
Y5065D01*
X2677Y3282D02*
Y5065D01*
X2557Y3384D02*
Y5065D01*
X2517Y3383D02*
Y5065D01*
X2637Y3098D02*
Y3142D01*
X2477Y3369D02*
Y5065D01*
X2677Y3032D02*
Y3208D01*
X2437Y3338D02*
Y5065D01*
Y3088D02*
Y3152D01*
X3617Y2675D02*
Y2910D01*
X2677Y2880D02*
Y2958D01*
X3383Y2675D02*
Y2910D01*
X2643Y2897D02*
X3383D01*
X2637Y2880D02*
Y2892D01*
X2683Y2600D02*
Y2880D01*
X2622D02*
X2683D01*
X2402D02*
X2463D01*
X2157Y2892D02*
Y5065D01*
X2117Y2892D02*
Y5065D01*
X2077Y2892D02*
Y5065D01*
X2037Y2892D02*
Y5065D01*
X1997Y2892D02*
Y5065D01*
X2437Y2880D02*
Y2902D01*
X1990Y2892D02*
X2190D01*
Y2612D02*
Y2892D01*
X1957D02*
Y5065D01*
X1917Y2892D02*
Y5065D01*
X1557Y4108D02*
Y5065D01*
X1517Y4137D02*
Y5065D01*
X1597Y4039D02*
Y5065D01*
X1477Y4150D02*
Y5065D01*
X1437Y4152D02*
Y5065D01*
X1397Y4143D02*
Y5065D01*
X1235Y3377D02*
X2497D01*
X1235Y3337D02*
X2437D01*
X1235Y3297D02*
X2413D01*
X1235Y4137D02*
X1384D01*
X1357Y4121D02*
Y5065D01*
X1317Y4075D02*
Y5065D01*
X1235Y4097D02*
X1333D01*
X1235Y4057D02*
X1309D01*
X1235Y4017D02*
X1299D01*
X1235Y3977D02*
X1299D01*
X1235Y3937D02*
X1311D01*
X1235Y3897D02*
X1337D01*
X1235Y3857D02*
X1396D01*
X1235Y3217D02*
X2405D01*
X1235Y3257D02*
X2403D01*
X1235Y3177D02*
X2420D01*
X1235Y3137D02*
X2453D01*
X1235Y3097D02*
X2447D01*
X1235Y3057D02*
X2417D01*
X1235Y3017D02*
X2404D01*
X1235Y2977D02*
X2404D01*
X1235Y2937D02*
X2415D01*
X1235Y2897D02*
X2442D01*
X1877Y2892D02*
Y5065D01*
X1837Y2892D02*
Y5065D01*
X1797Y2892D02*
Y5065D01*
X1757Y2892D02*
Y5065D01*
X1717Y2892D02*
Y5065D01*
X1910Y2892D02*
X1990D01*
X1910D02*
X1990D01*
X1710D02*
X1910D01*
X1710Y2612D02*
Y2892D01*
X3617Y2817D02*
X3640D01*
X2683Y2857D02*
X3383D01*
X2683Y2817D02*
X3383D01*
X2190Y2857D02*
X2402D01*
X2190Y2817D02*
X2402D01*
X3617Y2777D02*
X3638D01*
X2683D02*
X3383D01*
Y2675D02*
X3617D01*
X2683Y2737D02*
X3383D01*
X2683Y2697D02*
X3383D01*
X2190Y2777D02*
X2402D01*
X2190Y2737D02*
X2402D01*
X2190Y2697D02*
X2402D01*
X2190Y2657D02*
X2402D01*
X2190Y2617D02*
X2402D01*
X2130Y2612D02*
X2190D01*
X2402Y2600D02*
X2683D01*
X2402D02*
Y2880D01*
X2130Y1875D02*
X2190D01*
X2157Y2587D02*
Y2612D01*
Y2337D02*
Y2408D01*
Y2080D02*
Y2158D01*
X1757Y2603D02*
Y2612D01*
Y2353D02*
Y2392D01*
X2117Y2113D02*
Y2125D01*
X2157Y1875D02*
Y1900D01*
X1757Y2095D02*
Y2142D01*
Y1875D02*
Y1885D01*
X1710Y2612D02*
X1770D01*
X1717Y2543D02*
Y2612D01*
X1235Y2577D02*
X1735D01*
X1235Y2537D02*
X1716D01*
X1235Y2417D02*
X1735D01*
X1235Y2457D02*
X1716D01*
X1717Y2293D02*
Y2452D01*
X1235Y2377D02*
X1778D01*
X1235Y2337D02*
X1743D01*
X1235Y2857D02*
X1710D01*
X1235Y2817D02*
X1710D01*
X1235Y2777D02*
X1710D01*
X1235Y2737D02*
X1710D01*
X1235Y2697D02*
X1710D01*
X1235Y2657D02*
X1710D01*
X1235Y2617D02*
X1710D01*
X1235Y2497D02*
X1710D01*
X1235Y2297D02*
X1719D01*
X1235Y2257D02*
X1710D01*
X1235Y2217D02*
X1713D01*
X1235Y2177D02*
X1729D01*
X1235Y2137D02*
X1763D01*
X1235Y2097D02*
X1760D01*
X1710Y1875D02*
X1770D01*
X1235Y2057D02*
X1727D01*
X1235Y1897D02*
X1745D01*
X1717Y2035D02*
Y2202D01*
X1235Y2017D02*
X1713D01*
X1717Y1875D02*
Y1945D01*
X1235Y1977D02*
X1711D01*
X1235Y1937D02*
X1720D01*
X1235Y1857D02*
X1710D01*
X1235Y1817D02*
X1710D01*
X1235Y1777D02*
X1710D01*
X1235Y1737D02*
X1710D01*
X4237Y809D02*
Y2677D01*
X3837Y810D02*
Y2709D01*
X4197Y807D02*
Y2693D01*
X3797Y810D02*
Y2683D01*
X3717Y810D02*
Y2681D01*
X3580Y810D02*
X3860D01*
X3757D02*
Y2675D01*
X3997Y808D02*
Y2675D01*
X3495Y857D02*
X7696D01*
X3495Y817D02*
X7965D01*
X3357Y893D02*
Y5065D01*
X3317Y893D02*
Y5065D01*
X3637Y810D02*
Y5065D01*
X3277Y893D02*
Y5065D01*
X3237Y893D02*
Y5065D01*
X3677Y810D02*
Y2704D01*
X3477Y893D02*
Y2675D01*
X3597Y810D02*
Y2675D01*
X3437Y893D02*
Y2675D01*
X3397Y893D02*
Y2675D01*
X4317Y775D02*
Y2690D01*
X4157Y793D02*
Y2735D01*
X4117Y760D02*
Y2759D01*
X4037Y795D02*
Y2680D01*
X4077Y765D02*
Y2700D01*
X4315Y777D02*
X7965D01*
X4277Y800D02*
Y2676D01*
X4065Y777D02*
X4135D01*
X3957Y809D02*
Y2685D01*
X3917Y798D02*
Y2714D01*
X3877Y770D02*
Y5065D01*
X3557Y-65D02*
Y2675D01*
X3517Y-65D02*
Y2675D01*
X3860Y777D02*
X3885D01*
X3860Y750D02*
Y810D01*
X3580Y530D02*
Y810D01*
X3495Y690D02*
Y893D01*
X2190Y1697D02*
X5525D01*
X2190Y1657D02*
X5525D01*
X2190Y1617D02*
X5525D01*
X1235Y1577D02*
X5525D01*
X1235Y1537D02*
X5525D01*
X1235Y1497D02*
X5525D01*
X3150Y1377D02*
X5525D01*
X3150Y1337D02*
X5525D01*
X1235Y1457D02*
X5525D01*
X1235Y1417D02*
X5525D01*
X3117Y1380D02*
Y5065D01*
X3077Y1380D02*
Y5065D01*
X3037Y1380D02*
Y5065D01*
X2997Y1380D02*
Y5065D01*
X2870Y1380D02*
X3150D01*
Y1297D02*
X5525D01*
X3150Y1257D02*
X5524D01*
X3150Y1217D02*
X5496D01*
X3150Y1177D02*
X5488D01*
X3150Y1137D02*
X5494D01*
X1591Y1057D02*
X7609D01*
X1601Y1017D02*
X7599D01*
X1601Y977D02*
X7599D01*
X1567Y1097D02*
X5518D01*
X1589Y937D02*
X7611D01*
X3215Y893D02*
X3495D01*
X3193Y857D02*
X3215D01*
Y832D02*
Y893D01*
X1563Y897D02*
X7637D01*
X3157Y880D02*
Y5065D01*
X3150Y1100D02*
Y1380D01*
X3197Y853D02*
Y5065D01*
X2870Y1100D02*
X3150D01*
X3117Y891D02*
Y1100D01*
X3077Y891D02*
Y1100D01*
X3037Y878D02*
Y1100D01*
X2943Y857D02*
X3007D01*
X2997Y848D02*
Y1100D01*
X4348Y737D02*
X7965D01*
X4355Y617D02*
X7965D01*
X4330Y577D02*
X7965D01*
X4270Y537D02*
X7965D01*
X4080Y577D02*
X4120D01*
X4020Y537D02*
X4180D01*
X3860Y577D02*
X3870D01*
X3860Y537D02*
X3930D01*
X3495Y777D02*
X3580D01*
X3495Y737D02*
X3580D01*
X3495Y697D02*
X3580D01*
X3495Y612D02*
Y690D01*
Y612D02*
Y690D01*
X3860Y530D02*
Y590D01*
X3495Y657D02*
X3580D01*
Y530D02*
X3860D01*
X3495Y617D02*
X3580D01*
X3495Y410D02*
Y612D01*
X4317Y-65D02*
Y565D01*
X4277Y-65D02*
Y540D01*
X4157Y-65D02*
Y547D01*
X4117Y-65D02*
Y580D01*
X4077Y-65D02*
Y575D01*
X4237Y-65D02*
Y531D01*
X4197Y-65D02*
Y533D01*
X4037Y-65D02*
Y545D01*
X3997Y-65D02*
Y532D01*
X3957Y-65D02*
Y531D01*
X3917Y-65D02*
Y542D01*
X3877Y-65D02*
Y570D01*
X3837Y-65D02*
Y530D01*
X3797Y-65D02*
Y530D01*
X3757Y-65D02*
Y530D01*
X3717Y-65D02*
Y530D01*
X3677Y-65D02*
Y530D01*
X3637Y-65D02*
Y530D01*
X3597Y-65D02*
Y530D01*
X3495Y497D02*
X7965D01*
X3495Y577D02*
X3580D01*
X3495Y457D02*
X7965D01*
X3495Y417D02*
X7965D01*
X1235Y377D02*
X7965D01*
X1235Y337D02*
X7965D01*
X1235Y297D02*
X7965D01*
X1235Y257D02*
X7965D01*
X1235Y217D02*
X7965D01*
X1235Y177D02*
X7965D01*
X3495Y537D02*
X3580D01*
X3205Y457D02*
X3215D01*
Y410D02*
Y470D01*
Y410D02*
X3495D01*
X3145Y417D02*
X3215D01*
X2895D02*
X3055D01*
X3477Y-65D02*
Y410D01*
X3437Y-65D02*
Y410D01*
X3397Y-65D02*
Y410D01*
X1235Y137D02*
X7965D01*
X1235Y97D02*
X7965D01*
X1235Y57D02*
X7965D01*
X1235Y17D02*
X7965D01*
X1235Y-23D02*
X7965D01*
X1235Y-63D02*
X7965D01*
X1235Y-65D02*
X7965D01*
X3357D02*
Y410D01*
X3317Y-65D02*
Y410D01*
X3197Y-65D02*
Y450D01*
X3157Y-65D02*
Y422D01*
X3037Y-65D02*
Y425D01*
X3277Y-65D02*
Y410D01*
X3237Y-65D02*
Y410D01*
X3117Y-65D02*
Y411D01*
X3077Y-65D02*
Y412D01*
X2957Y1380D02*
Y5065D01*
X2917Y1380D02*
Y5065D01*
X2877Y1380D02*
Y5065D01*
X2797Y1373D02*
Y5065D01*
X2837Y1353D02*
Y5065D01*
X2781Y1377D02*
X2870D01*
X2855Y1337D02*
X2870D01*
Y1320D02*
Y1380D01*
X2757Y1380D02*
Y5065D01*
X2531Y1377D02*
X2729D01*
X2717Y1375D02*
Y5065D01*
X2677Y1357D02*
Y2600D01*
X2597Y1345D02*
Y2600D01*
X2557Y1370D02*
Y2600D01*
X2397Y1330D02*
Y5065D01*
X2517Y1379D02*
Y2600D01*
X2477Y1377D02*
Y2600D01*
X2605Y1337D02*
X2655D01*
X2190Y1595D02*
Y1875D01*
X2437Y1363D02*
Y2600D01*
X2637Y1316D02*
Y2600D01*
Y886D02*
Y1164D01*
X2850Y1137D02*
X2870D01*
Y1100D02*
Y1160D01*
X2837Y892D02*
Y1127D01*
X2600Y1137D02*
X2660D01*
X2677Y866D02*
Y1123D01*
X2357Y893D02*
Y5065D01*
X2317Y893D02*
Y5065D01*
X2277Y893D02*
Y5065D01*
X2237Y893D02*
Y5065D01*
X2197Y-65D02*
Y5065D01*
X2597Y892D02*
Y1135D01*
X2397Y893D02*
Y1150D01*
X2157Y-65D02*
Y1595D01*
X2117Y-65D02*
Y1595D01*
X2077Y-65D02*
Y1595D01*
X1990D02*
X2190D01*
X1910D02*
X1990D01*
X1910D02*
X1990D01*
X1235Y1377D02*
X2479D01*
X1235Y1337D02*
X2405D01*
X1235Y1297D02*
X2377D01*
X1235Y1257D02*
X2366D01*
X1516Y1137D02*
X2410D01*
X1235Y1217D02*
X2367D01*
X1235Y1177D02*
X2380D01*
X1710Y1595D02*
Y1875D01*
X1477Y1150D02*
Y3850D01*
X1517Y1137D02*
Y3863D01*
X1437Y1152D02*
Y3848D01*
X1397Y1143D02*
Y3857D01*
X1235Y1697D02*
X1710D01*
X1235Y1657D02*
X1710D01*
Y1595D02*
X1910D01*
X1235Y1617D02*
X1710D01*
X1235Y1137D02*
X1384D01*
X2037Y-65D02*
Y1595D01*
X1997Y-65D02*
Y1595D01*
X1957Y-65D02*
Y1595D01*
X1917Y-65D02*
Y1595D01*
X1677Y-65D02*
Y5065D01*
X1877Y-65D02*
Y1595D01*
X1837Y-65D02*
Y1595D01*
X1797Y-65D02*
Y1595D01*
X1757Y-65D02*
Y1595D01*
X1717Y-65D02*
Y1595D01*
X1637Y-65D02*
Y5065D01*
X1597Y1039D02*
Y3961D01*
X1277Y-65D02*
Y5065D01*
X1237Y-65D02*
Y5065D01*
X1235Y-65D02*
Y5065D01*
X1357Y1121D02*
Y3879D01*
X1557Y1108D02*
Y3892D01*
X1317Y1075D02*
Y3925D01*
X2917Y875D02*
Y1100D01*
X2877Y890D02*
Y1100D01*
X2957Y842D02*
Y1100D01*
X2797Y882D02*
Y1107D01*
X2757Y858D02*
Y1100D01*
X2955Y457D02*
X2995D01*
X2700D02*
X2745D01*
X2688Y857D02*
X2757D01*
X2557Y887D02*
Y1110D01*
X2517Y869D02*
Y1101D01*
X2717Y820D02*
Y1105D01*
X2477Y893D02*
Y1103D01*
X2437Y893D02*
Y1117D01*
X2480Y832D02*
Y893D01*
Y857D02*
X2502D01*
X2480Y457D02*
X2490D01*
X2997Y-65D02*
Y455D01*
X2957Y-65D02*
Y460D01*
X2757Y-65D02*
Y445D01*
X2917Y-65D02*
Y427D01*
X2877Y-65D02*
Y413D01*
X2837Y-65D02*
Y411D01*
X2640Y417D02*
X2805D01*
X2797Y-65D02*
Y420D01*
X2717Y-65D02*
Y482D01*
X2677Y-65D02*
Y437D01*
X2637Y-65D02*
Y417D01*
X2480Y410D02*
Y470D01*
X2517Y-65D02*
Y433D01*
X2597Y-65D02*
Y410D01*
X2557Y-65D02*
Y415D01*
X2480Y417D02*
X2550D01*
X2477Y-65D02*
Y410D01*
X2200Y893D02*
X2480D01*
X1504Y857D02*
X2200D01*
Y690D02*
Y893D01*
X1235Y817D02*
X2200D01*
X1235Y777D02*
X2200D01*
X1235Y737D02*
X2200D01*
Y612D02*
Y690D01*
Y612D02*
Y690D01*
X1235Y697D02*
X2200D01*
X1235Y657D02*
X2200D01*
X1235Y1097D02*
X1333D01*
X1235Y1057D02*
X1309D01*
X1235Y1017D02*
X1299D01*
X1235Y977D02*
X1299D01*
X1235Y937D02*
X1311D01*
X1235Y857D02*
X1396D01*
X1235Y897D02*
X1337D01*
X1235Y617D02*
X2200D01*
X1235Y577D02*
X2200D01*
X1235Y537D02*
X2200D01*
Y410D02*
X2480D01*
X2200D02*
Y612D01*
X2437Y-65D02*
Y410D01*
X1235Y497D02*
X2200D01*
X1235Y457D02*
X2200D01*
X2397Y-65D02*
Y410D01*
X2357Y-65D02*
Y410D01*
X2317Y-65D02*
Y410D01*
X2277Y-65D02*
Y410D01*
X2237Y-65D02*
Y410D01*
X1597Y-65D02*
Y961D01*
X1557Y-65D02*
Y892D01*
X1517Y-65D02*
Y863D01*
X1357Y-65D02*
Y879D01*
X1317Y-65D02*
Y925D01*
X1477Y-65D02*
Y850D01*
X1437Y-65D02*
Y848D01*
X1235Y417D02*
X2200D01*
X1397Y-65D02*
Y857D01*
X6972Y1973D02*
X7322Y2323D01*
X7628D01*
X5767Y2073D02*
X6431D01*
X7322Y2673D02*
X7628D01*
X7045Y2395D02*
X7322Y2673D01*
X7045Y2192D02*
Y2395D01*
X6200Y2250D02*
X6360D01*
X6203Y1450D02*
Y1915D01*
X6900Y2048D02*
X7045Y2192D01*
X6562Y2048D02*
X6900D01*
X6531Y1973D02*
X6972D01*
X4608Y2988D02*
X4745Y2850D01*
X4217Y3205D02*
X4435Y2988D01*
X4217Y3205D02*
Y3208D01*
X4745Y2685D02*
Y2850D01*
X4005Y3420D02*
X4438Y2988D01*
X4435D02*
X4608D01*
X5728Y1840D02*
X6050D01*
X6360Y2250D02*
X6562Y2048D01*
X6431Y2073D02*
X6531Y1973D01*
X5220Y3420D02*
X5600Y3040D01*
Y1175D02*
Y3040D01*
M02*
