%FSLAX42Y42*%
%MOMM*%
G71*
G01*
G75*
G04 Layer_Physical_Order=1*
%ADD10O,2.00X0.50*%
%ADD11O,0.50X2.00*%
%ADD12R,0.50X2.00*%
%ADD13R,0.80X0.95*%
%ADD14R,0.90X0.95*%
%ADD15R,0.95X0.90*%
%ADD16R,0.95X0.80*%
%ADD17O,2.00X0.60*%
%ADD18R,2.00X0.50*%
%ADD19R,0.91X0.91*%
%ADD20R,1.27X0.91*%
%ADD21R,1.50X1.25*%
%ADD22R,2.30X1.90*%
%ADD23C,0.50*%
%ADD24C,1.75*%
%ADD25R,1.75X1.75*%
%ADD26C,2.50*%
%ADD27C,1.50*%
%ADD28C,2.00*%
%ADD29R,2.00X2.00*%
%ADD30C,1.30*%
%ADD31R,1.30X1.30*%
%ADD32C,1.20*%
D10*
X3155Y1477D02*
D03*
X4120Y1862D02*
D03*
Y2623D02*
D03*
Y2498D02*
D03*
Y2367D02*
D03*
Y2242D02*
D03*
Y2112D02*
D03*
Y1988D02*
D03*
Y1733D02*
D03*
Y1608D02*
D03*
Y1477D02*
D03*
X3155Y1608D02*
D03*
Y1733D02*
D03*
Y1862D02*
D03*
Y1988D02*
D03*
Y2112D02*
D03*
Y2242D02*
D03*
Y2367D02*
D03*
Y2498D02*
D03*
D11*
X5367Y2190D02*
D03*
X5238D02*
D03*
X5112D02*
D03*
Y2750D02*
D03*
X5238D02*
D03*
X5367D02*
D03*
Y1733D02*
D03*
X5238D02*
D03*
X5112D02*
D03*
Y1173D02*
D03*
X5238D02*
D03*
X5367D02*
D03*
X5492D02*
D03*
Y2190D02*
D03*
D12*
Y2750D02*
D03*
Y1733D02*
D03*
D13*
X4460Y1127D02*
D03*
X4300D02*
D03*
X2555Y1735D02*
D03*
X2715D02*
D03*
X4795Y2210D02*
D03*
X4955D02*
D03*
X4783Y1125D02*
D03*
X4622D02*
D03*
X4958Y1515D02*
D03*
X4797D02*
D03*
X4955Y1690D02*
D03*
X4795D02*
D03*
X5650Y1343D02*
D03*
X5810D02*
D03*
X5112Y1938D02*
D03*
X5272D02*
D03*
X5608D02*
D03*
X5447D02*
D03*
D14*
X4628Y1858D02*
D03*
X4788D02*
D03*
X4783Y1297D02*
D03*
X4622D02*
D03*
X4300Y1298D02*
D03*
X4460D02*
D03*
D15*
X4953Y2383D02*
D03*
Y2542D02*
D03*
X4633Y1515D02*
D03*
Y1675D02*
D03*
X3725Y3420D02*
D03*
Y3260D02*
D03*
D16*
X4628Y2175D02*
D03*
Y2015D02*
D03*
X4745Y2383D02*
D03*
Y2542D02*
D03*
X4953Y1138D02*
D03*
Y1298D02*
D03*
X5708Y2750D02*
D03*
Y2590D02*
D03*
X5728Y1573D02*
D03*
Y1733D02*
D03*
D17*
X3917Y2623D02*
D03*
Y2498D02*
D03*
Y2367D02*
D03*
Y2242D02*
D03*
Y2112D02*
D03*
Y1988D02*
D03*
Y1862D02*
D03*
X3358D02*
D03*
Y1988D02*
D03*
Y2112D02*
D03*
Y2242D02*
D03*
Y2367D02*
D03*
Y2498D02*
D03*
Y2623D02*
D03*
X4335Y3420D02*
D03*
Y3295D02*
D03*
Y3165D02*
D03*
X4895Y3040D02*
D03*
Y3165D02*
D03*
Y3295D02*
D03*
X4335Y3040D02*
D03*
X4895Y3420D02*
D03*
D18*
X3155Y2623D02*
D03*
D19*
X3342Y3230D02*
D03*
Y3421D02*
D03*
X5778Y3322D02*
D03*
Y3513D02*
D03*
X6260Y3553D02*
D03*
Y3743D02*
D03*
D20*
X3139Y3327D02*
D03*
X6057Y3649D02*
D03*
X5574Y3419D02*
D03*
D21*
X4762Y3665D02*
D03*
X4470Y3662D02*
D03*
X4240D02*
D03*
X5808Y3653D02*
D03*
X4992Y3665D02*
D03*
X5578Y3653D02*
D03*
X4497Y3420D02*
D03*
X4728D02*
D03*
D22*
X5220Y3080D02*
D03*
X4005D02*
D03*
Y3420D02*
D03*
X5220D02*
D03*
D23*
X3058Y2498D02*
X3358D01*
X2542Y3245D02*
X2902Y2885D01*
Y2652D02*
Y2885D01*
Y2652D02*
X3058Y2498D01*
X3155Y2367D02*
X3358D01*
X2542Y2995D02*
X2792Y2745D01*
Y2635D02*
Y2745D01*
Y2635D02*
X3060Y2367D01*
X3155D01*
X3040Y2242D02*
X3622D01*
X3500Y2792D02*
X3683Y2610D01*
X2542Y2740D02*
X3040Y2242D01*
X1850Y2498D02*
X2650D01*
X3035Y2112D01*
X2545Y2783D02*
Y2792D01*
X2998Y1733D02*
X3155D01*
X2505Y1240D02*
X2998Y1733D01*
X2755Y1373D02*
X2990Y1608D01*
X3155D01*
X2755Y1240D02*
Y1373D01*
X3155Y1385D02*
Y1477D01*
X3010Y1240D02*
X3155Y1385D01*
X3845Y1733D02*
X4120D01*
X3720Y670D02*
Y868D01*
X3778Y925D01*
Y1665D01*
X3845Y1733D01*
X3955Y1608D02*
X4120D01*
X3975Y670D02*
Y1075D01*
X3930Y1120D02*
X3975Y1075D01*
X3930Y1120D02*
Y1582D01*
X3955Y1608D01*
X4225Y670D02*
Y910D01*
X4120Y1015D02*
Y1477D01*
X4460Y932D02*
Y1127D01*
Y932D02*
X4597Y795D01*
X4120Y1015D02*
X4225Y910D01*
X3035Y2112D02*
X3517D01*
X3647Y1300D02*
Y1983D01*
X3100Y753D02*
X3647Y1300D01*
X3517Y2112D02*
X3647Y1983D01*
X4300Y1127D02*
Y1800D01*
X3917Y1862D02*
X4238D01*
X4300Y1800D01*
X4370Y1988D02*
X4433Y1925D01*
X3917Y1988D02*
X4370D01*
X4433Y1523D02*
Y1925D01*
X4783Y1297D02*
Y1385D01*
X4562Y1515D02*
X4797D01*
X3917Y2112D02*
X4370D01*
X4483Y2000D01*
X4483Y2000D02*
X4522Y1960D01*
X4350Y2498D02*
X4408Y2555D01*
X3917Y2498D02*
X4350D01*
X4400Y2367D02*
X4515Y2483D01*
X3917Y2367D02*
X4400D01*
X3917Y2242D02*
X4560D01*
X4628Y2175D01*
X4515Y2483D02*
Y2792D01*
X4408Y2555D02*
Y2658D01*
X4272Y2792D02*
X4408Y2658D01*
X4120Y2620D02*
X4208D01*
X3917Y2623D02*
X4120D01*
X3683Y2302D02*
Y2610D01*
X3622Y2242D02*
X3683Y2302D01*
X3343Y3420D02*
X4005D01*
X3528Y2948D02*
Y3420D01*
X3353Y2948D02*
X3730D01*
X3755Y2792D02*
Y2923D01*
X3253Y2848D02*
X3353Y2948D01*
X3253Y2623D02*
Y2848D01*
Y2623D02*
X3358D01*
X3540Y1443D02*
Y1920D01*
X2850Y753D02*
X3540Y1443D01*
X3472Y1988D02*
X3540Y1920D01*
X1840Y2248D02*
X2610D01*
X2873Y1985D02*
X3358D01*
Y1988D02*
X3472D01*
X5367Y2017D02*
Y2333D01*
X5767Y2073D02*
Y2315D01*
X5367Y2017D02*
X5447Y1938D01*
X6800Y2750D02*
X7072Y3023D01*
X7628D01*
X6418Y3722D02*
X7628D01*
X6397Y3743D02*
X6418Y3722D01*
X6260Y3743D02*
X6397D01*
X6072Y1685D02*
X6515D01*
X5112Y1068D02*
Y1360D01*
X6800Y1973D02*
X7628D01*
X6800Y1970D02*
Y2250D01*
X6515Y1685D02*
X6800Y1970D01*
X4958Y1515D02*
X5112Y1360D01*
X6407Y1767D02*
X6562Y1923D01*
X6122Y1767D02*
X6407D01*
X6562Y1923D02*
Y2333D01*
X7060Y1575D02*
X7107Y1623D01*
X7628D01*
X6138Y1575D02*
X7060D01*
X4953Y1038D02*
Y1138D01*
X6203Y1450D02*
X6645D01*
X6822Y1273D02*
X7628D01*
X6200Y2750D02*
X6400Y2550D01*
X6203Y1915D02*
X6400Y2112D01*
X6645Y1450D02*
X6717Y1378D01*
X6822Y1273D01*
X6203Y1125D02*
Y1450D01*
X6260Y3553D02*
Y3743D01*
X6176Y3828D02*
X6260Y3743D01*
X3139Y3327D02*
Y3427D01*
X6058Y1495D02*
X6138Y1575D01*
X2610Y2248D02*
X2873Y1985D01*
X5811Y3649D02*
X6057D01*
X5576Y3420D02*
X5578Y3422D01*
Y3653D01*
X4895Y3420D02*
X4895Y3420D01*
X4728Y3420D02*
X4895D01*
X4335Y3420D02*
X4335Y3420D01*
X4497D01*
X4240Y3422D02*
Y3662D01*
X4005Y3420D02*
X4335D01*
X4992Y3425D02*
Y3665D01*
X4895Y3420D02*
X5576D01*
X5205Y2925D02*
X5238Y2892D01*
X4260Y2792D02*
X4272D01*
X4260D02*
X4392Y2925D01*
X5238Y2750D02*
Y2892D01*
X4392Y2925D02*
X5205D01*
X4522Y1555D02*
Y1960D01*
Y1555D02*
X4562Y1515D01*
X4433Y1523D02*
X4547Y1407D01*
X4760D02*
X4783Y1385D01*
X4547Y1407D02*
X4760D01*
X4953Y2212D02*
X4975Y2190D01*
X4953Y2212D02*
Y2383D01*
X4975Y2190D02*
X5112D01*
X4628Y1858D02*
Y2015D01*
X4725D01*
X4745Y2383D02*
X4795Y2333D01*
X4725Y2015D02*
X4795Y2085D01*
Y2333D01*
X4783Y1297D02*
X4783Y1298D01*
X4783Y1125D02*
Y1297D01*
X4783Y1298D02*
X4953D01*
X5112Y1970D02*
X5238Y2095D01*
X5112Y1938D02*
Y1970D01*
X5238Y2095D02*
Y2190D01*
X5367Y1640D02*
X5435Y1573D01*
X5272Y1938D02*
X5367Y1842D01*
Y1640D02*
Y1842D01*
Y1300D02*
X5410Y1343D01*
X5238Y1173D02*
X5367D01*
X5492Y1733D02*
X5728D01*
X5608D02*
Y1938D01*
X6062Y2500D02*
X6110D01*
X5812Y2750D02*
X6062Y2500D01*
X5708Y2750D02*
X5812D01*
X5367Y2750D02*
X5708D01*
X5183Y998D02*
X5722D01*
X5112Y1068D02*
X5183Y998D01*
X4965Y1690D02*
X5183Y1473D01*
X4955Y1690D02*
X4965D01*
X5367Y1173D02*
Y1300D01*
X5410Y1343D02*
X5650D01*
X5783Y1473D02*
X5810Y1445D01*
X5235Y1473D02*
X5238Y1598D01*
Y1733D01*
X5810Y1343D02*
Y1445D01*
X5183Y1473D02*
X5783D01*
X6562Y2333D02*
X6730Y2500D01*
X6800D01*
X5722Y998D02*
X5938Y1212D01*
X5838Y1573D02*
X5897Y1633D01*
X5938Y1212D02*
Y1550D01*
X5785Y893D02*
X6058Y1165D01*
X5872Y795D02*
X6203Y1125D01*
X5708Y2590D02*
X5897Y2400D01*
X5435Y1573D02*
X5838D01*
X5897Y1633D02*
Y2400D01*
X5367Y2333D02*
X5430Y2395D01*
X5688D01*
X5767Y2315D01*
X5238Y2190D02*
X5367D01*
X6058Y1165D02*
Y1495D01*
X5938Y1550D02*
X6072Y1685D01*
X6400Y2112D02*
Y2550D01*
X3342Y3421D02*
X3343Y3420D01*
X4335Y3295D02*
X4895D01*
X4470Y3662D02*
X4760D01*
X4005Y3080D02*
X4090Y3165D01*
X4005Y2620D02*
Y2792D01*
X4005Y2792D02*
Y3080D01*
X4335Y3165D02*
Y3295D01*
X4895Y3165D02*
Y3295D01*
X5135Y3165D02*
X5220Y3080D01*
X4090Y3165D02*
X5135D01*
X3139Y3427D02*
X3540Y3828D01*
X6176D01*
X4745Y2542D02*
Y2685D01*
X5728Y1733D02*
Y1840D01*
X6050D02*
X6122Y1767D01*
X5492Y1173D02*
X5597D01*
X5492Y2190D02*
X5600D01*
X4780Y1675D02*
X4795Y1690D01*
Y1850D01*
X4788Y1858D02*
X4795Y1850D01*
X4633Y1675D02*
X4780D01*
X4970Y1858D02*
X5095Y1733D01*
X4788Y1858D02*
X4945D01*
X4953Y1858D02*
X4970D01*
X5095Y1733D02*
X5112D01*
X4945Y1858D02*
X4962Y1875D01*
X4953Y2542D02*
Y2750D01*
X5112D01*
X4953Y1038D02*
X5097Y893D01*
X5785D01*
X4597Y795D02*
X5872D01*
X4620Y1123D02*
X4622Y1125D01*
Y1297D01*
X4460D02*
X4622D01*
X4620Y970D02*
Y1123D01*
X3725Y3127D02*
Y3260D01*
X3342Y3073D02*
Y3230D01*
X5778Y3322D02*
X5933D01*
X3730Y2948D02*
X3755Y2923D01*
X2715Y1735D02*
X2852D01*
X2977Y1860D01*
X3358Y1862D01*
X1850Y1735D02*
X2555D01*
X2340Y550D02*
Y1733D01*
X2850Y550D02*
Y753D01*
X3100Y550D02*
Y753D01*
D24*
X4225Y670D02*
D03*
X3975D02*
D03*
X2542Y2995D02*
D03*
Y3245D02*
D03*
X2755Y1240D02*
D03*
X2505D02*
D03*
X1850Y2498D02*
D03*
Y2248D02*
D03*
Y1990D02*
D03*
X2050D02*
D03*
Y2248D02*
D03*
Y2498D02*
D03*
X2595Y753D02*
D03*
X2850D02*
D03*
X3100D02*
D03*
X2595Y550D02*
D03*
X2850D02*
D03*
X3100D02*
D03*
D25*
X3720Y670D02*
D03*
X2542Y2740D02*
D03*
X3010Y1240D02*
D03*
X1850Y2752D02*
D03*
Y1735D02*
D03*
X2050D02*
D03*
Y2752D02*
D03*
X2340Y753D02*
D03*
X3355D02*
D03*
X2340Y550D02*
D03*
X3355D02*
D03*
D26*
X7157Y3722D02*
D03*
Y1273D02*
D03*
X7628Y1973D02*
D03*
Y1623D02*
D03*
Y1273D02*
D03*
Y3023D02*
D03*
Y2673D02*
D03*
Y2323D02*
D03*
Y3722D02*
D03*
Y3372D02*
D03*
D27*
X7750Y1000D02*
D03*
Y4000D02*
D03*
X1450Y1000D02*
D03*
Y4000D02*
D03*
X5220Y3080D02*
D03*
X4005D02*
D03*
Y3420D02*
D03*
X5220Y3420D02*
D03*
D28*
X6200Y2250D02*
D03*
Y2500D02*
D03*
X6800D02*
D03*
Y2750D02*
D03*
X6200D02*
D03*
D29*
X6800Y2250D02*
D03*
D30*
X4515Y2792D02*
D03*
X4260D02*
D03*
X4005D02*
D03*
X3755D02*
D03*
D31*
X3500D02*
D03*
D32*
X4745Y2685D02*
D03*
X5728Y1840D02*
D03*
X6050D02*
D03*
X6203Y1915D02*
D03*
Y1450D02*
D03*
X5600Y1175D02*
D03*
Y2190D02*
D03*
X5767Y2073D02*
D03*
X4620Y3662D02*
D03*
X4515Y3165D02*
D03*
X4703D02*
D03*
X4953Y2750D02*
D03*
Y1858D02*
D03*
X4620Y970D02*
D03*
X5933Y3322D02*
D03*
X3342Y3073D02*
D03*
X3725Y3127D02*
D03*
M02*
